<svg width="24" height="24" viewBox="0 0 24 24" fill="none" xmlns="http://www.w3.org/2000/svg">
<path d="M18.3643 15.5355L16.9503 14.1195L18.3643 12.7055C18.8319 12.2419 19.2034 11.6906 19.4573 11.0831C19.7113 10.4756 19.8428 9.82392 19.8442 9.16546C19.8457 8.50701 19.717 7.85476 19.4657 7.24616C19.2144 6.63755 18.8454 6.08458 18.3798 5.61898C17.9142 5.15339 17.3612 4.78434 16.7526 4.53303C16.144 4.28171 15.4917 4.15309 14.8333 4.15453C14.1748 4.15597 13.5232 4.28745 12.9157 4.54143C12.3082 4.7954 11.7568 5.16687 11.2933 5.6345L9.87926 7.0495L8.46426 5.6355L9.88026 4.2215C11.1931 2.90868 12.9736 2.17114 14.8303 2.17114C16.6869 2.17114 18.4674 2.90868 19.7803 4.2215C21.0931 5.53432 21.8306 7.31489 21.8306 9.1715C21.8306 11.0281 21.0931 12.8087 19.7803 14.1215L18.3653 15.5355H18.3643ZM15.5363 18.3635L14.1213 19.7775C12.8084 21.0903 11.0279 21.8279 9.17126 21.8279C7.31465 21.8279 5.53408 21.0903 4.22126 19.7775C2.90843 18.4647 2.1709 16.6841 2.1709 14.8275C2.1709 12.9709 2.90843 11.1903 4.22126 9.8775L5.63626 8.4635L7.05026 9.8795L5.63626 11.2935C5.16863 11.7571 4.79716 12.3084 4.54318 12.9159C4.28921 13.5234 4.15773 14.1751 4.15628 14.8335C4.15484 15.492 4.28347 16.1442 4.53478 16.7528C4.78609 17.3614 5.15514 17.9144 5.62074 18.38C6.08633 18.8456 6.63931 19.2147 7.24791 19.466C7.85652 19.7173 8.50877 19.8459 9.16722 19.8445C9.82567 19.843 10.4774 19.7115 11.0849 19.4576C11.6924 19.2036 12.2437 18.8321 12.7073 18.3645L14.1213 16.9505L15.5363 18.3645V18.3635ZM14.8283 7.7565L16.2433 9.1715L9.17226 16.2415L7.75726 14.8275L14.8283 7.7575V7.7565Z" fill="#555BEA"/>
</svg>
