<svg width="19" height="19" viewBox="0 0 19 19" fill="none" xmlns="http://www.w3.org/2000/svg">
<path d="M1.41999 18.5789C1.13948 18.5784 0.872062 18.4601 0.682993 18.2529C0.490439 18.0474 0.394758 17.7694 0.419993 17.4889L0.664993 14.7949L11.983 3.48091L15.52 7.01691L4.20499 18.3299L1.51099 18.5749C1.47999 18.5779 1.44899 18.5789 1.41999 18.5789ZM16.226 6.30991L12.69 2.77391L14.811 0.652906C14.9986 0.465129 15.2531 0.359619 15.5185 0.359619C15.7839 0.359619 16.0384 0.465129 16.226 0.652906L18.347 2.77391C18.5348 2.96147 18.6403 3.216 18.6403 3.48141C18.6403 3.74681 18.5348 4.00134 18.347 4.18891L16.227 6.30891L16.226 6.30991Z" fill="#828282"/>
</svg>
