<svg width="4" height="12" viewBox="0 0 4 12" fill="none" xmlns="http://www.w3.org/2000/svg">
<path d="M1.99996 11.3334C1.26358 11.3334 0.666626 10.7365 0.666626 10.0001C0.666626 9.2637 1.26358 8.66675 1.99996 8.66675C2.73634 8.66675 3.33329 9.2637 3.33329 10.0001C3.33329 10.7365 2.73634 11.3334 1.99996 11.3334ZM1.99996 7.33341C1.26358 7.33341 0.666626 6.73646 0.666626 6.00008C0.666626 5.2637 1.26358 4.66675 1.99996 4.66675C2.73634 4.66675 3.33329 5.2637 3.33329 6.00008C3.33329 6.3537 3.19282 6.69284 2.94277 6.94289C2.69272 7.19294 2.35358 7.33341 1.99996 7.33341ZM1.99996 3.33341C1.26358 3.33341 0.666626 2.73646 0.666626 2.00008C0.666626 1.2637 1.26358 0.666748 1.99996 0.666748C2.73634 0.666748 3.33329 1.2637 3.33329 2.00008C3.33329 2.3537 3.19282 2.69284 2.94277 2.94289C2.69272 3.19294 2.35358 3.33341 1.99996 3.33341Z" fill="#616161"/>
</svg>
