<svg width="77" height="80" viewBox="0 0 77 80" fill="none" xmlns="http://www.w3.org/2000/svg">
<path d="M73.889 18.3325H64.7134L22.1023 0.643576L22.0979 0.641354H22.0957C22.0601 0.625799 22.0246 0.630243 21.9912 0.619132C21.8868 0.588021 21.7823 0.554688 21.6668 0.554688H21.6623C21.5157 0.554688 21.3734 0.585799 21.2401 0.639132C21.1401 0.683576 21.0534 0.750243 20.969 0.821354C20.9423 0.841354 20.9112 0.852465 20.8868 0.87691C20.7823 0.979132 20.6979 1.10358 20.6423 1.24135V1.24358C20.6334 1.26358 20.6357 1.28802 20.629 1.30802L8.31566 18.6636C8.309 18.6725 8.309 18.6858 8.30233 18.6947C7.669 19.0858 7.22233 19.7547 7.22233 20.5547V24.9991C7.22233 26.2258 8.21789 27.2214 9.44455 27.2214H12.7668L4.51344 75.5547H0.555664V79.9991H42.6846V75.5547H38.8179L30.5668 27.2214H73.889C75.1179 27.2214 76.1112 26.2258 76.1112 24.9991V20.5547C76.1112 19.328 75.1179 18.3325 73.889 18.3325ZM25.5134 27.2214L21.6668 30.308L17.8223 27.2214H25.5134ZM21.6668 47.3325L29.8157 52.6747L21.6668 57.1191L13.5179 52.6747L21.6668 47.3325ZM13.5801 48.9102L14.6334 42.7236L18.7801 45.4413L13.5801 48.9102ZM24.5534 45.4413L28.709 42.7191L29.769 48.9169L24.5534 45.4413ZM21.6668 43.5169L15.3823 39.328L21.6668 34.168L27.9512 39.328L21.6668 43.5169ZM15.9712 34.8791L16.7757 30.1525L19.289 32.2147L15.9712 34.8791ZM24.0446 32.2169L26.5601 30.1525L27.369 34.8858L24.0446 32.2169ZM11.2734 18.3325L20.5557 5.24802V13.888H16.1112C14.8846 13.888 13.889 14.8836 13.889 16.1102V18.3325H11.2734ZM12.4512 55.528L18.5179 58.8369L11.2068 62.8236L12.4512 55.528ZM34.3179 75.5547H9.03789L10.5623 66.6125L21.6668 60.5547L32.7912 66.6236L34.3179 75.5547ZM30.8957 55.5214L32.1446 62.8347L24.8157 58.8369L30.8957 55.5214ZM29.4446 18.3325V16.1102C29.4446 14.8836 28.449 13.888 27.2223 13.888H22.7779V3.33024L58.9179 18.3325H29.4446ZM33.889 24.9991H31.3112V20.5547H33.889V24.9991ZM40.5557 24.9991H36.1112V20.5547H40.5557V24.9991ZM47.2223 24.9991H42.7779V20.5547H47.2223V24.9991ZM53.889 24.9991H49.4446V20.5547H53.889V24.9991ZM60.5557 24.9991H56.1112V20.5547H60.5557V24.9991ZM67.2223 24.9991H62.7779V20.5547H67.2223V24.9991ZM73.889 23.888C73.889 24.5014 73.3912 24.9991 72.7779 24.9991H69.4446V20.5547H72.7779C73.3912 20.5547 73.889 21.0525 73.889 21.6658V23.888Z" fill="#BD2032"/>
</svg>
