<svg width="24" height="24" viewBox="0 0 24 24" fill="none" xmlns="http://www.w3.org/2000/svg">
<path d="M11.8222 2.08139C5.88104 2.08139 0.862893 7.09953 0.862893 13.0407C0.862893 18.9819 5.88104 24 11.8222 24C17.7634 24 22.7815 18.9819 22.7815 13.0407C22.7815 7.09953 17.7634 2.08139 11.8222 2.08139ZM11.8222 21.5646C7.20224 21.5646 3.29829 17.6607 3.29829 13.0407C3.29829 8.42074 7.20224 4.51679 11.8222 4.51679C16.4422 4.51679 20.3461 8.42074 20.3461 13.0407C20.3461 17.6607 16.4422 21.5646 11.8222 21.5646Z" fill="white"/>
<path d="M13.0399 11.823V6.95219H10.6045V14.2584H17.9107V11.823H13.0399Z" fill="white"/>
<path d="M18.2564 1.72455L19.976 0L23.6407 3.6542L21.921 5.37875L18.2564 1.72455Z" fill="white"/>
<path d="M5.36585 1.72461L1.72455 5.37635L0 3.65673L3.6413 0.00498832L5.36585 1.72461Z" fill="white"/>
</svg>
