<svg width="24" height="25" viewBox="0 0 24 25" fill="none" xmlns="http://www.w3.org/2000/svg">
<path d="M18.895 12.26C20.295 12.7033 21.3917 13.45 22.185 14.5C22.9783 15.5267 23.375 16.7983 23.375 18.315C23.375 20.4617 22.535 22.1183 20.855 23.285C19.1983 24.4283 16.7717 25 13.575 25H0.905V0.499998H12.875C15.8617 0.499998 18.1483 1.07167 19.735 2.215C21.345 3.35833 22.15 4.91 22.15 6.87C22.15 8.06 21.8583 9.12167 21.275 10.055C20.715 10.9883 19.9217 11.7233 18.895 12.26ZM6.54 4.77V10.545H12.175C13.575 10.545 14.6367 10.3 15.36 9.81C16.0833 9.32 16.445 8.59667 16.445 7.64C16.445 6.68333 16.0833 5.97167 15.36 5.505C14.6367 5.015 13.575 4.77 12.175 4.77H6.54ZM13.155 20.73C14.6483 20.73 15.7683 20.485 16.515 19.995C17.285 19.505 17.67 18.7467 17.67 17.72C17.67 15.69 16.165 14.675 13.155 14.675H6.54V20.73H13.155Z" fill="#0A4CEF"/>
</svg>
