<svg width="40" height="40" viewBox="0 0 40 40" fill="none" xmlns="http://www.w3.org/2000/svg">
<rect width="40" height="40" rx="4" fill="#0A4CEF"/>
<g clip-path="url(#clip0)">
<path d="M21.5494 8.75C23.198 8.75 24.6276 8.97957 25.8381 9.4387C27.0693 9.87696 28.0189 10.5135 28.6868 11.3483C29.3545 12.183 29.6885 13.1639 29.6885 14.2909C29.6885 15.4387 29.3442 16.4404 28.6555 17.2961C27.9876 18.1518 27.0693 18.7361 25.9007 19.0491C27.2989 19.3204 28.3946 19.957 29.1876 20.9587C30.0015 21.9604 30.4085 23.1708 30.4085 24.59C30.4085 25.8213 30.0642 26.9065 29.3755 27.8457C28.6868 28.7639 27.7059 29.4735 26.4329 29.9743C25.1597 30.4544 23.6676 30.6943 21.9563 30.6943H11.125V8.75H21.5494ZM21.2363 17.4839C22.0293 17.4839 22.6554 17.2961 23.1146 16.9204C23.5737 16.5239 23.8033 15.9813 23.8033 15.2926C23.8033 14.6248 23.5737 14.1135 23.1146 13.7587C22.6554 13.383 22.0293 13.2057 21.2363 13.2265H16.8537V17.4839H21.2363ZM21.2363 26.2491C22.2381 26.2491 23.031 26.0405 23.6155 25.623C24.1998 25.2056 24.492 24.6213 24.492 23.87C24.492 23.1813 24.1998 22.6387 23.6155 22.2422C23.031 21.8248 22.2381 21.6266 21.2363 21.6474H16.8537V26.2491H21.2363Z" fill="white"/>
</g>
<defs>
<clipPath id="clip0">
<rect width="20.5435" height="22.5" fill="white" transform="translate(10 8.75)"/>
</clipPath>
</defs>
</svg>
