<svg width="78" height="32" viewBox="0 0 78 32" fill="none" xmlns="http://www.w3.org/2000/svg">
<path d="M10.573 2.52201C13.1122 2.52201 15.1152 3.03515 16.5819 4.06141C18.0486 5.08768 18.7818 6.48516 18.7818 8.25384C18.7818 9.47662 18.4206 10.5466 17.6983 11.4637C16.9978 12.3589 16.0346 12.9703 14.8088 13.2979C16.2973 13.5817 17.4684 14.2477 18.3221 15.2958C19.1759 16.3221 19.6027 17.5885 19.6027 19.0952C19.6027 21.0604 18.8256 22.6107 17.2714 23.7462C15.7172 24.8817 13.6048 25.4493 10.9342 25.4493H0V2.52201H10.573ZM10.3103 11.7584C11.2954 11.7584 12.0615 11.5401 12.6088 11.1034C13.1779 10.6448 13.4625 10.0116 13.4625 9.20368C13.4625 8.4176 13.1779 7.8062 12.6088 7.3695C12.0615 6.93279 11.2954 6.72534 10.3103 6.74719H5.18799V11.7584H10.3103ZM10.3103 21.2242C11.5362 21.2242 12.4993 20.984 13.1998 20.5036C13.9003 20.0014 14.2505 19.3136 14.2505 18.4401C14.2505 17.6104 13.9003 16.9553 13.1998 16.4749C12.4993 15.9945 11.5362 15.7653 10.3103 15.7871H5.18799V21.2242H10.3103ZM30.2058 7.66428C33.0514 7.66428 35.2076 8.48311 36.6743 10.1208C38.1628 11.7584 38.9071 14.0403 38.9071 16.9662C38.9071 17.4903 38.8961 17.8942 38.8743 18.1781H26.1999C26.4843 19.2917 27.0316 20.1652 27.8416 20.7984C28.6514 21.4098 29.6256 21.7155 30.764 21.7155C31.5957 21.7155 32.3947 21.5625 33.161 21.2569C33.9271 20.9294 34.6166 20.46 35.2296 19.8485L37.8892 22.5343C36.9916 23.5388 35.8972 24.3138 34.6057 24.8598C33.336 25.3838 31.9132 25.6459 30.3371 25.6459C28.4764 25.6459 26.8455 25.2747 25.4446 24.5322C24.0656 23.7898 22.9929 22.7417 22.2268 21.3879C21.4825 20.0342 21.1104 18.4729 21.1104 16.7042C21.1104 14.9137 21.4933 13.3415 22.2596 11.9877C23.0257 10.6121 24.0984 9.55306 25.4775 8.81065C26.8566 8.04641 28.4327 7.66428 30.2058 7.66428ZM34.146 15.1975C34.1021 14.0403 33.73 13.1122 33.0296 12.4135C32.329 11.7148 31.3987 11.3654 30.2386 11.3654C29.144 11.3654 28.2246 11.7148 27.4804 12.4135C26.7581 13.0904 26.2984 14.0184 26.1013 15.1975H34.146ZM52.7203 7.63153C54.6904 7.63153 56.2554 8.24293 57.4157 9.46571C58.5978 10.6885 59.1889 12.3262 59.1889 14.3787V25.4493H54.1322V15.8526C54.1322 14.739 53.8147 13.8656 53.18 13.2323C52.567 12.5773 51.7242 12.2497 50.6517 12.2497C49.4039 12.2716 48.4189 12.7083 47.6965 13.5599C46.9741 14.3896 46.6129 15.4596 46.6129 16.7697V25.4493H41.5563V7.82804H46.6129V10.9069C47.8387 8.76698 49.8745 7.67519 52.7203 7.63153ZM59.4818 27.6438C59.9852 27.7967 60.456 27.8839 60.8937 27.9058C61.5724 27.9277 62.0867 27.7202 62.437 27.2835C62.7873 26.8469 62.9623 26.2135 62.9623 25.3838V7.82804H67.9861V26.1699C67.9861 27.9822 67.4608 29.4016 66.41 30.4278C65.3593 31.4759 63.9146 32 62.0758 32C60.7186 32 59.5037 31.7707 58.431 31.3122L59.4818 27.6438ZM65.3921 0C66.2021 0 66.8588 0.262027 67.3623 0.78608C67.8876 1.31013 68.1503 1.98704 68.1503 2.81679C68.1503 3.64653 67.8876 4.32344 67.3623 4.84749C66.8588 5.37155 66.2021 5.63357 65.3921 5.63357C64.6041 5.63357 63.9474 5.37155 63.422 4.84749C62.9186 4.3016 62.6668 3.62471 62.6668 2.81679C62.6668 1.98704 62.9186 1.31013 63.422 0.78608C63.9474 0.262027 64.6041 0 65.3921 0ZM72.0201 7.82804H77.0767V25.4493H72.0201V7.82804ZM74.5155 0C75.3254 0 75.9821 0.262027 76.4857 0.78608C77.011 1.31013 77.2737 1.98704 77.2737 2.81679C77.2737 3.64653 77.011 4.32344 76.4857 4.84749C75.9821 5.37155 75.3254 5.63357 74.5155 5.63357C73.7275 5.63357 73.0708 5.37155 72.5454 4.84749C72.0418 4.3016 71.7902 3.62471 71.7902 2.81679C71.7902 1.98704 72.0418 1.31013 72.5454 0.78608C73.0708 0.262027 73.7275 0 74.5155 0Z" fill="#555BEA"/>
</svg>
