<?xml version="1.0" encoding="utf-8"?>
<!-- Generator: Adobe Illustrator 21.1.0, SVG Export Plug-In . SVG Version: 6.00 Build 0)  -->
<svg version="1.1" id="Layer_1" xmlns="http://www.w3.org/2000/svg" xmlns:xlink="http://www.w3.org/1999/xlink" x="0px" y="0px"
	 viewBox="0 0 107.4 44.8" style="enable-background:new 0 0 107.4 44.8;" xml:space="preserve">
<style type="text/css">
	.st0{fill:#0A4CEF;}
</style>
<g>
	<circle class="st0" cx="103.2" cy="4.2" r="4.2"/>
	<path class="st0" d="M25.9,11.9c0,3.2-2.1,5.8-5.3,6.6c3.9,0.8,6.3,3.8,6.3,7.7c0,5.2-4.6,8.5-11.8,8.5H0V4.2h14.6
		C21.5,4.2,25.9,7.2,25.9,11.9z M17.7,13.3c0-1.8-1.4-2.9-3.6-2.9H8v5.9h6.1C16.3,16.4,17.7,15.2,17.7,13.3z M18.7,25.3
		c0-1.9-1.7-3.1-4.5-3.1H8v6.4h6.1C16.9,28.6,18.7,27.4,18.7,25.3z"/>
	<path class="st0" d="M53.6,25H37.2c0.7,2.7,2.7,4.2,5.4,4.2c2,0,4-0.8,5.5-2.4l4.1,4.1c-2.4,2.7-5.9,4.2-10.3,4.2
		c-7.7,0-12.5-4.8-12.5-12c0-7.3,4.9-12.2,12.3-12.2C49.9,10.9,54.1,16.4,53.6,25z M46.1,20.9c0-2.7-1.7-4.5-4.4-4.5
		c-2.5,0-4.2,1.8-4.7,4.5H46.1z"/>
	<path class="st0" d="M81.2,19.9v14.9h-7.7V22.1c0-2.7-1.6-4.3-4-4.3c-2.6,0-4.3,1.8-4.6,4.5v12.5H57V11.2h7.8V15
		c1.7-2.7,4.4-4.2,7.8-4.2C77.8,10.8,81.2,14.3,81.2,19.9z"/>
	<path class="st0" d="M85.7,44.8c-2.2,0-4.3-0.5-6-1.5l2-5.6c0.8,0.5,1.7,0.8,2.6,0.8c1.4,0,2.3-0.8,2.3-2.5V11.2h7.8v25.6
		C94.3,42,90.6,44.8,85.7,44.8z"/>
	<rect x="99.3" y="11.2" class="st0" width="7.7" height="23.6"/>
	<circle class="st0" cx="90.4" cy="4.2" r="4.2"/>
</g>
</svg>
