<svg width="97" height="40" viewBox="0 0 97 40" fill="none" xmlns="http://www.w3.org/2000/svg">
<g clip-path="url(#clip0)">
<path d="M13.2162 3.15251C16.3903 3.15251 18.894 3.79393 20.7273 5.07677C22.5607 6.3596 23.4773 8.10645 23.4773 10.3173C23.4773 11.8458 23.0258 13.1832 22.1228 14.3296C21.2472 15.4486 20.0432 16.2129 18.5109 16.6223C20.3716 16.9771 21.8355 17.8096 22.9027 19.1198C23.9698 20.4026 24.5034 21.9857 24.5034 23.869C24.5034 26.3255 23.5319 28.2633 21.5893 29.6827C19.6465 31.1021 17.006 31.8117 13.6677 31.8117H0V3.15251H13.2162ZM12.8879 14.6981C14.1192 14.6981 15.0769 14.4251 15.761 13.8792C16.4724 13.306 16.8281 12.5145 16.8281 11.5046C16.8281 10.522 16.4724 9.75775 15.761 9.21187C15.0769 8.66599 14.1192 8.40668 12.8879 8.43398H6.48498V14.6981H12.8879ZM12.8879 26.5302C14.4202 26.5302 15.6242 26.23 16.4998 25.6295C17.3754 25.0018 17.8132 24.142 17.8132 23.0502C17.8132 22.013 17.3754 21.1941 16.4998 20.5937C15.6242 19.9932 14.4202 19.7066 12.8879 19.7339H6.48498V26.5302H12.8879ZM37.7572 9.58035C41.3142 9.58035 44.0095 10.6039 45.8429 12.651C47.7035 14.6981 48.6339 17.5503 48.6339 21.2078C48.6339 21.8628 48.6201 22.3677 48.5929 22.7226H32.7498C33.1054 24.1146 33.7895 25.2065 34.802 25.998C35.8143 26.7623 37.032 27.1443 38.455 27.1443C39.4947 27.1443 40.4934 26.9532 41.4512 26.5711C42.4088 26.1617 43.2707 25.575 44.037 24.8106L47.3616 28.1679C46.2395 29.4235 44.8715 30.3923 43.2571 31.0747C41.67 31.7298 39.8915 32.0573 37.9214 32.0573C35.5955 32.0573 33.5569 31.5934 31.8058 30.6653C30.0819 29.7372 28.7411 28.4271 27.7835 26.7349C26.8531 25.0427 26.388 23.0911 26.388 20.8802C26.388 18.6421 26.8667 16.6769 27.8245 14.9846C28.7821 13.2651 30.123 11.9413 31.8468 11.0133C33.5707 10.058 35.5408 9.58035 37.7572 9.58035ZM42.6825 18.9969C42.6276 17.5503 42.1626 16.3903 41.287 15.5169C40.4113 14.6435 39.2484 14.2068 37.7983 14.2068C36.43 14.2068 35.2807 14.6435 34.3505 15.5169C33.4476 16.363 32.873 17.523 32.6267 18.9969H42.6825ZM65.9004 9.53941C68.363 9.53941 70.3193 10.3037 71.7697 11.8321C73.2473 13.3606 73.9861 15.4077 73.9861 17.9734V31.8117H67.6653V19.8158C67.6653 18.4237 67.2684 17.332 66.475 16.5404C65.7087 15.7216 64.6552 15.3122 63.3146 15.3122C61.7549 15.3395 60.5236 15.8854 59.6206 16.9498C58.7176 17.987 58.2661 19.3245 58.2661 20.9621V31.8117H51.9453V9.78506H58.2661V13.6336C59.7984 10.9587 62.3431 9.59399 65.9004 9.53941ZM74.3522 34.5548C74.9815 34.7459 75.5699 34.8549 76.1171 34.8823C76.9654 34.9097 77.6083 34.6502 78.0462 34.1044C78.4841 33.5586 78.7029 32.7669 78.7029 31.7298V9.78506H84.9827V32.7124C84.9827 34.9777 84.326 36.752 83.0126 38.0348C81.6991 39.3449 79.8932 40 77.5947 40C75.8983 40 74.3797 39.7134 73.0388 39.1402L74.3522 34.5548ZM81.7402 0C82.7527 0 83.5736 0.327534 84.2028 0.9826C84.8595 1.63766 85.1879 2.4838 85.1879 3.52098C85.1879 4.55816 84.8595 5.4043 84.2028 6.05937C83.5736 6.71443 82.7527 7.04197 81.7402 7.04197C80.7551 7.04197 79.9342 6.71443 79.2775 6.05937C78.6483 5.377 78.3335 4.53088 78.3335 3.52098C78.3335 2.4838 78.6483 1.63766 79.2775 0.9826C79.9342 0.327534 80.7551 0 81.7402 0ZM90.0251 9.78506H96.3459V31.8117H90.0251V9.78506ZM93.1444 0C94.1567 0 94.9776 0.327534 95.6071 0.9826C96.2638 1.63766 96.5921 2.4838 96.5921 3.52098C96.5921 4.55816 96.2638 5.4043 95.6071 6.05937C94.9776 6.71443 94.1567 7.04197 93.1444 7.04197C92.1594 7.04197 91.3385 6.71443 90.6818 6.05937C90.0523 5.377 89.7378 4.53088 89.7378 3.52098C89.7378 2.4838 90.0523 1.63766 90.6818 0.9826C91.3385 0.327534 92.1594 0 93.1444 0Z" fill="#555BEA"/>
</g>
<defs>
<clipPath id="clip0">
<rect width="96.5854" height="40" fill="white"/>
</clipPath>
</defs>
</svg>
