<svg width="250" height="105" viewBox="0 0 250 105" fill="none" xmlns="http://www.w3.org/2000/svg">
<g clip-path="url(#clip0)">
<path d="M240.223 19.5416C245.623 19.5416 250 15.167 250 9.77078C250 4.37453 245.623 0 240.223 0C234.824 0 230.447 4.37453 230.447 9.77078C230.447 15.167 234.824 19.5416 240.223 19.5416Z" fill="#0A4CEF"/>
<path d="M60.2886 27.6839C60.2886 35.1283 55.4004 41.1768 47.9516 43.0379C57.0298 44.899 62.6164 51.8782 62.6164 60.951C62.6164 73.0482 51.9087 80.7252 35.149 80.7252H0V9.77077H33.9851C50.0466 9.77077 60.2886 16.7499 60.2886 27.6839ZM41.2011 30.9408C41.2011 26.7533 37.9423 24.1943 32.8212 24.1943H18.622V37.9199H32.8212C37.9423 38.1526 41.2011 35.3609 41.2011 30.9408ZM43.5289 58.8573C43.5289 54.4372 39.5717 51.6455 33.054 51.6455H18.622V66.5343H32.8212C39.3389 66.5343 43.5289 63.7427 43.5289 58.8573Z" fill="#0A4CEF"/>
<path d="M124.767 58.1594H86.5922C88.2216 64.4406 92.8771 67.9302 99.162 67.9302C103.818 67.9302 108.473 66.0691 111.965 62.3469L121.508 71.885C115.922 78.1662 107.775 81.6558 97.5326 81.6558C79.609 81.6558 68.4358 70.4892 68.4358 53.7393C68.4358 36.7567 79.8417 25.3575 97.0671 25.3575C116.155 25.3575 125.931 38.1526 124.767 58.1594ZM107.309 48.6212C107.309 42.34 103.352 38.1526 97.0671 38.1526C91.2477 38.1526 87.2905 42.34 86.1267 48.6212H107.309Z" fill="#0A4CEF"/>
<path d="M189.013 46.2949V80.9579H171.089V51.4129C171.089 45.1317 167.365 41.4095 161.778 41.4095C155.726 41.4095 151.769 45.597 151.071 51.8782V80.9579H132.682V26.0554H150.838V34.8956C154.795 28.6144 161.08 25.1249 168.994 25.1249C181.099 25.1249 189.013 33.2672 189.013 46.2949Z" fill="#0A4CEF"/>
<path d="M199.488 104.222C194.367 104.222 189.479 103.058 185.521 100.732L190.177 87.7044C192.039 88.8675 194.134 89.5655 196.229 89.5655C199.488 89.5655 201.583 87.7044 201.583 83.7495V26.0554H219.739V85.6106C219.507 97.7078 210.894 104.222 199.488 104.222Z" fill="#0A4CEF"/>
<path d="M249.069 26.0554H231.145V80.9579H249.069V26.0554Z" fill="#0A4CEF"/>
<path d="M210.428 19.5416C215.828 19.5416 220.205 15.167 220.205 9.77078C220.205 4.37453 215.828 0 210.428 0C205.029 0 200.652 4.37453 200.652 9.77078C200.652 15.167 205.029 19.5416 210.428 19.5416Z" fill="#0A4CEF"/>
</g>
<defs>
<clipPath id="clip0">
<rect width="250" height="104.222" fill="white"/>
</clipPath>
</defs>
</svg>
