<svg width="16" height="16" viewBox="0 0 16 16" fill="none" xmlns="http://www.w3.org/2000/svg">
<path d="M0 1.10367V6.07021C0 6.68033 0.493448 7.17388 1.10345 7.17388H6.06897C6.67897 7.17388 7.17241 6.68033 7.17241 6.07021C7.17241 5.46008 6.67897 4.96653 6.06897 4.96653H3.8831C4.91655 3.59729 6.5469 2.76677 8.2831 2.76677C11.3207 2.76677 13.7931 5.239 13.7931 8.27756C13.7931 11.3161 11.321 13.789 8.28276 13.789C7.08 13.789 5.9369 13.4086 4.97655 12.6874C4.48621 12.3242 3.79655 12.4201 3.43138 12.9073C3.06621 13.3957 3.16414 14.0875 3.65121 14.4528C4.99707 15.4626 6.59466 16 8.27879 16C12.5345 15.9998 16 12.5336 16 8.27756C16 4.02151 12.5345 0.555286 8.27931 0.555286C5.89483 0.555286 3.65862 1.67517 2.2069 3.52555V1.10367C2.2069 0.493549 1.71345 0 1.10345 0C0.493448 0 0 0.493549 0 1.10367Z" fill="#37352F"/>
</svg>
