<svg width="20" height="20" viewBox="0 0 20 20" fill="none" xmlns="http://www.w3.org/2000/svg">
<path d="M10 0.555664C4.47722 0.555664 0 4.03789 0 8.33344C0 10.7601 1.43 12.9268 3.66889 14.3529C3.37778 15.6357 2.69944 17.5384 1.11111 19.4446C4.31 18.9112 6.355 17.3551 7.62 15.8801C8.38444 16.0257 9.17833 16.1112 10 16.1112C15.5228 16.1112 20 12.629 20 8.33344C20 4.03789 15.5228 0.555664 10 0.555664Z" fill="white"/>
<path d="M9.99978 9.44439C10.6134 9.44439 11.1109 8.94693 11.1109 8.33328C11.1109 7.71963 10.6134 7.22217 9.99978 7.22217C9.38613 7.22217 8.88867 7.71963 8.88867 8.33328C8.88867 8.94693 9.38613 9.44439 9.99978 9.44439Z" fill="#2A6797"/>
<path d="M14.4451 9.44439C15.0587 9.44439 15.5562 8.94693 15.5562 8.33328C15.5562 7.71963 15.0587 7.22217 14.4451 7.22217C13.8314 7.22217 13.334 7.71963 13.334 8.33328C13.334 8.94693 13.8314 9.44439 14.4451 9.44439Z" fill="#2A6797"/>
<path d="M5.55642 9.44439C6.17007 9.44439 6.66754 8.94693 6.66754 8.33328C6.66754 7.71963 6.17007 7.22217 5.55642 7.22217C4.94277 7.22217 4.44531 7.71963 4.44531 8.33328C4.44531 8.94693 4.94277 9.44439 5.55642 9.44439Z" fill="#2A6797"/>
</svg>
