<svg width="48" height="48" viewBox="0 0 48 48" fill="none" xmlns="http://www.w3.org/2000/svg">
<path d="M2.93973 48C0.412013 48 -0.702271 46.1251 0.461414 43.834L21.8812 1.71833C23.0462 -0.572776 24.9523 -0.572776 26.1174 1.71833L47.5372 43.8354C48.7036 46.1251 47.5879 48 45.0602 48H2.93973Z" fill="#C72929"/>
<path d="M20.6797 40.5271C20.6797 38.6592 22.1686 37.1388 23.9992 37.1388C25.8284 37.1388 27.3174 38.6592 27.3174 40.5271C27.3174 42.3964 25.8271 43.9168 23.9992 43.9168C22.1686 43.9168 20.6797 42.3964 20.6797 40.5271ZM20.9349 14.8934C20.9349 13.0689 22.2537 11.9395 23.9978 11.9395C25.7008 11.9395 27.0621 13.1123 27.0621 14.8934V31.6219C27.0621 33.403 25.7008 34.5758 23.9978 34.5758C22.2537 34.5758 20.9349 33.445 20.9349 31.6219V14.8934Z" fill="white"/>
</svg>
