<svg width="24" height="24" viewBox="0 0 24 24" fill="none" xmlns="http://www.w3.org/2000/svg">
<path d="M7.03574 24C4.1903 24 1.62503 22.2859 0.535946 19.6572C-0.553136 17.0284 0.0484193 14.0025 2.06014 11.9901L5.04606 9.00422L7.03574 10.9939L4.05122 13.9784C2.98471 15.0449 2.56819 16.5994 2.95856 18.0563C3.34893 19.5132 4.48689 20.6511 5.94377 21.0415C7.40066 21.4319 8.95514 21.0154 10.0217 19.9488L13.0062 16.9643L14.9958 18.9554L12.0113 21.9399C10.6944 23.2634 8.90279 24.0051 7.03574 24ZM8.03057 17.9592L6.0409 15.9695L15.9907 6.0197L17.9804 8.00938L8.03198 17.9578L8.03057 17.9592ZM18.9766 14.9746L16.9855 12.985L19.97 10.0005C21.0511 8.93714 21.4787 7.3757 21.0904 5.90992C20.7021 4.44414 19.5575 3.29924 18.0918 2.91058C16.6261 2.52193 15.0646 2.94924 14.001 4.03003L11.0151 7.01454L9.02541 5.02487L12.0113 2.03895C14.7624 -0.688109 19.2003 -0.678391 21.9394 2.06069C24.6785 4.79977 24.6882 9.23768 21.9611 11.9887L18.9766 14.9732V14.9746Z" fill="#555BEA"/>
</svg>
