<svg width="16" height="16" viewBox="0 0 16 16" fill="none" xmlns="http://www.w3.org/2000/svg">
<path d="M8.00127 1.38759C3.98029 1.38759 0.584006 4.73302 0.584006 8.6938C0.584006 12.6546 3.98029 16 8.00127 16C12.0222 16 15.4185 12.6546 15.4185 8.6938C15.4185 4.73302 12.0222 1.38759 8.00127 1.38759ZM8.00127 14.3764C4.87448 14.3764 2.23229 11.7738 2.23229 8.6938C2.23229 5.61382 4.87448 3.01119 8.00127 3.01119C11.1281 3.01119 13.7702 5.61382 13.7702 8.6938C13.7702 11.7738 11.1281 14.3764 8.00127 14.3764Z" fill="#616161"/>
<path d="M8.82541 7.88199V4.63479H7.17713V9.5056H12.122V7.88199H8.82541Z" fill="#616161"/>
<path d="M12.3559 1.1497L13.5197 0L16 2.43613L14.8362 3.58583L12.3559 1.1497Z" fill="#616161"/>
<path d="M3.63161 1.14974L1.16718 3.58423L0 2.43782L2.46443 0.00332555L3.63161 1.14974Z" fill="#616161"/>
</svg>
