<svg width="16" height="16" viewBox="0 0 16 16" fill="none" xmlns="http://www.w3.org/2000/svg">
<path d="M9.50131 16H6.49983C6.11237 16 5.77712 15.7384 5.69421 15.3712L5.3586 13.864C4.91089 13.6737 4.48638 13.4357 4.09287 13.1544L2.57811 13.6224C2.20869 13.7367 1.80711 13.5858 1.61334 13.26L0.109303 10.7392C-0.0823404 10.4132 -0.0163154 10.002 0.268447 9.748L1.44348 8.708C1.39004 8.23689 1.39004 7.76151 1.44348 7.2904L0.268447 6.2528C-0.0167349 5.99869 -0.082786 5.58698 0.109303 5.2608L1.61004 2.7384C1.80381 2.41256 2.20539 2.26171 2.57481 2.376L4.08957 2.844C4.29082 2.69932 4.50032 2.56578 4.71708 2.444C4.92515 2.33016 5.13929 2.22708 5.3586 2.1352L5.69503 0.6296C5.77755 0.262375 6.11243 0.000395514 6.49983 0H9.50131C9.88871 0.000395514 10.2236 0.262375 10.3061 0.6296L10.6458 2.136C10.8774 2.23481 11.1028 2.34646 11.3212 2.4704C11.5248 2.58465 11.7216 2.70991 11.9107 2.8456L13.4263 2.3776C13.7955 2.26374 14.1966 2.41453 14.3903 2.74L15.891 5.2624C16.0826 5.58839 16.0166 5.99961 15.7319 6.2536L14.5568 7.2936C14.6103 7.76471 14.6103 8.24009 14.5568 8.7112L15.7319 9.7512C16.0166 10.0052 16.0826 10.4164 15.891 10.7424L14.3903 13.2648C14.1966 13.5903 13.7955 13.7411 13.4263 13.6272L11.9107 13.1592C11.719 13.2962 11.5197 13.4231 11.3137 13.5392C11.0976 13.6607 10.8746 13.7705 10.6458 13.868L10.3061 15.3712C10.2233 15.7381 9.88846 15.9997 9.50131 16ZM4.38889 11.3832L5.06505 11.8632C5.21747 11.9721 5.37634 12.0723 5.54083 12.1632C5.69561 12.2502 5.85497 12.3292 6.01827 12.4L6.7876 12.7272L7.16444 14.4H8.83834L9.21518 12.7264L9.98451 12.3992C10.3204 12.2555 10.6392 12.0769 10.9353 11.8664L11.6122 11.3864L13.2952 11.9064L14.1322 10.5L12.8269 9.3456L12.9192 8.536C12.9598 8.18189 12.9598 7.82451 12.9192 7.4704L12.8269 6.6608L14.133 5.504L13.2952 4.0968L11.6122 4.6168L10.9353 4.1368C10.6391 3.92537 10.3203 3.7454 9.98451 3.6L9.21518 3.2728L8.83834 1.6H7.16444L6.78595 3.2736L6.01827 3.6C5.85484 3.66964 5.69546 3.74789 5.54083 3.8344C5.37735 3.92506 5.21932 4.02469 5.06752 4.1328L4.39054 4.6128L2.70839 4.0928L1.86979 5.504L3.1751 6.6568L3.08275 7.4672C3.04218 7.82131 3.04218 8.17869 3.08275 8.5328L3.1751 9.3424L1.86979 10.4968L2.70674 11.9032L4.38889 11.3832ZM7.99727 11.2C6.17565 11.2 4.69893 9.76731 4.69893 8C4.69893 6.23269 6.17565 4.8 7.99727 4.8C9.81889 4.8 11.2956 6.23269 11.2956 8C11.2933 9.7664 9.81795 11.1978 7.99727 11.2ZM7.99727 6.4C7.09632 6.40089 6.36285 7.10308 6.34994 7.97707C6.33703 8.85107 7.04946 9.57336 7.95001 9.5993C8.85056 9.62523 9.60589 8.9452 9.64643 8.072V8.392V8C9.64643 7.11634 8.90808 6.4 7.99727 6.4Z" fill="#616161"/>
</svg>
