<svg width="24" height="24" viewBox="0 0 24 24" fill="none" xmlns="http://www.w3.org/2000/svg">
<path d="M2.64722 7.33337V7.42471C2.64722 7.39671 2.6545 7.36871 2.65714 7.34071L2.64722 7.33337ZM11.2506 14.758C11.154 14.7134 11.0607 14.6614 10.978 14.594L3.02113 8.16337C2.77164 7.96004 2.64722 7.69271 2.64722 7.42471V15.5834C2.64722 16.9447 3.37056 17.2394 3.37056 17.2394L11.0302 23.3054C11.1659 23.4127 11.2797 23.478 11.3797 23.5174C11.3042 23.4014 11.2506 23.2674 11.2506 23.1147V14.758ZM5.44465 15C4.78682 15 4.09921 14.3287 3.90993 13.5C3.72 12.672 4.09987 12.0007 4.75704 12.0007C5.41487 12.0007 6.10248 12.672 6.29175 13.5C6.48169 14.3287 6.10248 15 5.44465 15ZM9.13948 20C8.48165 20 7.79404 19.328 7.60476 18.5C7.41483 17.6714 7.7947 17 8.45253 17C9.11036 17 9.79797 17.6714 9.98724 18.5C10.1765 19.328 9.79731 20 9.13948 20Z" fill="#A0041E"/>
<path d="M20.8037 8.10737L12.7933 14.594C12.7258 14.6494 12.6517 14.6954 12.5743 14.7354V23.1147C12.5743 23.27 12.5193 23.406 12.4419 23.524C12.5445 23.4854 12.6636 23.4174 12.8046 23.3054C14.0097 22.3507 20.4735 17.2394 20.4735 17.2394C20.4735 17.2394 21.1777 16.9447 21.1777 15.5834V7.36871C21.1777 7.63671 21.0532 7.90404 20.8037 8.10737ZM15.8687 19.2614C15.7085 20.0194 15.1281 20.6334 14.5729 20.6334C14.0183 20.6334 13.698 20.0194 13.8581 19.2614C14.0183 18.5034 14.598 17.8894 15.1533 17.8894C15.7085 17.8894 16.0282 18.5034 15.8687 19.2614ZM18.2101 15.7474C18.0421 16.5287 17.4305 17.1614 16.8455 17.1614C16.2611 17.1614 15.9243 16.5287 16.0924 15.7474C16.2611 14.966 16.8727 14.3334 17.4564 14.3334C18.0421 14.3334 18.3789 14.966 18.2101 15.7474ZM20.2372 12.344C20.0711 13.0874 19.4676 13.6887 18.8905 13.6887C18.3134 13.6887 17.9805 13.0874 18.1473 12.344C18.3134 11.602 18.9163 11 19.4934 11C20.0711 11 20.404 11.602 20.2372 12.344ZM21.1737 7.33671C21.1744 7.34737 21.1777 7.35804 21.1777 7.36871V7.33337L21.1737 7.33671Z" fill="#DD2E44"/>
<path d="M20.8037 6.62999L12.7655 0.33332C12.2671 -0.0733464 11.4498 -0.0733464 10.9508 0.33332L3.02113 6.68599C2.79745 6.86799 2.68031 7.10199 2.65648 7.34132C2.6545 7.36932 2.64722 7.39665 2.64722 7.42465C2.64722 7.69265 2.77164 7.95999 3.02113 8.16332L10.978 14.594C11.0607 14.6613 11.1533 14.7127 11.2506 14.758V23.1147C11.2506 23.2673 11.3042 23.4013 11.379 23.5173C11.4988 23.704 11.6874 23.8333 11.9124 23.8333C12.1348 23.8333 12.3221 23.7067 12.4419 23.524C12.5193 23.4067 12.5742 23.2707 12.5742 23.1147V14.7353C12.6517 14.6953 12.7258 14.6493 12.7933 14.594L20.8037 8.10732C21.0532 7.90399 21.1776 7.63665 21.1776 7.36865C21.1776 7.35799 21.1743 7.34732 21.1737 7.33599C21.1644 7.07932 21.0426 6.82465 20.8037 6.62999ZM12.2433 5.77799C13.3088 5.77799 14.1731 6.47399 14.1731 7.33332C14.1731 8.19265 13.3088 8.88865 12.2433 8.88865C11.1772 8.88865 10.3135 8.19265 10.3135 7.33332C10.3135 6.47399 11.1772 5.77799 12.2433 5.77799Z" fill="#EA596E"/>
<path d="M12.2433 8.88862C13.3091 8.88862 14.1731 8.19227 14.1731 7.33329C14.1731 6.4743 13.3091 5.77795 12.2433 5.77795C11.1775 5.77795 10.3135 6.4743 10.3135 7.33329C10.3135 8.19227 11.1775 8.88862 12.2433 8.88862Z" fill="white"/>
<path d="M19.4933 11C18.9162 11 18.3133 11.602 18.1472 12.344C17.9804 13.0873 18.3133 13.6887 18.8904 13.6887C19.4675 13.6887 20.0711 13.0873 20.2372 12.344C20.404 11.602 20.0711 11 19.4933 11ZM17.457 14.3333C16.8726 14.3333 16.2611 14.966 16.093 15.7473C15.9249 16.5287 16.2617 17.1613 16.8461 17.1613C17.4311 17.1613 18.0427 16.5287 18.2107 15.7473C18.3788 14.966 18.042 14.3333 17.457 14.3333ZM15.1526 17.8893C14.5973 17.8893 14.0176 18.5033 13.8574 19.2613C13.6973 20.0193 14.0176 20.6333 14.5722 20.6333C15.1274 20.6333 15.7078 20.0193 15.868 19.2613C16.0281 18.5033 15.7078 17.8893 15.1526 17.8893Z" fill="white"/>
<path d="M4.75705 12.0006C4.09922 12.0006 3.72001 12.6719 3.90995 13.4999C4.09988 14.3286 4.78683 14.9999 5.44466 14.9999C6.10249 14.9999 6.4817 14.3286 6.29177 13.4999C6.10249 12.6719 5.41488 12.0006 4.75705 12.0006ZM8.45188 16.9999C7.79405 16.9999 7.41484 17.6713 7.60412 18.4999C7.79405 19.3279 8.48166 19.9999 9.13949 19.9999C9.79732 19.9999 10.1765 19.3279 9.98726 18.4999C9.79732 17.6713 9.10971 16.9999 8.45188 16.9999Z" fill="#E1E8ED"/>
</svg>
