<svg width="16" height="16" viewBox="0 0 16 16" fill="none" xmlns="http://www.w3.org/2000/svg">
<g clip-path="url(#clip0)">
<path d="M9.77778 0L8 3.568L5.77778 1.33778V4.45956L1.33333 3.568L4.88889 7.136L0 9.81156H5.33333L2.66667 15.1636L8 11.5956L12.8889 16.0556L11.5556 9.81156H16L12.4444 7.13556L16 3.12178L10.6667 4.45956L9.77778 0Z" fill="#BB1A34"/>
<path d="M10.1833 5.74407L11.01 5.53651L13.3327 4.95385L11.83 6.64985L11.2438 7.31207L11.9504 7.84318L13.2504 8.82185H10.6202L10.8304 9.80762L11.5198 13.0343L8.922 10.6645L8.45267 10.2361L7.92467 10.5894L5.59578 12.1476L6.66511 10.0018L7.25267 8.82185H4.25L5.92067 7.90674L6.874 7.38585L6.10644 6.61474L4.75356 5.25785L6.18511 5.54496L7.15667 5.74007V3.86051L7.80111 4.50718L8.59844 5.30674L9.102 4.29518L9.66778 3.15918" fill="#FCAB40"/>
<path d="M9.56111 6.35617L9.90199 6.2704L10.8611 6.02995L10.2407 6.7304L9.99844 7.00373L10.29 7.22284L10.8269 7.62684H9.74111L9.82777 8.03395L10.1127 9.36595L9.04022 8.38773L8.84599 8.21084L8.62822 8.35662L7.66688 9.00017L8.10822 8.11395L8.35088 7.62684H7.11133L7.80155 7.24906L8.19488 7.03395L7.878 6.71573L7.31933 6.15528L7.91 6.27395L8.31133 6.3544V5.57884L8.57755 5.84551L8.90644 6.17573L9.11444 5.7584L9.34777 5.28906" fill="#F5F8FA"/>
</g>
<defs>
<clipPath id="clip0">
<rect width="16" height="16" fill="white"/>
</clipPath>
</defs>
</svg>
