<svg width="14" height="12" viewBox="0 0 14 12" fill="none" xmlns="http://www.w3.org/2000/svg">
<path d="M6.66331 11.9947C6.23352 11.6135 5.74777 11.2171 5.23403 10.7953H5.22737C3.41828 9.31603 1.36799 7.64221 0.462448 5.63656C0.164943 4.99803 0.00728085 4.30332 7.60013e-06 3.59893C-0.00197926 2.63241 0.385667 1.70588 1.07534 1.02874C1.76502 0.351604 2.6985 -0.0189779 3.66482 0.000749139C4.45151 0.00199171 5.22126 0.229354 5.88237 0.655751C6.17287 0.844301 6.4357 1.07238 6.66331 1.33341C6.89218 1.0734 7.15509 0.84546 7.44491 0.655751C8.10573 0.22927 8.87529 0.00189426 9.66179 0.000749139C10.6281 -0.0189779 11.5616 0.351604 12.2513 1.02874C12.9409 1.70588 13.3286 2.63241 13.3266 3.59893C13.3198 4.30445 13.1621 5.00035 12.8642 5.63989C11.9586 7.64554 9.90899 9.31869 8.09991 10.7953L8.09325 10.8006C7.57884 11.2197 7.09375 11.6162 6.66397 12L6.66331 11.9947ZM3.66482 1.33341C3.04415 1.32564 2.44549 1.56319 1.999 1.99441C1.56881 2.41697 1.32838 2.99593 1.33262 3.59893C1.34022 4.11233 1.4565 4.61831 1.67383 5.08351C2.10129 5.94887 2.67806 6.73204 3.37764 7.397C4.03797 8.06333 4.79758 8.70834 5.45458 9.25073C5.63649 9.40065 5.82173 9.55191 6.00697 9.70317L6.12358 9.79845C6.30149 9.94371 6.4854 10.0943 6.66331 10.2422L6.67197 10.2342L6.67597 10.2309H6.67996L6.68596 10.2262H6.68929H6.69262L6.70462 10.2162L6.73194 10.1943L6.7366 10.1903L6.74393 10.1849H6.74793L6.75393 10.1796L7.19637 9.81644L7.31231 9.72116C7.49955 9.56857 7.68479 9.41731 7.8667 9.26739C8.5237 8.72499 9.28398 8.08065 9.94431 7.41099C10.644 6.74637 11.2208 5.9634 11.6481 5.09817C11.8694 4.62894 11.9873 4.11767 11.994 3.59893C11.9967 2.99779 11.7564 2.42105 11.3276 1.99974C10.882 1.56657 10.2832 1.32707 9.66179 1.33341C8.90345 1.32696 8.1785 1.64483 7.66946 2.20696L6.66331 3.36638L5.65715 2.20696C5.14812 1.64483 4.42316 1.32696 3.66482 1.33341Z" fill="#BDBDBD"/>
</svg>
