<svg width="12" height="12" viewBox="0 0 12 12" fill="none" xmlns="http://www.w3.org/2000/svg">
<path d="M3.36757 9.88563L3.80324 10.1186C4.47841 10.4795 5.2324 10.6678 5.998 10.6667L6 10.6667C8.57742 10.6667 10.6667 8.57742 10.6667 6C10.6667 3.42258 8.57742 1.33333 6 1.33333C3.42259 1.33333 1.33334 3.42258 1.33334 6V6.002C1.33219 6.7676 1.52048 7.52159 1.88145 8.19676L2.11437 8.63243L1.75622 10.2438L3.36757 9.88563ZM6.77189e-06 12L0.705606 8.8254C0.240926 7.95623 -0.00147711 6.98558 6.77189e-06 6C6.77189e-06 2.6862 2.68621 0 6 0C9.3138 0 12 2.6862 12 6C12 9.3138 9.3138 12 6 12C5.01442 12.0015 4.04377 11.7591 3.17461 11.2944L6.77189e-06 12Z" fill="#BDBDBD"/>
</svg>
