<svg width="27" height="24" viewBox="0 0 27 24" fill="none" xmlns="http://www.w3.org/2000/svg">
<path fill-rule="evenodd" clip-rule="evenodd" d="M13.3333 2.66667C12.8806 2.14512 12.3527 1.68972 11.7704 1.30987C10.4836 0.47045 8.93057 0 7.33333 0C3.22667 0 0 3.16512 0 7.19346C0 8.62481 0.34099 9.98402 0.925105 11.2771C2.7368 15.2915 6.88768 18.6791 10.4607 21.595C11.4893 22.4346 12.4701 23.235 13.3333 24C14.1966 23.235 15.1773 22.4346 16.206 21.595C19.7789 18.6791 23.9297 15.2916 25.7415 11.2773C26.3256 9.98417 26.6667 8.62488 26.6667 7.19346C26.6667 3.16512 23.44 0 19.3333 0C17.7361 0 16.1831 0.47045 14.8962 1.30987C14.3139 1.68972 13.7861 2.14512 13.3333 2.66667ZM13.3333 20.4932C13.7637 20.1366 14.2036 19.7769 14.6429 19.4177C15.015 19.1135 15.3866 18.8097 15.7514 18.5085C17.2121 17.3025 18.6418 16.0773 19.9079 14.7934C21.4746 13.2044 22.6391 11.6751 23.3172 10.1656C23.7643 9.16894 24 8.18177 24 7.19346C24 4.68606 22.0159 2.66667 19.3333 2.66667C17.7488 2.66667 16.27 3.35164 15.3471 4.41482L13.3333 6.73445L11.3196 4.41482C10.3966 3.35164 8.91791 2.66667 7.33333 2.66667C4.65078 2.66667 2.66667 4.68606 2.66667 7.19346C2.66667 8.18177 2.90232 9.16894 3.34951 10.1656C4.02759 11.6751 5.19203 13.2044 6.75879 14.7934C8.02485 16.0773 9.4546 17.3025 10.9152 18.5085C11.2801 18.8097 11.6517 19.1135 12.0238 19.4177C12.463 19.7769 12.903 20.1366 13.3333 20.4932Z" fill="white"/>
</svg>
