<svg width="25" height="25" viewBox="0 0 25 25" fill="none" xmlns="http://www.w3.org/2000/svg">
<path d="M10.9961 15.8168H13.0273V15.6818C13.0558 14.0483 13.5245 13.3168 14.7319 12.571C16.0032 11.804 16.7844 10.7244 16.7844 9.12642C16.7844 6.81818 15.0373 5.25568 12.4308 5.25568C10.0373 5.25568 8.11967 6.65483 8.02734 9.21165H10.1864C10.2717 7.70597 11.3441 7.04545 12.4308 7.04545C13.6381 7.04545 14.6183 7.84801 14.6183 9.10511C14.6183 10.1634 13.9577 10.9091 13.1126 11.4347C11.7915 12.2443 11.0103 13.0469 10.9961 15.6818V15.8168ZM12.0685 20.1349C12.8427 20.1349 13.489 19.5028 13.489 18.7145C13.489 17.9403 12.8427 17.3011 12.0685 17.3011C11.2873 17.3011 10.6481 17.9403 10.6481 18.7145C10.6481 19.5028 11.2873 20.1349 12.0685 20.1349Z" fill="#828282"/>
<circle cx="12.5" cy="12.5" r="11.875" stroke="#828282" stroke-width="1.25"/>
</svg>
