<svg width="40" height="40" viewBox="0 0 40 40" fill="none" xmlns="http://www.w3.org/2000/svg">
<path d="M36.4927 40H3.50729C1.58662 40 0 37.9235 0 35.4098V4.59016C0 2.0765 1.58662 0 3.50729 0H36.4927C38.4134 0 40 2.0765 40 4.59016V35.4098C40 37.9235 38.4134 40 36.4927 40ZM3.4238 2.95082C2.75575 2.95082 2.25468 3.60655 2.25468 4.48087V35.3006C2.25468 36.1749 2.75575 36.8306 3.4238 36.8306H36.4092C37.0772 36.8306 37.5783 36.1749 37.5783 35.3006V4.48087C37.5783 3.60655 37.0772 2.95082 36.4092 2.95082H3.4238Z" fill="#6A6A6A"/>
<path d="M27.6191 15.2382C24.9351 15.2382 22.8572 13.0737 22.8572 10.4763C22.8572 7.87892 25.0217 5.71442 27.6191 5.71442C30.2165 5.71442 32.381 7.87892 32.381 10.4763C32.381 13.0737 30.2165 15.2382 27.6191 15.2382ZM27.6191 7.87892C26.2338 7.87892 25.1083 9.00445 25.1083 10.3897C25.1083 11.775 26.2338 12.9006 27.6191 12.9006C29.0044 12.9006 30.1299 11.775 30.1299 10.3897C30.1299 9.00445 29.0044 7.87892 27.6191 7.87892Z" fill="#6A6A6A"/>
<path d="M33.8025 39.9999L15.9531 18.9102L1.91436 31.3549L0 29.4168L15.9531 15.238L36.1905 38.4444L33.8025 39.9999Z" fill="#6A6A6A"/>
<path d="M38.8559 30.4763L31.0836 23.7262L26.3781 27.2027L24.7618 25.6401L30.8355 20.9525L39.9999 28.9567L38.8559 30.4763Z" fill="#6A6A6A"/>
</svg>
