<svg width="18" height="16" viewBox="0 0 18 16" fill="none" xmlns="http://www.w3.org/2000/svg">
<path d="M6.84141 0H11.1586C11.8863 0 12.5297 0.472143 12.7582 1.17214L13.1238 2.28571H15.75C16.991 2.28571 18 3.31071 18 4.57143V13.7143C18 14.975 16.991 16 15.75 16H2.25C1.00723 16 0 14.975 0 13.7143V4.57143C0 3.31071 1.00723 2.28571 2.25 2.28571H4.87617L5.2418 1.17214C5.47031 0.472143 6.11367 0 6.84141 0ZM9 12.5714C10.8633 12.5714 12.375 11.0357 12.375 9.14286C12.375 7.21786 10.8633 5.71429 9 5.71429C7.10508 5.71429 5.625 7.21786 5.625 9.14286C5.625 11.0357 7.10508 12.5714 9 12.5714Z" fill="white"/>
</svg>
