<svg width="24" height="24" viewBox="0 0 24 24" fill="none" xmlns="http://www.w3.org/2000/svg">
<path d="M20.8168 1.65707H12.6625C11.3222 1.65707 10.2264 2.76744 10.2264 4.10755V6.27317C10.2264 6.60877 10.4986 6.8807 10.8342 6.8807C11.1698 6.8807 11.4417 6.60877 11.4417 6.27317V4.10755C11.4434 3.43179 11.9867 2.88203 12.6625 2.87234H20.8168C21.487 2.87234 22.0144 3.43749 22.0144 4.10755V19.8201C22.0224 20.4861 21.4889 21.0325 20.8229 21.0403H12.6627C11.9896 21.0378 11.4446 20.493 11.4417 19.8201V17.6997C11.4417 17.3639 11.1698 17.0919 10.8342 17.0919C10.4986 17.0919 10.2264 17.3639 10.2264 17.6997V19.8201C10.2301 21.164 11.3186 22.2523 12.6625 22.2555H20.8168C22.1544 22.2506 23.235 21.1617 23.2296 19.8239V4.10755C23.2296 2.76744 22.1571 1.65707 20.8168 1.65707Z" fill="#828282"/>
<path d="M2.81528 12.5944H17.1958C17.5314 12.5944 17.8036 12.3223 17.8036 11.9867C17.8036 11.6513 17.5314 11.3792 17.1958 11.3792H2.68036L5.79785 7.77556C6.01772 7.51996 5.99035 7.13495 5.73723 6.91281C5.48468 6.69199 5.101 6.71764 4.88037 6.97001V6.97039L0.950868 11.4964C0.806063 11.6156 0.724539 11.7949 0.729859 11.9821C0.73556 12.1697 0.827536 12.3441 0.979373 12.4544L4.90926 16.3842C5.14661 16.6216 5.53143 16.6216 5.7684 16.3842C6.00271 16.1543 6.00632 15.7784 5.77657 15.5441C5.77391 15.5416 5.77125 15.539 5.7684 15.5363L2.81528 12.5944Z" fill="#828282"/>
</svg>
