<svg width="23" height="21" viewBox="0 0 23 21" fill="none" xmlns="http://www.w3.org/2000/svg">
<path d="M18.0673 10.6751C20.3514 8.62173 20.5384 5.10564 18.4851 2.82161C16.6019 0.726789 13.4497 0.370913 11.1468 1.99318C8.63645 0.221492 5.16517 0.82034 3.39349 3.33069C1.76782 5.63416 2.12225 8.78957 4.21842 10.675C1.61387 12.048 -0.0117045 14.7547 9.43144e-05 17.6989V20.0867C9.43144e-05 20.5263 0.356437 20.8826 0.796024 20.8826H21.4898C21.9294 20.8826 22.2857 20.5263 22.2857 20.0867V17.6989C22.2975 14.7547 20.6719 12.048 18.0673 10.6751ZM14.3265 2.57659C16.5213 2.57417 18.3025 4.3514 18.3049 6.54617C18.3067 8.11144 17.3894 9.53192 15.9621 10.1744C15.9008 10.2022 15.8396 10.2277 15.7775 10.254C15.581 10.3332 15.3785 10.3963 15.1718 10.4426C15.132 10.4514 15.0922 10.4561 15.0516 10.4641C14.8207 10.5084 14.5863 10.5321 14.3512 10.535C14.2453 10.535 14.1387 10.527 14.0328 10.5175C13.993 10.5175 13.9532 10.5175 13.9134 10.5095C13.461 10.4562 13.021 10.3265 12.6121 10.1259C12.597 10.1187 12.5794 10.1195 12.5643 10.1131C12.4847 10.0749 12.4052 10.0415 12.3343 9.99851C12.3407 9.99053 12.3447 9.98181 12.351 9.97384C12.716 9.50487 13.0037 8.98069 13.2034 8.42101L13.2281 8.35414C13.3189 8.08682 13.3894 7.81307 13.439 7.53512C13.4462 7.49455 13.4518 7.45551 13.4581 7.41177C13.5042 7.12883 13.5284 6.84282 13.5306 6.55615C13.5283 6.27004 13.5041 5.98453 13.4581 5.70211C13.4518 5.66074 13.4462 5.6225 13.439 5.57876C13.3894 5.30086 13.3189 5.02706 13.2281 4.75974L13.2034 4.69287C13.0037 4.13319 12.7159 3.60901 12.351 3.14004C12.3446 3.13207 12.3407 3.12335 12.3343 3.11537C12.939 2.76262 13.6265 2.57664 14.3265 2.57659ZM3.97965 6.55619C3.97401 4.36404 5.74649 2.58237 7.93864 2.57673C8.96621 2.57407 9.95479 2.97005 10.6964 3.68134C10.7426 3.72592 10.7879 3.77046 10.8325 3.81663C10.9692 3.95985 11.0952 4.11281 11.2098 4.27427C11.2448 4.32361 11.2766 4.37617 11.3092 4.42709C11.4205 4.59829 11.5181 4.77793 11.6013 4.96433C11.6212 5.00971 11.6363 5.05588 11.6538 5.10121C11.7377 5.30738 11.8038 5.52042 11.8512 5.73793C11.8568 5.7618 11.8584 5.78568 11.8632 5.81035C11.964 6.30455 11.964 6.81404 11.8632 7.30824C11.8584 7.33291 11.8568 7.35679 11.8512 7.38066C11.8038 7.59817 11.7378 7.8112 11.6538 8.01738C11.6363 8.06276 11.6212 8.10893 11.6013 8.15426C11.518 8.34038 11.4204 8.51974 11.3092 8.69071C11.2766 8.74163 11.2448 8.79419 11.2098 8.84353C11.0953 9.00503 10.9692 9.15795 10.8325 9.30117C10.7879 9.34733 10.7425 9.39192 10.6964 9.43645C10.3741 9.74355 10.0026 9.99431 9.59724 10.1782C9.53279 10.2077 9.46749 10.2348 9.40146 10.2578C9.2096 10.334 9.01219 10.3952 8.81091 10.4409C8.76078 10.452 8.70901 10.4584 8.65809 10.4671C8.44198 10.5074 8.22284 10.5295 8.00304 10.5332H7.91551C7.69572 10.5295 7.47657 10.5074 7.26047 10.4671C7.20954 10.4584 7.15777 10.452 7.10764 10.4409C6.90636 10.3952 6.70891 10.334 6.51709 10.2578C6.45101 10.2316 6.38577 10.2045 6.32132 10.1782C4.89735 9.53532 3.98147 8.11853 3.97965 6.55619ZM14.3265 19.2908H1.59191V17.699C1.58025 15.0019 3.27956 12.5939 5.82455 11.701C7.19079 12.2698 8.72757 12.2698 10.0939 11.701C10.3596 11.7981 10.6186 11.9127 10.8691 12.044C11.0346 12.1292 11.1875 12.2263 11.3466 12.3242C11.4501 12.3886 11.5551 12.4515 11.6547 12.5224C11.8083 12.6314 11.9531 12.75 12.0956 12.8718C12.1871 12.9514 12.2778 13.0309 12.3638 13.1105C12.4951 13.2347 12.6185 13.366 12.7371 13.5006C12.8222 13.5977 12.905 13.6963 12.9838 13.7982C13.0881 13.9319 13.1876 14.0689 13.2799 14.2097C13.3595 14.3291 13.4304 14.4532 13.5004 14.5774C13.58 14.7143 13.6532 14.8512 13.72 14.9937C13.7869 15.1362 13.8458 15.2922 13.9031 15.4442C13.9532 15.5763 14.0065 15.7076 14.0479 15.8421C14.1036 16.0268 14.1426 16.2178 14.1816 16.4088C14.2055 16.5218 14.2365 16.6325 14.254 16.7471C14.3012 17.0622 14.3254 17.3803 14.3265 17.699V19.2908H14.3265ZM20.6938 19.2908H15.9184V17.699C15.9184 17.4499 15.904 17.2031 15.8818 16.9588C15.8754 16.8871 15.8643 16.8163 15.8563 16.7447C15.8348 16.5688 15.8101 16.3945 15.7767 16.2218C15.7624 16.148 15.7473 16.074 15.7313 15.9997C15.6931 15.8225 15.6488 15.6468 15.5984 15.4728C15.5817 15.4155 15.5665 15.3574 15.5491 15.3009C15.3262 14.5884 15.0032 13.9113 14.59 13.2896L14.5589 13.2443C14.4221 13.041 14.2759 12.8444 14.1204 12.6545L14.1148 12.6473C13.9557 12.45 13.7829 12.2581 13.6015 12.0766C13.6118 12.0766 13.623 12.0766 13.6341 12.0766C13.8587 12.1062 14.0849 12.1221 14.3114 12.1244H14.3552C14.5649 12.1226 14.7743 12.109 14.9824 12.0838C15.0477 12.0758 15.1122 12.0639 15.1774 12.0536C15.3467 12.0276 15.5138 11.9939 15.6788 11.9525C15.7258 11.9406 15.7736 11.9294 15.8213 11.9159C16.0378 11.857 16.2505 11.7847 16.458 11.6994C19.0049 12.5914 20.7057 15.0005 20.6939 17.699V19.2908H20.6938Z" fill="#BDBDBD"/>
</svg>
