<svg width="23" height="24" viewBox="0 0 23 24" fill="none" xmlns="http://www.w3.org/2000/svg">
<g clip-path="url(#clip0)">
<path d="M18.0673 11.6751C20.3514 9.62173 20.5384 6.10564 18.4851 3.82161C16.6019 1.72679 13.4497 1.37091 11.1468 2.99318C8.63645 1.22149 5.16517 1.82034 3.39349 4.33069C1.76782 6.63416 2.12225 9.78957 4.21842 11.675C1.61387 13.048 -0.0117045 15.7547 9.43144e-05 18.6989V21.0867C9.43144e-05 21.5263 0.356437 21.8826 0.796024 21.8826H21.4898C21.9294 21.8826 22.2857 21.5263 22.2857 21.0867V18.6989C22.2975 15.7547 20.6719 13.048 18.0673 11.6751ZM14.3265 3.57659C16.5213 3.57417 18.3025 5.3514 18.3049 7.54617C18.3067 9.11144 17.3894 10.5319 15.9621 11.1744C15.9008 11.2022 15.8396 11.2277 15.7775 11.254C15.581 11.3332 15.3785 11.3963 15.1718 11.4426C15.132 11.4514 15.0922 11.4561 15.0516 11.4641C14.8207 11.5084 14.5863 11.5321 14.3512 11.535C14.2453 11.535 14.1387 11.527 14.0328 11.5175C13.993 11.5175 13.9532 11.5175 13.9134 11.5095C13.461 11.4562 13.021 11.3265 12.6121 11.1259C12.597 11.1187 12.5794 11.1195 12.5643 11.1131C12.4847 11.0749 12.4052 11.0415 12.3343 10.9985C12.3407 10.9905 12.3447 10.9818 12.351 10.9738C12.716 10.5049 13.0037 9.98069 13.2034 9.42101L13.2281 9.35414C13.3189 9.08682 13.3894 8.81307 13.439 8.53512C13.4462 8.49455 13.4518 8.45551 13.4581 8.41177C13.5042 8.12883 13.5284 7.84282 13.5306 7.55615C13.5283 7.27004 13.5041 6.98453 13.4581 6.70211C13.4518 6.66074 13.4462 6.6225 13.439 6.57876C13.3894 6.30086 13.3189 6.02706 13.2281 5.75974L13.2034 5.69287C13.0037 5.13319 12.7159 4.60901 12.351 4.14004C12.3446 4.13207 12.3407 4.12335 12.3343 4.11537C12.939 3.76262 13.6265 3.57664 14.3265 3.57659ZM3.97965 7.55619C3.97401 5.36404 5.74649 3.58237 7.93864 3.57673C8.96621 3.57407 9.95479 3.97005 10.6964 4.68134C10.7426 4.72592 10.7879 4.77046 10.8325 4.81663C10.9692 4.95985 11.0952 5.11281 11.2098 5.27427C11.2448 5.32361 11.2766 5.37617 11.3092 5.42709C11.4205 5.59829 11.5181 5.77793 11.6013 5.96433C11.6212 6.00971 11.6363 6.05588 11.6538 6.10121C11.7377 6.30738 11.8038 6.52042 11.8512 6.73793C11.8568 6.7618 11.8584 6.78568 11.8632 6.81035C11.964 7.30455 11.964 7.81404 11.8632 8.30824C11.8584 8.33291 11.8568 8.35679 11.8512 8.38066C11.8038 8.59817 11.7378 8.8112 11.6538 9.01738C11.6363 9.06276 11.6212 9.10893 11.6013 9.15426C11.518 9.34038 11.4204 9.51974 11.3092 9.69071C11.2766 9.74163 11.2448 9.79419 11.2098 9.84353C11.0953 10.005 10.9692 10.1579 10.8325 10.3012C10.7879 10.3473 10.7425 10.3919 10.6964 10.4365C10.3741 10.7436 10.0026 10.9943 9.59724 11.1782C9.53279 11.2077 9.46749 11.2348 9.40146 11.2578C9.2096 11.334 9.01219 11.3952 8.81091 11.4409C8.76078 11.452 8.70901 11.4584 8.65809 11.4671C8.44198 11.5074 8.22284 11.5295 8.00304 11.5332H7.91551C7.69572 11.5295 7.47657 11.5074 7.26047 11.4671C7.20954 11.4584 7.15777 11.452 7.10764 11.4409C6.90636 11.3952 6.70891 11.334 6.51709 11.2578C6.45101 11.2316 6.38577 11.2045 6.32132 11.1782C4.89735 10.5353 3.98147 9.11853 3.97965 7.55619ZM14.3265 20.2908H1.59191V18.699C1.58025 16.0019 3.27956 13.5939 5.82455 12.701C7.19079 13.2698 8.72757 13.2698 10.0939 12.701C10.3596 12.7981 10.6186 12.9127 10.8691 13.044C11.0346 13.1292 11.1875 13.2263 11.3466 13.3242C11.4501 13.3886 11.5551 13.4515 11.6547 13.5224C11.8083 13.6314 11.9531 13.75 12.0956 13.8718C12.1871 13.9514 12.2778 14.0309 12.3638 14.1105C12.4951 14.2347 12.6185 14.366 12.7371 14.5006C12.8222 14.5977 12.905 14.6963 12.9838 14.7982C13.0881 14.9319 13.1876 15.0689 13.2799 15.2097C13.3595 15.3291 13.4304 15.4532 13.5004 15.5774C13.58 15.7143 13.6532 15.8512 13.72 15.9937C13.7869 16.1362 13.8458 16.2922 13.9031 16.4442C13.9532 16.5763 14.0065 16.7076 14.0479 16.8421C14.1036 17.0268 14.1426 17.2178 14.1816 17.4088C14.2055 17.5218 14.2365 17.6325 14.254 17.7471C14.3012 18.0622 14.3254 18.3803 14.3265 18.699V20.2908H14.3265ZM20.6938 20.2908H15.9184V18.699C15.9184 18.4499 15.904 18.2031 15.8818 17.9588C15.8754 17.8871 15.8643 17.8163 15.8563 17.7447C15.8348 17.5688 15.8101 17.3945 15.7767 17.2218C15.7624 17.148 15.7473 17.074 15.7313 16.9997C15.6931 16.8225 15.6488 16.6468 15.5984 16.4728C15.5817 16.4155 15.5665 16.3574 15.5491 16.3009C15.3262 15.5884 15.0032 14.9113 14.59 14.2896L14.5589 14.2443C14.4221 14.041 14.2759 13.8444 14.1204 13.6545L14.1148 13.6473C13.9557 13.45 13.7829 13.2581 13.6015 13.0766C13.6118 13.0766 13.623 13.0766 13.6341 13.0766C13.8587 13.1062 14.0849 13.1221 14.3114 13.1244H14.3552C14.5649 13.1226 14.7743 13.109 14.9824 13.0838C15.0477 13.0758 15.1122 13.0639 15.1774 13.0536C15.3467 13.0276 15.5138 12.9939 15.6788 12.9525C15.7258 12.9406 15.7736 12.9294 15.8213 12.9159C16.0378 12.857 16.2505 12.7847 16.458 12.6994C19.0049 13.5914 20.7057 16.0005 20.6939 18.699V20.2908H20.6938Z" fill="white"/>
</g>
<defs>
<clipPath id="clip0">
<rect width="22.2857" height="22.2857" fill="white" transform="translate(0 0.785767)"/>
</clipPath>
</defs>
</svg>
