<svg width="18" height="18" viewBox="0 0 18 18" fill="none" xmlns="http://www.w3.org/2000/svg">
<path d="M9 18C13.9706 18 18 13.9706 18 9C18 4.02944 13.9706 0 9 0C4.02944 0 0 4.02944 0 9C0 13.9706 4.02944 18 9 18Z" fill="#E4E4E3"/>
<path d="M7.49802 11.191H9.6178V11.0008C9.629 9.91014 10.0205 9.40119 10.9042 8.86985C11.9501 8.24902 12.6325 7.42681 12.6325 6.11248C12.6325 4.1549 11.0552 3.01392 8.8348 3.01392C6.80452 3.01392 5.14897 4.0766 5.09863 6.31379H7.38057C7.41415 5.40214 8.0909 4.91555 8.82361 4.91555C9.57865 4.91555 10.1883 5.41892 10.1883 6.19634C10.1883 6.92906 9.65695 7.41562 8.96902 7.85189C8.02936 8.44477 7.50365 9.04321 7.49802 11.0008V11.191ZM8.5999 14.7705C9.3158 14.7705 9.93663 14.172 9.9422 13.4282C9.93663 12.6955 9.3158 12.097 8.5999 12.097C7.86162 12.097 7.25193 12.6955 7.25755 13.4282C7.25193 14.172 7.86162 14.7705 8.5999 14.7705Z" fill="white"/>
</svg>
