<svg width="40" height="26" viewBox="0 0 40 26" fill="none" xmlns="http://www.w3.org/2000/svg">
<path d="M6.12524 3.56V1H38.8194V20.2H36.5975" stroke="#FBFBFB" stroke-width="2"/>
<path d="M34.0116 5.7998H1V24.9998H34.0116V5.7998Z" stroke="#FBFBFB" stroke-width="2"/>
<path d="M14.0169 12.3746H12.9159L11.5443 13.2501V14.2974L12.8131 13.4955H12.8455V17.9601H14.0169V12.3746ZM18.5576 12.1128H17.5647L15.7792 18.8001H16.7721L18.5576 12.1128ZM22.0282 18.0364C23.2618 18.0419 24.1032 17.2265 24.1005 16.0892C24.1032 15.0419 23.3782 14.2864 22.3961 14.2864C21.7874 14.2864 21.2491 14.581 21.0002 15.0746H20.9623C20.9677 13.9865 21.3465 13.3101 22.0688 13.3101C22.4935 13.3101 22.7992 13.5447 22.8885 13.9346H24.0437C23.9327 13.0155 23.1753 12.2983 22.0688 12.2983C20.7 12.2983 19.8207 13.4165 19.8153 15.2928C19.8126 17.3383 20.8893 18.031 22.0282 18.0364ZM22.0228 17.1092C21.4818 17.1092 21.0814 16.6701 21.0814 16.1246C21.0841 15.5819 21.4926 15.1401 22.031 15.1401C22.572 15.1401 22.967 15.5683 22.9642 16.1219C22.967 16.681 22.5638 17.1092 22.0228 17.1092Z" fill="#FBFBFB"/>
</svg>
