<svg width="16" height="16" viewBox="0 0 16 16" fill="none" xmlns="http://www.w3.org/2000/svg">
<path fill-rule="evenodd" clip-rule="evenodd" d="M11.2975 8C11.2975 9.76731 9.82118 11.2 8.00002 11.2C6.17886 11.2 4.70252 9.76731 4.70252 8C4.70252 6.23269 6.17886 4.8 8.00002 4.8C9.82118 4.8 11.2975 6.23269 11.2975 8ZM9.64877 8C9.64877 8.88366 8.9106 9.6 8.00002 9.6C7.08944 9.6 6.35127 8.88366 6.35127 8C6.35127 7.11634 7.08944 6.4 8.00002 6.4C8.9106 6.4 9.64877 7.11634 9.64877 8Z" fill="#6C6C6C"/>
<path fill-rule="evenodd" clip-rule="evenodd" d="M0.110476 5.26101L1.61092 2.739C1.80463 2.41342 2.20581 2.26265 2.57496 2.37671L4.08931 2.8446C4.29138 2.70041 4.50104 2.56813 4.71708 2.44809C4.92288 2.33324 5.13567 2.22885 5.35468 2.13568L5.6943 0.629043C5.77709 0.261776 6.11223 0 6.49963 0H9.50053C9.88793 0 10.2231 0.261776 10.3059 0.629043L10.6455 2.13568C10.8779 2.23454 11.1033 2.34603 11.3207 2.46926C11.5234 2.58363 11.7204 2.70883 11.9107 2.8446L13.425 2.37671C13.7942 2.26265 14.1954 2.41342 14.3891 2.739L15.8895 5.26101C16.0832 5.5866 16.0172 5.99914 15.7308 6.25235L14.5561 7.29109C14.5831 7.52706 14.5963 7.76343 14.5961 7.99911C14.5964 8.23538 14.5831 8.47235 14.5561 8.70893L15.7308 9.74767C16.0172 10.0009 16.0832 10.4134 15.8895 10.739L14.3891 13.261C14.1954 13.5866 13.7942 13.7374 13.425 13.6233L11.9107 13.1554C11.7181 13.2928 11.5186 13.4194 11.3133 13.535C11.0981 13.6565 10.8752 13.7666 10.6455 13.8643L10.3059 15.371C10.2231 15.7382 9.88793 16 9.50053 16H6.49963C6.11223 16 5.77709 15.7382 5.6943 15.371L5.35468 13.8643C5.13822 13.7722 4.92783 13.6692 4.72427 13.5559C4.50569 13.4348 4.29362 13.3012 4.08931 13.1554L2.57496 13.6233C2.20581 13.7374 1.80463 13.5866 1.61092 13.261L0.110475 10.739C-0.0832277 10.4134 -0.0171852 10.0009 0.269175 9.74767L1.44391 8.70893C1.41691 8.47265 1.40367 8.23597 1.4039 7.99999C1.40367 7.76402 1.41691 7.52736 1.44391 7.29109L0.269176 6.25235C-0.0171842 5.99914 -0.0832272 5.5866 0.110476 5.26101ZM8.83699 1.6L9.21429 3.27381L9.98351 3.60105C10.1575 3.67506 10.3263 3.75857 10.4894 3.85096L10.492 3.85246C10.644 3.9382 10.7915 4.032 10.934 4.13363L11.6106 4.61647L13.293 4.09665L14.1299 5.50337L12.8248 6.65736L12.9174 7.46744C12.9376 7.64408 12.9475 7.82115 12.9473 7.99784L12.9474 8.00083C12.9475 8.17797 12.9376 8.35548 12.9174 8.53257L12.8248 9.34265L14.1299 10.4967L13.293 11.9034L11.6106 11.3836L10.934 11.8664C10.7898 11.9693 10.6404 12.0641 10.4864 12.1507L10.4838 12.1522C10.3225 12.2433 10.1555 12.3258 9.98351 12.3989L9.21429 12.7262L8.83699 14.4H7.16317L6.78587 12.7262L6.01666 12.3989C5.85462 12.33 5.69702 12.2528 5.54442 12.1679L5.54172 12.1664C5.37784 12.0756 5.21897 11.9755 5.06604 11.8664L4.3894 11.3836L2.70702 11.9034L1.8701 10.4967L3.17518 9.34265L3.08261 8.53257C3.0624 8.35571 3.05248 8.17841 3.05265 8.00149L3.05265 7.9985C3.05248 7.82159 3.0624 7.6443 3.08261 7.46744L3.17518 6.65736L1.8701 5.50336L2.70702 4.09665L4.3894 4.61647L5.06604 4.13363C5.2173 4.02569 5.37436 3.92659 5.53633 3.83659L5.53902 3.83509C5.69331 3.74898 5.85272 3.6708 6.01665 3.60105L6.78587 3.27381L7.16317 1.6H8.83699Z" fill="#6C6C6C"/>
</svg>
