<svg width="24" height="24" viewBox="0 0 24 24" fill="none" xmlns="http://www.w3.org/2000/svg">
<path d="M2.832 12.1515L2.83558 12.1685C3.34529 14.5884 4.97619 16.666 7.28431 17.7152L12 19.8587V17.3333H14.6667C18.3486 17.3333 21.3333 14.3486 21.3333 10.6667V9.33333C21.3333 5.65144 18.3486 2.66667 14.6667 2.66667H9.33333C5.65144 2.66667 2.66667 5.65144 2.66667 9.33333V10.6667C2.66667 11.1738 2.72282 11.6647 2.8282 12.1345L2.832 12.1515ZM14.6667 24L6.18083 20.1428C3.09049 18.7381 0.90836 15.9569 0.226171 12.7181C0.0781193 12.058 0 11.3715 0 10.6667V9.33333C0 4.17868 4.17868 0 9.33333 0H14.6667C19.8213 0 24 4.17868 24 9.33333V10.6667C24 15.8213 19.8213 20 14.6667 20V24Z" fill="white"/>
</svg>
