<svg width="24" height="24" viewBox="0 0 24 24" fill="none" xmlns="http://www.w3.org/2000/svg">
<path d="M1.16131 5.00303C3.88431 5.00275 6.39864 6.35662 7.90499 8.56122C8.26668 9.09034 8.98922 9.22644 9.51891 8.86475C10.0483 8.50305 10.1844 7.78023 9.82272 7.25111C7.88692 4.41828 4.65879 2.68041 1.16131 2.68041C0.519808 2.68041 0 3.20022 0 3.84172C0 4.48294 0.519808 5.00303 1.16131 5.00303Z" fill="white"/>
<path d="M23.9999 18.8961C23.9999 18.7388 23.9679 18.5869 23.9089 18.4463L23.7327 18.1837L23.6599 18.0748L19.7171 14.1326C19.2634 13.6788 18.5282 13.6788 18.0747 14.1328C17.6213 14.5866 17.6213 15.3218 18.075 15.7753L20.03 17.7297C17.7588 17.7021 15.64 16.7381 14.1399 15.1219C13.7034 14.6518 12.9687 14.6241 12.4986 15.0607C12.0284 15.4969 12.0011 16.2318 12.4373 16.702C14.3717 18.7863 17.1085 20.0272 20.0396 20.0526L18.075 22.0172C17.6213 22.4704 17.6213 23.2062 18.0747 23.6597C18.5282 24.1134 19.2637 24.1134 19.7174 23.6599L23.6599 19.7172L23.7079 19.6458L23.9092 19.3453C23.9679 19.2047 23.9999 19.0531 23.9999 18.8961Z" fill="white"/>
<path d="M23.7325 4.39144L23.6596 4.28246L19.7172 0.340268C19.2634 -0.11347 18.5282 -0.11347 18.0747 0.340551C17.6213 0.794289 17.6213 1.52953 18.075 1.98299L20.0416 3.94928C16.0415 3.9826 12.404 6.2832 10.6706 9.89447L8.52559 14.3632C7.16636 17.1958 4.30275 18.9978 1.16131 18.9978C0.519809 18.9978 0 19.5176 0 20.1591C0 20.8003 0.519809 21.3204 1.16131 21.3204C5.19611 21.3204 8.87345 19.0062 10.6195 15.3687L12.7645 10.8999C14.1091 8.09815 16.9264 6.31143 20.0277 6.27275L18.075 8.22549C17.6213 8.67866 17.6213 9.41447 18.0747 9.86793C18.5282 10.3217 19.2637 10.3217 19.7174 9.86821L23.6599 5.92546L23.7079 5.85402L23.9092 5.5536C23.9682 5.41299 24.0001 5.26137 24.0001 5.10438C24.0001 4.94711 23.9682 4.79521 23.9092 4.65459L23.7325 4.39144Z" fill="white"/>
</svg>
