<svg width="1440" height="900" viewBox="0 0 1440 900" fill="none" xmlns="http://www.w3.org/2000/svg">
<g clip-path="url(#clip0)">
<rect width="1440" height="900" fill="white"/>
<path d="M1226.5 572C1295.87 453.5 1414.33 460.162 1440 465.996V899.996H880C895.167 871.996 909.105 795.19 1024.5 787.5C1174.5 777.505 1142.5 715.5 1226.5 572Z" fill="#FFAD69" fill-opacity="0.5"/>
<path d="M487.578 284.985C673.267 140.323 693.727 58.3567 704 0L2.28882e-05 0L2.28882e-05 900C106.9 891.784 478.47 782.135 384.137 586.976C320.593 455.516 345.974 395.301 487.578 284.985Z" fill="#EEF4FF" fill-opacity="0.5"/>
<path d="M1140.07 260.984C999.976 165.68 1073.81 10.703 1128.23 -54.8726C1304.03 -272.838 1541.8 -236.571 1571.94 -138.061C1602.08 -39.5499 1462.7 17.2493 1453.39 125.233C1444.07 233.216 1315.2 380.114 1140.07 260.984Z" fill="#E5F4E3" fill-opacity="0.5"/>
</g>
<defs>
<clipPath id="clip0">
<rect width="1440" height="900" fill="white"/>
</clipPath>
</defs>
</svg>
