<svg width="24" height="24" viewBox="0 0 24 24" fill="none" xmlns="http://www.w3.org/2000/svg">
<path d="M21.8956 24H2.10438C0.951974 24 0 22.7541 0 21.2459V2.7541C0 1.2459 0.951974 0 2.10438 0H21.8956C23.048 0 24 1.2459 24 2.7541V21.2459C24 22.7541 23.048 24 21.8956 24ZM2.05428 1.77049C1.65345 1.77049 1.35281 2.16393 1.35281 2.68852V21.1803C1.35281 21.7049 1.65345 22.0984 2.05428 22.0984H21.8455C22.2463 22.0984 22.547 21.7049 22.547 21.1803V2.68852C22.547 2.16393 22.2463 1.77049 21.8455 1.77049H2.05428Z" fill="#6A6A6A"/>
<path d="M16.572 9.14287C14.9616 9.14287 13.7148 7.84417 13.7148 6.28573C13.7148 4.72729 15.0135 3.42859 16.572 3.42859C18.1304 3.42859 19.4291 4.72729 19.4291 6.28573C19.4291 7.84417 18.1304 9.14287 16.572 9.14287ZM16.572 4.72729C15.7408 4.72729 15.0655 5.40261 15.0655 6.23378C15.0655 7.06495 15.7408 7.74028 16.572 7.74028C17.4032 7.74028 18.0785 7.06495 18.0785 6.23378C18.0785 5.40261 17.4032 4.72729 16.572 4.72729Z" fill="#6A6A6A"/>
<path d="M20.2815 24L9.57186 11.3461L1.14862 18.813L0 17.6501L9.57186 9.14282L21.7143 23.0666L20.2815 24Z" fill="#6A6A6A"/>
<path d="M23.3138 18.2857L18.6505 14.2357L15.8272 16.3215L14.8574 15.384L18.5016 12.5714L24.0003 17.374L23.3138 18.2857Z" fill="#6A6A6A"/>
</svg>
