<svg width="25" height="24" viewBox="0 0 25 24" fill="none" xmlns="http://www.w3.org/2000/svg">
<g clip-path="url(#clip0)">
<ellipse cx="12.3333" cy="12" rx="12.1429" ry="12" fill="#5DA9E9"/>
<path d="M7.9964 11.9999C8.95443 11.9999 9.73107 11.2324 9.73107 10.2857C9.73107 9.33892 8.95443 8.57141 7.9964 8.57141C7.03836 8.57141 6.26172 9.33892 6.26172 10.2857C6.26172 11.2324 7.03836 11.9999 7.9964 11.9999Z" fill="white"/>
<path d="M16.6697 11.9999C17.6278 11.9999 18.4044 11.2324 18.4044 10.2857C18.4044 9.33892 17.6278 8.57141 16.6697 8.57141C15.7117 8.57141 14.9351 9.33892 14.9351 10.2857C14.9351 11.2324 15.7117 11.9999 16.6697 11.9999Z" fill="white"/>
<path d="M16.9513 16.5063C16.5303 15.9488 15.7316 15.8341 15.1675 16.2502C15.1431 16.2682 15.1194 16.287 15.0963 16.3068C13.2938 17.6078 10.847 17.6078 9.04458 16.3068C8.51202 15.8518 7.70709 15.9098 7.24682 16.4361C6.78648 16.9623 6.84511 17.7578 7.37767 18.2127C7.40067 18.2324 7.42442 18.2512 7.44884 18.2692C10.1771 20.3299 13.9638 20.3299 16.692 18.2692C17.2563 17.8531 17.3723 17.0638 16.9513 16.5063Z" fill="white"/>
</g>
<defs>
<clipPath id="clip0">
<rect x="0.19043" width="24.2857" height="24" rx="4" fill="white"/>
</clipPath>
</defs>
</svg>
