<svg width="20" height="20" viewBox="0 0 20 20" fill="none" xmlns="http://www.w3.org/2000/svg">
<path d="M20 10C20 15.5228 15.5228 20 10 20C4.47722 20 0 15.5228 0 10C0 4.47722 4.47722 0 10 0C15.5228 0 20 4.47722 20 10Z" fill="#FFCC4D"/>
<path d="M9.99978 11.6667C7.98701 11.6667 6.65145 11.4323 4.99978 11.1111C4.62256 11.0384 3.88867 11.1111 3.88867 12.2223C3.88867 14.4445 6.44145 17.2223 9.99978 17.2223C13.5576 17.2223 16.1109 14.4445 16.1109 12.2223C16.1109 11.1111 15.377 11.0378 14.9998 11.1111C13.3481 11.4323 12.0126 11.6667 9.99978 11.6667Z" fill="#664500"/>
<path d="M5 12.2222C5 12.2222 6.66667 12.7777 10 12.7777C13.3333 12.7777 15 12.2222 15 12.2222C15 12.2222 13.8889 14.4444 10 14.4444C6.11111 14.4444 5 12.2222 5 12.2222Z" fill="white"/>
<path d="M8.71112 2.45168L6.18779 2.89668L4.88779 0.533905C4.74445 0.27335 4.45001 0.133905 4.1589 0.185016C3.86612 0.236683 3.63834 0.468905 3.59279 0.762239L3.1789 3.42724L0.655565 3.87224C0.358342 3.92446 0.128898 4.16391 0.0883423 4.46335C0.0477868 4.76279 0.205565 5.05391 0.478898 5.18391L2.74001 6.25724L2.32445 8.93057C2.27834 9.22835 2.42945 9.52168 2.69834 9.65779C2.79779 9.70779 2.90445 9.73168 3.01056 9.73168C3.19223 9.73168 3.37168 9.66057 3.50556 9.52502L5.45668 7.54668L7.96668 8.73835C8.2389 8.86724 8.56334 8.80668 8.77001 8.58724C8.97668 8.36779 9.01779 8.04057 8.87279 7.77668L7.56834 5.40557L9.32668 3.62335C9.5389 3.40835 9.58723 3.08057 9.44723 2.81279C9.30612 2.54502 9.00667 2.40002 8.71112 2.45168ZM11.2867 2.45168L13.81 2.89668L15.11 0.533905C15.2533 0.27335 15.5478 0.133905 15.8389 0.185016C16.1311 0.236683 16.3589 0.468905 16.4045 0.762239L16.8183 3.42724L19.3417 3.87224C19.6395 3.92446 19.8689 4.16335 19.9089 4.46279C19.9489 4.76224 19.7917 5.05335 19.5183 5.18335L17.2572 6.25668L17.6728 8.93002C17.7189 9.22779 17.5678 9.52113 17.2989 9.65724C17.1995 9.70724 17.0928 9.73113 16.9867 9.73113C16.805 9.73113 16.6256 9.66002 16.4917 9.52446L14.5406 7.54613L12.0306 8.73779C11.7583 8.86668 11.4339 8.80613 11.2272 8.58668C11.0206 8.36724 10.9795 8.04002 11.1245 7.77613L12.4289 5.40557L10.6706 3.62335C10.4583 3.40835 10.41 3.08057 10.55 2.81279C10.6917 2.54502 10.9911 2.40002 11.2867 2.45168Z" fill="#E95F28"/>
</svg>
