<svg width="16" height="16" viewBox="0 0 16 16" fill="none" xmlns="http://www.w3.org/2000/svg">
<path d="M15.9989 7.95831C15.9916 7.83812 15.9543 7.72234 15.8911 7.62325C15.8279 7.52416 15.7411 7.44547 15.6399 7.39553L0.868146 0.0587502C0.753113 0.0026566 0.624955 -0.0137856 0.501015 0.0116496C0.377075 0.0370848 0.263339 0.103172 0.175198 0.200961C0.0870581 0.29875 0.0287697 0.423519 0.00822198 0.558388C-0.0123258 0.693258 0.0058592 0.831717 0.0603158 0.955019L3.2147 8L0.0603158 15.045C0.0058592 15.1683 -0.0123258 15.3067 0.00822198 15.4416C0.0287697 15.5765 0.0870581 15.7013 0.175198 15.799C0.263339 15.8968 0.377075 15.9629 0.501015 15.9883C0.624955 16.0138 0.753113 15.9974 0.868146 15.9413L15.6399 8.60446C15.7529 8.5486 15.8477 8.45698 15.9118 8.34166C15.9759 8.22633 16.0062 8.0927 15.9989 7.95831ZM12.5688 7.33302H4.28538L1.91961 2.04582L12.5688 7.33302ZM12.5688 8.66698L1.91961 13.9542L4.28538 8.66698H12.5688Z" fill="white"/>
</svg>
