<svg width="12" height="12" viewBox="0 0 12 12" fill="none" xmlns="http://www.w3.org/2000/svg">
<path d="M11.9992 5.96873C11.9937 5.87859 11.9657 5.79175 11.9183 5.71744C11.8709 5.64312 11.8058 5.5841 11.7299 5.54665L0.651109 0.0440627C0.564835 0.00199245 0.468716 -0.0103392 0.375761 0.00873721C0.282806 0.0278136 0.197504 0.0773789 0.131399 0.150721C0.0652936 0.224063 0.0215773 0.317639 0.00616648 0.418791C-0.00924434 0.519944 0.0043944 0.623788 0.0452368 0.716264L2.41103 6L0.0452368 11.2837C0.0043944 11.3762 -0.00924434 11.48 0.00616648 11.5812C0.0215773 11.6823 0.0652936 11.7759 0.131399 11.8493C0.197504 11.9226 0.282806 11.9722 0.375761 11.9913C0.468716 12.0103 0.564835 11.998 0.651109 11.9559L11.7299 6.45335C11.8147 6.41145 11.8858 6.34274 11.9338 6.25624C11.9819 6.16975 12.0047 6.06952 11.9992 5.96873ZM9.42664 5.49976H3.21404L1.43971 1.53437L9.42664 5.49976ZM9.42664 6.50023L1.43971 10.4656L3.21404 6.50023H9.42664Z" fill="#37352F"/>
</svg>
