<svg width="24" height="24" viewBox="0 0 24 24" fill="none" xmlns="http://www.w3.org/2000/svg">
<path d="M1.84742 24C0.840931 24 0 23.1591 0 22.1526V9.2298C0 8.2233 0.840931 7.3842 1.84742 7.3842H4.61942C5.3026 7.3842 5.90088 7.77618 6.21991 8.33944C6.84296 7.95769 7.45523 7.73422 7.84921 7.50676C8.77754 6.97079 9.24916 5.46168 9.46951 3.88946C9.57972 3.10335 9.63832 2.34795 9.73458 1.71763C9.78271 1.40247 9.83049 1.12272 9.95989 0.818264C10.0244 0.666034 10.1095 0.498974 10.2877 0.328026C10.466 0.157078 10.7785 0 11.0772 0C12.446 0 13.5681 0.53503 14.2854 1.35536C15.0026 2.17569 15.3379 3.20361 15.5181 4.22469C15.8125 5.89178 15.7009 7.30302 15.6444 8.3106H21.2263C22.744 8.3106 24.0001 9.55947 24.0001 11.0772C24.0001 11.6155 23.8473 12.0207 23.6523 12.6506C23.4574 13.2806 23.1928 14.0386 22.9026 14.8513C22.3221 16.4767 21.6312 18.3194 21.1795 19.6744C20.9992 20.2157 20.7646 20.7839 20.3414 21.2749C19.9182 21.7658 19.2362 22.1526 18.4616 22.1526H7.3844C7.06108 22.1526 6.75465 22.0857 6.4652 21.9814V22.1526C6.4652 23.1591 5.62608 24 4.61959 24H1.84742ZM1.84742 22.1526H4.61942V19.3806V11.0772V9.2298H1.84742V22.1526ZM7.38422 20.307H18.4614C18.709 20.307 18.7812 20.2584 18.9444 20.0691C19.1077 19.8798 19.2862 19.5155 19.4293 19.0868C19.9004 17.6734 20.5919 15.8357 21.1649 14.2313C21.4513 13.4291 21.7077 12.6858 21.8877 12.1045C22.0676 11.5233 22.1545 11.0003 22.1545 11.0772C22.1545 10.55 21.7535 10.158 21.2263 10.158H14.6874C14.1749 10.1599 13.759 9.74227 13.761 9.2298C13.761 8.13968 13.9978 6.19274 13.7069 4.54371C13.5615 3.71919 13.288 3.02407 12.8958 2.57555C12.6053 2.24314 12.1953 1.98192 11.5765 1.88165C11.4838 2.40835 11.4206 3.30571 11.3024 4.14899C11.0614 5.86839 10.6084 8.04487 8.7683 9.10724C8.08379 9.50244 7.42084 9.73272 7.02362 10.0066C6.62644 10.2805 6.46492 10.4274 6.46492 11.0772V19.3806C6.46492 19.9078 6.85691 20.307 7.38412 20.307H7.38422Z" fill="white"/>
</svg>
