<svg width="16" height="16" viewBox="0 0 16 16" fill="none" xmlns="http://www.w3.org/2000/svg">
<path d="M1.23161 16C0.560619 16 0 15.4394 0 14.7684V6.1532C0 5.4822 0.560619 4.9228 1.23161 4.9228H3.0796C3.53506 4.9228 3.93391 5.18412 4.1466 5.55963C4.56196 5.30513 4.97014 5.15615 5.23279 5.00451C5.85168 4.64719 6.16609 3.64112 6.31299 2.59297C6.38647 2.0689 6.42553 1.5653 6.48971 1.14509C6.52179 0.934982 6.55365 0.748481 6.63991 0.545509C6.68293 0.444023 6.73966 0.332649 6.85848 0.218684C6.97729 0.104718 7.18565 0 7.38477 0C8.29731 0 9.04536 0.356687 9.52355 0.903575C10.0017 1.45046 10.2253 2.13574 10.3454 2.81646C10.5416 3.92786 10.4672 4.86868 10.4296 5.5404H14.1508C15.1626 5.5404 16 6.37298 16 7.3848C16 7.74367 15.8982 8.01382 15.7682 8.43376C15.6382 8.8537 15.4618 9.35908 15.2683 9.90087C14.8813 10.9845 14.4208 12.2129 14.1196 13.1163C13.9994 13.4771 13.843 13.8559 13.5609 14.1832C13.2788 14.5106 12.8241 14.7684 12.3077 14.7684H4.92292C4.70738 14.7684 4.50309 14.7238 4.31012 14.6543V14.7684C4.31012 15.4394 3.75071 16 3.07972 16H1.23161ZM1.23161 14.7684H3.0796V12.9204V7.3848V6.1532H1.23161V14.7684ZM4.9228 13.538H12.3076C12.4727 13.538 12.5208 13.5056 12.6296 13.3794C12.7384 13.2532 12.8575 13.0103 12.9528 12.7245C13.2669 11.7823 13.7279 10.5571 14.1099 9.48753C14.3008 8.95273 14.4718 8.4572 14.5917 8.06969C14.7117 7.68218 14.7696 7.33353 14.7696 7.3848C14.7696 7.03334 14.5023 6.772 14.1508 6.772H9.79157C9.44991 6.7733 9.17264 6.49484 9.17396 6.1532C9.17396 5.42645 9.33184 4.12849 9.13792 3.02914C9.04096 2.47946 8.85867 2.01604 8.59721 1.71703C8.40352 1.49543 8.13017 1.32128 7.71767 1.25443C7.65582 1.60557 7.61373 2.20381 7.53491 2.766C7.37424 3.91226 7.07225 5.36325 5.84552 6.07149C5.38918 6.33496 4.94722 6.48848 4.6824 6.67107C4.41762 6.85367 4.30994 6.95162 4.30994 7.3848V12.9204C4.30994 13.2719 4.57126 13.538 4.92273 13.538H4.9228Z" fill="#616161"/>
</svg>
