<svg width="13" height="16" viewBox="0 0 13 16" fill="none" xmlns="http://www.w3.org/2000/svg">
<path d="M6.44444 12.6667L6.44445 8M6.44445 8L4.11111 9.55556M6.44445 8L8.77778 9.55556M11.889 5.66667H9.71126C8.84007 5.66667 8.40415 5.66664 8.0714 5.4971C7.7787 5.34796 7.5409 5.11001 7.39177 4.81731C7.22222 4.48456 7.22222 4.04897 7.22222 3.17778V1M11.8889 12.5111V5.91983C11.8889 5.53936 11.8886 5.34909 11.8456 5.17006C11.8075 5.01134 11.7448 4.85963 11.6595 4.72045C11.5633 4.56347 11.4291 4.42894 11.1601 4.15991L8.72917 1.72898C8.46013 1.45994 8.3256 1.32544 8.16862 1.22924C8.02944 1.14395 7.87775 1.08109 7.71903 1.04298C7.54 1 7.3497 1 6.96922 1H3.48904C2.61785 1 2.18193 1 1.84918 1.16955C1.55648 1.31868 1.31868 1.55667 1.16955 1.84937C1 2.18212 1 2.61771 1 3.4889V12.5111C1 13.3823 1 13.8179 1.16955 14.1506C1.31868 14.4433 1.55648 14.6813 1.84918 14.8304C2.18193 15 2.61785 15 3.48904 15H9.40015C10.2713 15 10.7066 15 11.0394 14.8304C11.3321 14.6813 11.5704 14.4433 11.7195 14.1506C11.8891 13.8179 11.8889 13.3823 11.8889 12.5111Z" stroke="black" stroke-width="1.3" stroke-linecap="round" stroke-linejoin="round"/>
</svg>
