<svg width="24" height="24" viewBox="0 0 24 24" fill="none" xmlns="http://www.w3.org/2000/svg">
<path d="M18.8996 11.3422C18.7096 11.1522 18.3042 10.8868 17.8264 10.6253L16.4022 9.13471L14.8275 10.6253H14.3952L12.5253 7.91693C11.4976 7.92438 10.6644 8.76356 10.6718 9.79129L8.02164 8.21728C7.41276 8.48855 6.98646 9.0967 6.98646 9.80694V10.5224L4.00537 13.6287L4.0173 15.2571L11.4581 23.2531C11.4581 23.2531 19.2969 11.8594 19.3155 11.8818C19.2194 11.7156 18.9332 11.3586 18.8996 11.3422Z" fill="#EF9645"/>
<path d="M17.8263 1.50023C17.8263 0.675217 17.1511 0 16.3261 0C15.501 0 14.8258 0.675217 14.8258 1.50023V10.6261H17.8255V1.50023H17.8263ZM14.3943 10.6253V9.10201C14.3883 8.27997 13.7169 7.61817 12.8948 7.62413C12.0728 7.6301 11.411 8.30159 11.4169 9.12362L11.4259 10.6261H14.3943V10.6253ZM5.42794 9.09456H5.55315C6.34239 9.09456 6.98109 9.734 6.98109 10.5232V13.628C6.98109 14.4173 6.34239 15.0567 5.55315 15.0567H5.42794C4.6387 15.0567 4 14.4173 4 13.628V10.5232C4 9.734 4.6387 9.09456 5.42794 9.09456ZM10.5837 11.3006L10.542 11.3468C10.1887 11.741 9.96218 12.2493 9.96218 12.8209C9.96218 12.8679 9.97187 12.9126 9.97559 12.9588C10.0084 13.4641 10.2051 13.9217 10.5182 14.2809C10.4652 14.377 10.3967 14.462 10.3251 14.544C10.0524 14.8548 9.66183 15.0567 9.21691 15.0567C8.39412 15.0567 7.72636 14.389 7.72636 13.5662V9.09456C7.72636 8.76589 7.83592 8.4648 8.01627 8.21812C8.28755 7.84772 8.72204 7.60401 9.21691 7.60401C10.0397 7.60401 10.7074 8.27178 10.7074 9.09456V11.1649C10.662 11.2059 10.6262 11.2566 10.5837 11.3006Z" fill="#FFDC5D"/>
<path d="M5.53669 15.8021C6.29985 15.8021 6.97134 15.4101 7.36261 14.8168C7.45428 14.9532 7.56458 15.0747 7.68382 15.1872C8.56697 16.0182 9.94498 15.9653 10.7894 15.1231C10.9027 15.0099 11.0152 14.8958 11.1016 14.7594L11.0994 14.7572C11.2492 14.8429 11.4527 15.0568 12.1979 15.0568H14.0887C13.8129 15.2647 13.561 15.5211 13.3255 15.8021C12.4103 16.8954 11.8253 18.4895 11.8253 20.2737C11.8253 20.4794 11.9922 20.6463 12.1979 20.6463C12.4036 20.6463 12.5706 20.4794 12.5706 20.2737C12.5706 18.3748 13.2831 16.715 14.3421 15.8021C14.8876 15.3318 15.5226 15.0568 16.2038 15.0568C16.7352 15.1157 16.835 14.3115 16.2969 14.3115H12.1979C11.3752 14.3115 10.7074 13.6438 10.7074 12.821C10.7074 11.9982 11.3752 11.3304 12.1979 11.3304H18.1601C18.7996 11.3304 19.3973 11.7746 19.5858 12.385L20.3959 15.0568C20.4727 15.3065 20.7529 16.4512 20.7022 16.6897C20.7022 20.2737 17.2024 24.0001 12.9432 24.0001C8.07136 24.0001 4.1162 20.1016 4.01038 15.255L4.02081 15.2625C4.40462 15.5941 4.89725 15.8021 5.44428 15.8021H5.53669Z" fill="#FFDC5D"/>
</svg>
