<svg width="20" height="20" viewBox="0 0 20 20" fill="none" xmlns="http://www.w3.org/2000/svg">
<g clip-path="url(#clip0)">
<path d="M15.7498 9.45181C15.5914 9.29344 15.2535 9.07234 14.8554 8.85435L13.6686 7.61223L12.3563 8.85435H11.9961L10.4378 6.59741C9.58141 6.60362 8.88706 7.30294 8.89327 8.15938L6.68478 6.8477C6.17738 7.07377 5.82213 7.58055 5.82213 8.17242V8.76864L3.33789 11.3572L3.34783 12.7142L9.54849 19.3776C9.54849 19.3776 16.0808 9.88282 16.0963 9.90145C16.0162 9.76296 15.7777 9.46547 15.7498 9.45181Z" fill="#EF9645"/>
<path d="M14.8559 1.25019C14.8559 0.562681 14.2932 0 13.6057 0C12.9182 0 12.3555 0.562681 12.3555 1.25019V8.85508H14.8553V1.25019H14.8559ZM11.9959 8.85446V7.58501C11.9909 6.89998 11.4314 6.34848 10.7463 6.35345C10.0613 6.35841 9.50981 6.91799 9.51478 7.60302L9.52223 8.85508H11.9959V8.85446ZM4.52394 7.5788H4.62827C5.28598 7.5788 5.81823 8.11167 5.81823 8.76937V11.3567C5.81823 12.0144 5.28598 12.5473 4.62827 12.5473H4.52394C3.86623 12.5473 3.33398 12.0144 3.33398 11.3567V8.76937C3.33398 8.11167 3.86623 7.5788 4.52394 7.5788ZM8.82043 9.41714L8.78565 9.45564C8.49127 9.78418 8.30247 10.2077 8.30247 10.6841C8.30247 10.7232 8.31054 10.7605 8.31364 10.799C8.34097 11.2201 8.50493 11.6014 8.76578 11.9008C8.72168 11.9809 8.66454 12.0517 8.60492 12.12C8.37761 12.379 8.05218 12.5473 7.68141 12.5473C6.99576 12.5473 6.43929 11.9908 6.43929 11.3052V7.5788C6.43929 7.30491 6.53058 7.054 6.68088 6.84843C6.90694 6.53976 7.26902 6.33668 7.68141 6.33668C8.36706 6.33668 8.92353 6.89315 8.92353 7.5788V9.3041C8.88564 9.33826 8.85583 9.38049 8.82043 9.41714Z" fill="#FFDC5D"/>
<path d="M4.61373 13.1683C5.24969 13.1683 5.80927 12.8416 6.13533 12.3472C6.21172 12.4609 6.30363 12.5621 6.403 12.6559C7.13896 13.3484 8.2873 13.3043 8.99096 12.6025C9.08536 12.5081 9.17914 12.413 9.25118 12.2994L9.24932 12.2975C9.37415 12.369 9.5437 12.5472 10.1648 12.5472H11.7404C11.5106 12.7205 11.3007 12.9341 11.1044 13.1683C10.3418 14.0794 9.85423 15.4078 9.85423 16.8946C9.85423 17.066 9.99335 17.2051 10.1648 17.2051C10.3362 17.2051 10.4753 17.066 10.4753 16.8946C10.4753 15.3122 11.069 13.9291 11.9516 13.1683C12.4062 12.7764 12.9353 12.5472 13.503 12.5472C13.9458 12.5963 14.029 11.9261 13.5806 11.9261H10.1648C9.47911 11.9261 8.92264 11.3697 8.92264 10.684C8.92264 9.99836 9.47911 9.44189 10.1648 9.44189H15.1332C15.6661 9.44189 16.1642 9.81205 16.3213 10.3207L16.9964 12.5472C17.0604 12.7553 17.2939 13.7092 17.2517 13.9079C17.2517 16.8946 14.3352 19.9999 10.7858 19.9999C6.72595 19.9999 3.42999 16.7512 3.3418 12.7124L3.35049 12.7186C3.67034 12.995 4.08086 13.1683 4.53672 13.1683H4.61373Z" fill="#FFDC5D"/>
</g>
<defs>
<clipPath id="clip0">
<rect width="20" height="20" fill="white"/>
</clipPath>
</defs>
</svg>
