<svg width="10" height="20" viewBox="0 0 10 20" fill="none" xmlns="http://www.w3.org/2000/svg">
<path d="M10 17.7778C10 19.005 9.005 20 7.77778 20H2.22222C0.995 20 0 19.005 0 17.7778V2.22222C0 0.995 0.995 0 2.22222 0H7.77778C9.005 0 10 0.995 10 2.22222V17.7778Z" fill="#31373D"/>
<path d="M4.99957 13.8889C6.22679 13.8889 7.22179 14.8839 7.22179 16.1111C7.22179 17.3383 6.22679 18.3333 4.99957 18.3333C3.77234 18.3333 2.77734 17.3383 2.77734 16.1111C2.77734 14.8839 3.77234 13.8889 4.99957 13.8889Z" fill="#77B255"/>
<path d="M4.99957 7.77777C6.22679 7.77777 7.22179 8.77277 7.22179 9.99999C7.22179 11.2272 6.22679 12.2222 4.99957 12.2222C3.77234 12.2222 2.77734 11.2272 2.77734 9.99999C2.77734 8.77277 3.77234 7.77777 4.99957 7.77777Z" fill="#FFCC4D"/>
<path d="M4.99957 1.66667C6.22679 1.66667 7.22179 2.66167 7.22179 3.88889C7.22179 5.11612 6.22679 6.11112 4.99957 6.11112C3.77234 6.11112 2.77734 5.11612 2.77734 3.88889C2.77734 2.66167 3.77234 1.66667 4.99957 1.66667Z" fill="#DD2E44"/>
</svg>
