<svg width="18" height="17" viewBox="0 0 18 17" fill="none" xmlns="http://www.w3.org/2000/svg">
<path d="M10.5162 17.3332H7.48286C7.09129 17.3332 6.75249 17.0607 6.66869 16.6782L6.32953 15.1082C5.87707 14.9099 5.44805 14.662 5.05036 14.369L3.51953 14.8565C3.14619 14.9756 2.74035 14.8184 2.54453 14.479L1.02453 11.8532C0.830848 11.5136 0.897574 11.0852 1.18536 10.8207L2.37286 9.73734C2.31886 9.2466 2.31886 8.75141 2.37286 8.26067L1.18536 7.17984C0.89715 6.91514 0.830398 6.48627 1.02453 6.1465L2.54119 3.519C2.73701 3.17959 3.14286 3.02245 3.51619 3.1415L5.04703 3.629C5.25041 3.4783 5.46214 3.33919 5.68119 3.21234C5.89148 3.09375 6.10789 2.98638 6.32953 2.89067L6.66953 1.32234C6.75292 0.939811 7.09135 0.666916 7.48286 0.666504H10.5162C10.9077 0.666916 11.2461 0.939811 11.3295 1.32234L11.6729 2.8915C11.9068 2.99443 12.1347 3.11074 12.3554 3.23984C12.5611 3.35885 12.7601 3.48933 12.9512 3.63067L14.4829 3.14317C14.8559 3.02456 15.2613 3.18164 15.457 3.52067L16.9737 6.14817C17.1674 6.48774 17.1006 6.9161 16.8129 7.18067L15.6254 8.264C15.6794 8.75475 15.6794 9.24993 15.6254 9.74067L16.8129 10.824C17.1006 11.0886 17.1674 11.5169 16.9737 11.8565L15.457 14.484C15.2613 14.823 14.8559 14.9801 14.4829 14.8615L12.9512 14.374C12.7574 14.5168 12.556 14.6489 12.3479 14.7698C12.1294 14.8964 11.904 15.0108 11.6729 15.1123L11.3295 16.6782C11.2458 17.0604 10.9075 17.3328 10.5162 17.3332ZM5.34953 12.524L6.03286 13.024C6.1869 13.1375 6.34745 13.2418 6.51369 13.3365C6.67011 13.4271 6.83116 13.5094 6.99619 13.5832L7.77369 13.924L8.15453 15.6665H9.84619L10.227 13.9232L11.0045 13.5823C11.3439 13.4327 11.6661 13.2466 11.9654 13.0273L12.6495 12.5273L14.3504 13.069L15.1962 11.604L13.877 10.4015L13.9704 9.55817C14.0114 9.18931 14.0114 8.81704 13.9704 8.44817L13.877 7.60484L15.197 6.39984L14.3504 4.934L12.6495 5.47567L11.9654 4.97567C11.666 4.75543 11.3439 4.56797 11.0045 4.4165L10.227 4.07567L9.84619 2.33317H8.15453L7.77203 4.0765L6.99619 4.4165C6.83103 4.48904 6.66996 4.57055 6.51369 4.66067C6.34847 4.75511 6.18877 4.85889 6.03536 4.9715L5.35119 5.4715L3.65119 4.92984L2.80369 6.39984L4.12286 7.60067L4.02953 8.44484C3.98853 8.8137 3.98853 9.18597 4.02953 9.55484L4.12286 10.3982L2.80369 11.6007L3.64953 13.0657L5.34953 12.524ZM8.99619 12.3332C7.15524 12.3332 5.66286 10.8408 5.66286 8.99984C5.66286 7.15889 7.15524 5.6665 8.99619 5.6665C10.8371 5.6665 12.3295 7.15889 12.3295 8.99984C12.3272 10.8398 10.8362 12.3309 8.99619 12.3332ZM8.99619 7.33317C8.08569 7.33409 7.34443 8.06554 7.33139 8.97595C7.31834 9.88636 8.03833 10.6388 8.94843 10.6658C9.85854 10.6928 10.6219 9.98442 10.6629 9.07484V9.40817V8.99984C10.6629 8.07936 9.91667 7.33317 8.99619 7.33317Z" fill="#616161"/>
</svg>
