<svg width="14" height="14" viewBox="0 0 14 14" fill="none" xmlns="http://www.w3.org/2000/svg">
<path d="M7 0C4.85567 0 3.11111 1.65274 3.11111 3.68421C3.11111 5.71568 4.85567 7.36842 7 7.36842C9.14433 7.36842 10.8889 5.71568 10.8889 3.68421C10.8889 1.65274 9.14433 0 7 0ZM7 5.89474C5.71356 5.89474 4.66667 4.90295 4.66667 3.68421C4.66667 2.46547 5.71356 1.47368 7 1.47368C8.28644 1.47368 9.33333 2.46547 9.33333 3.68421C9.33333 4.90295 8.28644 5.89474 7 5.89474ZM14 14V13.2632C14 10.4197 11.557 8.10526 8.55556 8.10526H5.44444C2.44222 8.10526 0 10.4197 0 13.2632V14H1.55556V13.2632C1.55556 11.2317 3.30011 9.57895 5.44444 9.57895H8.55556C10.6999 9.57895 12.4444 11.2317 12.4444 13.2632V14H14Z" fill="#A4A4A4"/>
</svg>
