<svg width="13" height="18" viewBox="0 0 13 18" fill="none" xmlns="http://www.w3.org/2000/svg">
<path d="M3.6 16.2H9V18H3.6V16.2ZM10.7154 10.5408C11.6424 9.4554 12.6 8.3331 12.6 6.3C12.6 2.8269 9.7731 0 6.3 0C2.8269 0 0 2.8269 0 6.3C0 8.3565 0.9603 9.4752 1.8909 10.557C2.2131 10.9332 2.547 11.3229 2.8665 11.7711C2.9961 11.9565 3.2085 12.6675 3.3984 13.5L3.6 15.3C6 15.3 6.6 15.3 9 15.3L9.2034 13.5C9.3951 12.6657 9.6084 11.9529 9.7371 11.7675C10.0539 11.3148 10.3905 10.9215 10.7154 10.5408ZM8.2638 10.7325C7.8732 11.2878 7.5474 12.6 7.3584 13.5H5.2425C5.0544 12.5982 4.7277 11.2833 4.3326 10.728C3.9663 10.2132 3.5892 9.7731 3.2562 9.3852C2.3796 8.3646 1.8 7.6896 1.8 6.3C1.8 3.8187 3.8187 1.8 6.3 1.8C8.7813 1.8 10.8 3.8187 10.8 6.3C10.8 7.6689 10.2213 8.3466 9.3465 9.3717C9.0108 9.7659 8.6301 10.2114 8.2638 10.7325Z" fill="#0A4CEF"/>
</svg>
