<svg width="12" height="17" viewBox="0 0 12 17" fill="none" xmlns="http://www.w3.org/2000/svg">
<path d="M8.49935 17.3332H3.49935V15.6665H8.49935V17.3332ZM8.49935 14.8332H3.49935L3.31352 13.1665C3.21354 12.6152 3.04821 12.0778 2.82102 11.5657C2.52602 11.149 2.21852 10.7932 1.92102 10.4457C0.827778 9.42093 0.194892 7.99798 0.166016 6.49984C0.166016 3.27818 2.77769 0.666504 5.99935 0.666504C9.22101 0.666504 11.8327 3.27818 11.8327 6.49984C11.7988 7.98884 11.1708 9.40243 10.0885 10.4257L10.0744 10.4423C9.77768 10.7898 9.47102 11.1498 9.18185 11.5623C8.95486 12.0759 8.789 12.6143 8.68768 13.1665L8.49935 14.8332ZM5.99935 2.33317C3.69931 2.33593 1.83544 4.19979 1.83268 6.49984C1.83268 7.78651 2.36935 8.41067 3.18102 9.35651C3.48935 9.71651 3.83935 10.1232 4.18102 10.599C4.59566 11.4047 4.87895 12.2715 5.02018 13.1665H6.97935C7.12423 12.274 7.40705 11.4095 7.81768 10.604C8.15102 10.1282 8.50018 9.71901 8.80768 9.359L8.82018 9.34401C9.63018 8.39401 10.166 7.76651 10.166 6.49984C10.1633 4.19979 8.29939 2.33593 5.99935 2.33317Z" fill="#616161"/>
</svg>
