<svg width="18" height="18" viewBox="0 0 18 18" fill="none" xmlns="http://www.w3.org/2000/svg">
<path fill-rule="evenodd" clip-rule="evenodd" d="M0 9C0 4.032 4.032 0 9 0C13.968 0 18 4.032 18 9C18 13.968 13.968 18 9 18C4.032 18 0 13.968 0 9ZM9.9 12.6V14.4H8.1V12.6H9.9ZM9 16.2C5.031 16.2 1.8 12.969 1.8 9C1.8 5.031 5.031 1.8 9 1.8C12.969 1.8 16.2 5.031 16.2 9C16.2 12.969 12.969 16.2 9 16.2ZM5.4 7.2C5.4 5.211 7.011 3.6 9 3.6C10.989 3.6 12.6 5.211 12.6 7.2C12.6 8.35463 11.889 8.97599 11.1967 9.58099C10.5399 10.1549 9.9 10.7142 9.9 11.7H8.1C8.1 10.0609 8.94791 9.41093 9.6934 8.83951C10.2782 8.39125 10.8 7.99129 10.8 7.2C10.8 6.21 9.99 5.4 9 5.4C8.01 5.4 7.2 6.21 7.2 7.2H5.4Z" fill="#37352F"/>
</svg>
