<svg width="18" height="18" viewBox="0 0 18 18" fill="none" xmlns="http://www.w3.org/2000/svg">
<path d="M8.99935 17.3332C4.39907 17.3281 0.671068 13.6001 0.666016 8.99985V8.83319C0.757625 4.25363 4.52817 0.606482 9.10824 0.667252C13.6883 0.728022 17.3608 4.47392 17.3308 9.0543C17.3009 13.6347 13.5798 17.3323 8.99935 17.3332ZM8.98602 15.6665H8.99935C12.6799 15.6628 15.6612 12.6771 15.6594 8.99652C15.6575 5.31593 12.6733 2.33319 8.99268 2.33319C5.31209 2.33319 2.32786 5.31593 2.32602 8.99652C2.32418 12.6771 5.30542 15.6628 8.98602 15.6665ZM9.83268 13.9999H8.16602V12.3332H9.83268V13.9999ZM9.83268 11.4999H8.16602C8.13968 10.4146 8.70446 9.40051 9.64102 8.85152C10.191 8.42985 10.666 8.06652 10.666 7.33319C10.666 6.41271 9.91982 5.66652 8.99935 5.66652C8.07887 5.66652 7.33268 6.41271 7.33268 7.33319H5.66602V7.25818C5.67941 6.0673 6.32712 4.97402 7.36516 4.39018C8.40319 3.80634 9.67385 3.82064 10.6985 4.42768C11.7231 5.03473 12.3461 6.1423 12.3327 7.33319C12.273 8.23237 11.7907 9.05007 11.0327 9.53735C10.3474 9.96751 9.9033 10.6939 9.83268 11.4999Z" fill="#616161"/>
</svg>
