<svg width="14" height="17" viewBox="0 0 14 17" fill="none" xmlns="http://www.w3.org/2000/svg">
<path d="M2.83398 4.66667C2.83398 2.36548 4.69946 0.5 7.00065 0.5C9.30183 0.5 11.1673 2.36548 11.1673 4.66667C11.1673 6.96785 9.30183 8.83333 7.00065 8.83333C4.69946 8.83333 2.83398 6.96785 2.83398 4.66667ZM7.00065 7.16667C8.38136 7.16667 9.50065 6.04738 9.50065 4.66667C9.50065 3.28596 8.38136 2.16667 7.00065 2.16667C5.61994 2.16667 4.50065 3.28596 4.50065 4.66667C4.50065 6.04738 5.61994 7.16667 7.00065 7.16667Z" fill="#616161"/>
<path d="M2.28661 11.6193C1.03636 12.8695 0.333984 14.5652 0.333984 16.3333H2.00065C2.00065 15.0073 2.52743 13.7355 3.46512 12.7978C4.4028 11.8601 5.67457 11.3333 7.00065 11.3333C8.32673 11.3333 9.5985 11.8601 10.5362 12.7978C11.4739 13.7355 12.0006 15.0073 12.0006 16.3333H13.6673C13.6673 14.5652 12.9649 12.8695 11.7147 11.6193C10.4645 10.369 8.76876 9.66667 7.00065 9.66667C5.23254 9.66667 3.53685 10.369 2.28661 11.6193Z" fill="#616161"/>
</svg>
