<svg width="40" height="50" viewBox="0 0 40 50" fill="none" xmlns="http://www.w3.org/2000/svg">
<path d="M20 50C17.2401 49.9865 15.0023 47.7598 14.975 45H24.975C24.9803 45.6684 24.8528 46.3312 24.6 46.95C23.9441 48.455 22.6045 49.5527 21 49.9H20.9875H20.95H20.905H20.8825C20.592 49.9605 20.2966 49.994 20 50ZM40 42.5H0V37.5L5 35V21.25C4.86829 17.7228 5.66484 14.2228 7.31 11.1C8.94759 8.20378 11.7467 6.14719 15 5.45V0H25V5.45C31.4475 6.985 35 12.595 35 21.25V35L40 37.5V42.5Z" fill="#37352F" fill-opacity="0.7"/>
</svg>
