<svg width="18" height="18" viewBox="0 0 18 18" fill="none" xmlns="http://www.w3.org/2000/svg">
<path d="M9 0C6.243 0 4 2.12495 4 4.73684C4 7.34874 6.243 9.47368 9 9.47368C11.757 9.47368 14 7.34874 14 4.73684C14 2.12495 11.757 0 9 0ZM9 7.57895C7.346 7.57895 6 6.30379 6 4.73684C6 3.16989 7.346 1.89474 9 1.89474C10.654 1.89474 12 3.16989 12 4.73684C12 6.30379 10.654 7.57895 9 7.57895ZM18 18V17.0526C18 13.3967 14.859 10.4211 11 10.4211H7C3.14 10.4211 0 13.3967 0 17.0526V18H2V17.0526C2 14.4407 4.243 12.3158 7 12.3158H11C13.757 12.3158 16 14.4407 16 17.0526V18H18Z" fill="#0A4CEF"/>
</svg>
