<svg width="14" height="14" viewBox="0 0 14 14" fill="none" xmlns="http://www.w3.org/2000/svg">
<path d="M2.08463 2.08456C3.38827 0.780924 5.15638 0.048548 7 0.048548C8.84362 0.048548 10.6117 0.780924 11.9154 2.08456C13.219 3.3882 13.9514 5.15631 13.9514 6.99994C13.9514 8.84356 13.219 10.6117 11.9154 11.9153C10.6117 13.2189 8.84362 13.9513 7 13.9513C5.15638 13.9513 3.38827 13.2189 2.08463 11.9153C0.78099 10.6117 0.0486141 8.84356 0.0486139 6.99994C0.0486138 5.15631 0.78099 3.3882 2.08463 2.08456ZM3.6658 11.3653C4.7232 12.173 6.03779 12.5693 7.36539 12.4808C8.69299 12.3923 9.94334 11.8249 10.8842 10.8841C11.825 9.94327 12.3924 8.69293 12.4809 7.36533C12.5694 6.03773 12.173 4.72313 11.3654 3.66573L3.6658 11.3653ZM10 2.5C8.9426 1.69238 7.96221 1.43054 6.63461 1.51905C5.30701 1.60755 4.05666 2.17492 3.11582 3.11576C2.17499 4.0566 1.60762 5.30694 1.51911 6.63454C1.43061 7.96214 1.69238 8.9426 2.5 10L10 2.5Z" fill="#F13437"/>
</svg>
