<svg width="48" height="48" viewBox="0 0 48 48" fill="none" xmlns="http://www.w3.org/2000/svg">
<path d="M39.8613 35.556C39.8653 35.9333 39.768 36.4267 39.6667 36.8333C38.9587 39.6933 35.8147 42.9027 31.3893 42.6107C27.3787 42.3467 24.112 40.4213 24.112 37.7213C24.112 35.0213 27.3707 32.832 31.3893 32.832C35.408 32.832 39.836 32.856 39.8613 35.556Z" fill="#EA596E"/>
<path d="M31.3893 33.2853C29.2307 33.2853 24.304 33.8827 23.1733 33.8827C21.176 33.8827 19.556 35.136 19.556 36.6827C19.556 37.4267 19.9373 38.0987 20.548 38.6C20.548 38.6 21.8893 39.9453 24.3053 39.3C25.3627 39.0173 27.0827 36.9187 30.1107 36.5853C31.6187 36.4187 34.444 37.5853 39.4093 37.6133C39.6227 37.1547 39.6667 36.836 39.6667 36.836C39.6667 34.1333 35.408 33.2853 31.3893 33.2853Z" fill="#DD2E44"/>
<path d="M39.6667 36.8333C39.6667 36.8333 42.5787 36.2427 44.3894 33.8613C46.5 31.084 46.2227 28.112 46.2227 28.112C48.3614 24.112 45.556 20.3613 45.556 20.3613C45.2774 16.1387 42.6667 14.3893 42.6667 14.3893C40.972 10.3613 37.2227 9.27866 37.2227 9.27866C34.2787 5.83466 29.056 5.94533 29.056 5.94533C29.056 5.94533 24.1627 4.152 17.4454 6.168C16.3347 6.50133 12.612 7.27866 9.88935 8.94533C1.30802 14.1987 0.658684 22.3907 0.778684 23.7227C1.44402 31.1667 6.66668 32.5 10 33.2773C10.7774 35.388 13.6387 39.2773 18.7774 37.8333C25.1107 36.7227 27.7774 34.8333 29.3334 34.8333C30.8894 34.8333 35.2227 36.5 39.6667 36.8333Z" fill="#F4ABBA"/>
<path d="M23.6493 24.864C26.7533 23.1907 28.436 23.3467 29.9213 23.4813C30.3933 23.524 30.84 23.5573 31.292 23.5547C33.9373 23.4947 36.08 22.38 37.028 21.3013C37.2707 21.024 37.2427 20.604 36.9667 20.36C36.692 20.1173 36.272 20.1427 36.0253 20.42C35.2947 21.252 33.4933 22.1707 31.2613 22.2213C30.8613 22.2333 30.46 22.1933 30.044 22.1547C28.4507 22.0067 26.472 21.8253 23.016 23.6907C22.1293 24.1693 20.9133 24.3467 19.596 24.48C16.6667 20.252 18.4293 16.5693 18.9333 15.692C18.9827 15.6947 19.0307 15.7107 19.0813 15.7107C19.6147 15.7107 20.1507 15.58 20.636 15.3053C20.956 15.124 21.0693 14.7173 20.888 14.3973C20.7067 14.0773 20.3 13.964 19.98 14.1453C19.1267 14.628 18.004 14.3493 17.4733 13.5227C17.2747 13.212 16.8627 13.1213 16.5533 13.3213C16.244 13.52 16.1533 13.932 16.352 14.2413C16.668 14.736 17.1133 15.108 17.616 15.3573C16.9213 16.768 15.6027 20.4773 18.112 24.6253C16.3467 24.7987 14.5787 25.048 13.1947 25.94C12.3013 26.516 11.388 27.3587 10.6907 28.328C9.852 28.184 6.78134 27.428 6.24534 24.02C6.57867 23.7613 6.84801 23.42 7.01467 22.9987C7.15067 22.656 6.98267 22.2693 6.64 22.1333C6.29734 21.9973 5.91067 22.1653 5.77467 22.508C5.656 22.808 5.44134 23.0267 5.16934 23.1227C4.90001 23.2187 4.59467 23.1867 4.31201 23.0293C3.98801 22.8493 3.58401 22.968 3.40534 23.288C3.22667 23.6093 3.34267 24.016 3.66401 24.1947C4.04267 24.4053 4.44801 24.512 4.85067 24.512C4.9 24.512 4.94667 24.4893 4.996 24.4867C5.63067 27.704 8.17334 29.1173 9.972 29.5453C9.73734 30.0627 9.57867 30.596 9.53067 31.1347C9.49867 31.5 9.76934 31.8253 10.136 31.8573L10.196 31.86C10.5373 31.86 10.8293 31.6 10.86 31.252C11.004 29.6347 12.5467 27.9453 13.9173 27.0587C15.2027 26.2307 17.084 26.056 18.9053 25.8867C20.672 25.7253 22.3413 25.5707 23.6493 24.864ZM40.804 22.8587C40.6293 23.1813 40.7493 23.5867 41.0707 23.7613C41.172 23.8173 41.2827 23.844 41.3907 23.844C41.6253 23.844 41.8533 23.72 41.9747 23.4987C42 23.4533 44.4307 18.9 39.88 15.84C39.576 15.6373 39.1613 15.716 38.9547 16.0213C38.7493 16.3267 38.8307 16.7413 39.136 16.9467C42.6613 19.3173 40.8813 22.7147 40.804 22.8587ZM13.168 12.0933C13.376 12.0933 13.58 11.9973 13.7093 11.816C15.6427 9.12667 18.32 10.0467 18.4333 10.0893C18.7787 10.2147 19.1587 10.0387 19.2867 9.69467C19.4147 9.34934 19.2387 8.96667 18.8933 8.83867C17.6133 8.364 14.6573 8.21467 12.6267 11.0387C12.412 11.336 12.48 11.7533 12.7787 11.968C12.8973 12.0533 13.0333 12.0933 13.168 12.0933ZM30.5973 9.576C33.564 9.33467 34.9133 11.4853 34.9747 11.5867C35.1 11.7973 35.3213 11.9147 35.5493 11.9147C35.664 11.9147 35.7813 11.8853 35.8867 11.8227C36.204 11.636 36.3107 11.228 36.1253 10.9107C36.0533 10.7893 34.3387 7.95334 30.4933 8.24667C30.1267 8.27467 29.8533 8.596 29.8813 8.964C29.9107 9.33067 30.2427 9.60934 30.5973 9.576ZM42.7973 29.0573C42.4693 29.0387 42.108 29.2987 42.0787 29.6667C42.076 29.6907 41.864 31.9587 39.532 32.7253C39.1827 32.84 38.992 33.216 39.108 33.5667C39.1987 33.8467 39.4613 34.0253 39.7413 34.0253C39.8107 34.0253 39.88 34.0147 39.9493 33.992C43.112 32.9547 43.3973 29.9067 43.408 29.7773C43.436 29.4093 43.164 29.0867 42.7973 29.0573Z" fill="#EA596E"/>
<path d="M9.79602 22.5787C9.70002 22.9347 9.91069 23.3 10.2667 23.396C10.324 23.412 10.3827 23.4187 10.44 23.4187C10.7347 23.4187 11.0027 23.2227 11.0827 22.9253C11.336 21.9773 12.3187 21.3693 13.2854 21.5733C13.6467 21.6467 13.9987 21.4187 14.0747 21.0573C14.1507 20.6973 13.92 20.344 13.5587 20.268C12.9907 20.148 12.42 20.204 11.8947 20.3827C10.34 17.724 10.6427 15.1027 10.6467 15.0747C10.6947 14.7107 10.4387 14.376 10.0747 14.3253C9.71202 14.2813 9.37602 14.5307 9.32535 14.8947C9.30802 15.024 8.95202 17.9827 10.7427 21.0467C10.2974 21.448 9.95869 21.972 9.79602 22.5787ZM24.7014 19.2853C25.244 18.7827 26.1147 18.792 26.6414 19.3053C26.772 19.4307 26.9387 19.4933 27.1067 19.4933C27.2814 19.4933 27.4547 19.4253 27.584 19.2907C27.84 19.0267 27.8347 18.604 27.5707 18.348C27.264 18.0507 26.8974 17.852 26.508 17.728C26.9027 16.3733 26.7467 15.772 26.38 14.6453C26.316 14.4493 26.2454 14.2307 26.1707 13.9813L26.1307 13.848C25.6454 12.2373 25.324 11.1747 26.2467 9.67467C26.44 9.36133 26.3414 8.95067 26.028 8.75733C25.72 8.56533 25.3054 8.66 25.1107 8.976C23.8734 10.9867 24.328 12.492 24.8547 14.2347L24.8947 14.368C24.9734 14.6267 25.0454 14.8533 25.112 15.0573C25.4414 16.072 25.5414 16.412 25.1387 17.6387C24.6467 17.7307 24.176 17.9533 23.792 18.3107C23.5227 18.5613 23.508 18.984 23.7587 19.2533C24.0107 19.5227 24.4334 19.536 24.7014 19.2853ZM33.188 15.3053C33.576 15.3053 33.968 15.224 34.3333 15.0507C34.6667 14.8933 34.8094 14.496 34.652 14.1627C34.496 13.8293 34.0933 13.6907 33.7653 13.844C33.096 14.1587 32.2707 13.8853 31.92 13.2347C31.7454 12.9093 31.3387 12.7907 31.0174 12.9613C30.6934 13.1347 30.5707 13.54 30.7453 13.864C30.9853 14.312 31.3427 14.6653 31.7587 14.9107C31.0427 16.6507 31.4494 18.4987 31.7814 19.4787C31.8747 19.7573 32.1347 19.932 32.4133 19.932C32.484 19.932 32.5547 19.9213 32.6267 19.8973C32.976 19.78 33.1627 19.4013 33.044 19.0533C32.82 18.3893 32.3854 16.712 33.0413 15.2853C33.092 15.288 33.1387 15.3053 33.188 15.3053ZM39.584 27.8773C39.5587 27.5107 39.2413 27.2213 38.876 27.2547C37.524 27.3507 36.372 26.3253 36.28 24.984C36.2533 24.6173 35.9267 24.344 35.5693 24.364C35.2027 24.3893 34.9254 24.708 34.9494 25.0747C35.004 25.8613 35.304 26.5707 35.76 27.148C34.688 28.4093 33.284 28.768 32.5014 28.86C31.8093 28.9427 31.204 28.872 30.504 28.7893C29.8627 28.716 29.1374 28.632 28.24 28.6587L28.2334 28.66C28.2067 28.2787 28.116 27.7227 27.8267 27.26C27.632 26.9493 27.22 26.8547 26.908 27.0493C26.5974 27.244 26.5014 27.656 26.6974 27.968C26.876 28.2547 26.9094 28.712 26.9094 28.9347C26.2374 29.176 25.656 29.5307 25.1307 29.8733C24.192 30.484 23.452 30.9667 22.3387 30.716C21.3307 30.4853 20.3214 30.4387 19.4654 30.5587C19.332 30.224 19.1214 29.824 18.796 29.516C18.528 29.2627 18.1067 29.2733 17.8534 29.5427C17.6014 29.8093 17.612 30.232 17.88 30.4853C17.9947 30.5933 18.0854 30.7507 18.1587 30.908C16.688 31.5133 15.9507 32.5253 15.916 32.5747C15.7027 32.8733 15.7734 33.2853 16.0694 33.5C16.1867 33.584 16.3227 33.6253 16.4587 33.6253C16.6654 33.6253 16.8694 33.5307 17 33.352C17.0067 33.3413 17.7387 32.3613 19.1827 31.9653C19.9294 31.76 21 31.7773 22.044 32.0147C22.336 32.0813 22.6067 32.104 22.8694 32.108C22.9934 32.3987 23.0414 32.744 23.048 32.872C23.0694 33.2267 23.3627 33.5013 23.7134 33.5013L23.7494 33.5C24.116 33.48 24.3974 33.1693 24.38 32.8027C24.376 32.736 24.3494 32.3413 24.2067 31.888C24.8214 31.6653 25.356 31.3173 25.8587 30.9907C26.6214 30.4933 27.3427 30.0227 28.2854 29.992C29.0747 29.964 29.7254 30.04 30.3534 30.1133C30.9854 30.1867 31.6067 30.2347 32.292 30.1947C32.4133 30.532 32.404 30.9827 32.3853 31.1333C32.3414 31.4973 32.5987 31.8307 32.964 31.8787C32.992 31.8827 33.02 31.884 33.048 31.884C33.3773 31.884 33.664 31.64 33.708 31.304C33.7187 31.2213 33.7867 30.6213 33.6294 29.996C34.5867 29.7387 35.7733 29.18 36.756 28.0347C37.3307 28.3867 38.0013 28.5933 38.7147 28.5933C38.7973 28.5933 38.8813 28.5907 38.964 28.5853C39.3307 28.5613 39.608 28.2453 39.584 27.8773Z" fill="#EA596E"/>
</svg>
