<svg width="95" height="96" viewBox="0 0 95 96" fill="none" xmlns="http://www.w3.org/2000/svg">
<path d="M68.8566 12.2986C67.5424 13.6266 67.1967 14.5359 66.9355 15.0426C65.1938 18.4186 63.0959 19.5119 59.5994 15.9786C59.2563 15.6319 48.8142 4.59989 47.0884 2.59989C45.9616 1.29322 44.2357 0.893222 42.9084 1.90122C41.9056 2.66389 32.2605 10.6292 29.6216 13.9199C27.5791 16.4666 27.5105 19.6106 29.4131 21.5359C30.2734 22.4052 31.3316 22.7332 32.4505 23.0772C33.9071 23.5279 37.1028 23.2586 38.9685 25.1439C41.9584 28.1652 40.3935 32.9412 36.5487 36.9332C32.5982 40.8186 27.872 42.3999 24.8821 39.3786C23.0138 37.4906 23.283 34.2639 22.837 32.7919C22.4966 31.6612 22.172 30.5946 21.3117 29.7226C19.4091 27.7999 16.2978 27.8719 13.7751 29.9332C10.516 32.5999 2.6363 42.3466 1.88158 43.3599C0.88144 44.7012 1.27991 46.4426 2.57297 47.5839C4.55213 49.3279 15.4692 59.8799 15.8123 60.2266C19.3062 63.7572 18.2269 65.8799 14.886 67.6399C14.3846 67.9039 13.4874 68.2506 12.1706 69.5812C8.31255 73.4799 8.31255 79.8026 12.1706 83.7012C16.0287 87.5999 22.2855 87.5999 26.1435 83.7012C27.4577 82.3732 27.8034 81.4639 28.0646 80.9572C29.8063 77.5812 31.9042 76.4879 35.4007 80.0212C35.7438 80.3679 46.1859 91.3999 47.9117 93.3999C49.0385 94.7066 50.7644 95.1066 52.0917 94.0986C53.0945 93.3359 62.7396 85.3706 65.3785 82.0799C67.421 79.5332 67.4896 76.3892 65.587 74.4639C64.7267 73.5946 63.6685 73.2666 62.5496 72.9226C61.093 72.4719 57.8973 72.7412 56.0316 70.8559C53.0417 67.8346 54.6066 63.0586 58.4514 59.0666C62.4019 55.1812 67.1281 53.5999 70.118 56.6212C71.9863 58.5092 71.7171 61.7359 72.1631 63.2079C72.5035 64.3386 72.8281 65.4052 73.6884 66.2772C75.591 68.1999 78.7023 68.1279 81.2251 66.0666C84.4841 63.3999 92.3638 53.6532 93.1185 52.6399C94.1187 51.2986 93.7202 49.5572 92.4271 48.4159C90.448 46.6719 79.5309 36.1199 79.1878 35.7732C75.6939 32.2426 76.7732 30.1199 80.1141 28.3599C80.6155 28.0959 81.5127 27.7492 82.8295 26.4186C86.6876 22.5199 86.6876 16.1972 82.8295 12.2986C78.9714 8.39722 72.7146 8.39722 68.8566 12.2986Z" fill="#5DA9E9"/>
</svg>
