<svg width="50" height="50" viewBox="0 0 50 50" fill="none" xmlns="http://www.w3.org/2000/svg">
<path d="M43.0555 44.4444C43.0555 47.5125 40.5681 50 37.5 50H6.94444C3.87639 50 1.38889 47.5125 1.38889 44.4444V5.55556C1.38889 2.4875 3.87639 0 6.94444 0H37.5C40.5681 0 43.0555 2.4875 43.0555 5.55556V44.4444Z" fill="#CCD6DD"/>
<path d="M37.5 33.3333C37.5 34.1014 36.8792 34.7222 36.1111 34.7222H8.33333C7.56666 34.7222 6.94444 34.1014 6.94444 33.3333C6.94444 32.5653 7.56666 31.9444 8.33333 31.9444H36.1111C36.8792 31.9444 37.5 32.5653 37.5 33.3333ZM15.2778 38.8889C15.2778 39.6569 14.6556 40.2778 13.8889 40.2778H8.33333C7.56666 40.2778 6.94444 39.6569 6.94444 38.8889C6.94444 38.1208 7.56666 37.5 8.33333 37.5H13.8889C14.6556 37.5 15.2778 38.1208 15.2778 38.8889ZM37.5 11.1111C37.5 11.8778 36.8792 12.5 36.1111 12.5H8.33333C7.56666 12.5 6.94444 11.8778 6.94444 11.1111C6.94444 10.3444 7.56666 9.72222 8.33333 9.72222H36.1111C36.8792 9.72222 37.5 10.3444 37.5 11.1111ZM37.5 16.6667C37.5 17.4347 36.8792 18.0556 36.1111 18.0556H8.33333C7.56666 18.0556 6.94444 17.4347 6.94444 16.6667C6.94444 15.8986 7.56666 15.2778 8.33333 15.2778H36.1111C36.8792 15.2778 37.5 15.8986 37.5 16.6667ZM37.5 22.2222C37.5 22.9903 36.8792 23.6111 36.1111 23.6111H8.33333C7.56666 23.6111 6.94444 22.9903 6.94444 22.2222C6.94444 21.4542 7.56666 20.8333 8.33333 20.8333H36.1111C36.8792 20.8333 37.5 21.4542 37.5 22.2222ZM37.5 27.7778C37.5 28.5458 36.8792 29.1667 36.1111 29.1667H8.33333C7.56666 29.1667 6.94444 28.5458 6.94444 27.7778C6.94444 27.0097 7.56666 26.3889 8.33333 26.3889H36.1111C36.8792 26.3889 37.5 27.0097 37.5 27.7778Z" fill="#99AAB5"/>
<path d="M43.0556 8.71111C41.9069 7.96805 40.5042 7.90694 39.5542 8.67917L38.4542 9.57639L36.3931 11.2583L36.2542 11.3694L32.9542 14.0611L16.4569 27.5139C15.85 28.0097 15.3556 29.2069 14.8278 30.3944C14.3028 31.575 13.4819 34.3556 12.8236 36.4931C12.6181 36.8403 11.3444 39.0569 12.0583 39.9C12.7806 40.7542 15.2889 39.9139 15.625 39.7944C17.8833 39.5528 20.8069 39.2764 22.0806 38.9889C23.3639 38.6958 24.6556 38.4403 25.2625 37.9444C25.2736 37.9361 25.2764 37.9194 25.2861 37.9125L41.7556 24.4875L42.8556 23.5903L43.0556 23.4264V8.71111Z" fill="#66757F"/>
<path d="M25.2014 31.2861C25.2014 31.2861 23.4319 28.6736 22.2611 27.7403C21.3278 26.5694 18.7208 24.8014 18.7208 24.8014C18.0986 24.1819 17.0667 24.1347 16.4583 24.7417C15.8514 25.35 15.3569 26.6389 14.8292 27.9236C14.1736 29.5153 13.0569 33.6931 12.3736 35.9125C12.2583 36.2903 13.0917 35.2875 13.0722 35.6208C13.0583 35.8806 13.1097 36.1681 13.175 36.4278L12.9722 36.6486L13.2611 36.7417C13.2958 36.8556 13.3306 36.9556 13.3555 37.0333L13.5764 36.8306C13.8361 36.8958 14.1236 36.9472 14.3819 36.9333C14.7153 36.9139 13.7111 37.7486 14.0903 37.6319C16.3097 36.9472 20.4889 35.8319 22.0792 35.1764C23.3625 34.6472 24.6542 34.1542 25.2611 33.5458C25.8708 32.9417 25.825 31.9097 25.2014 31.2861Z" fill="#D99E82"/>
<path d="M35.1556 6.04306C33.9389 7.25833 33.9389 9.22778 35.1556 10.4431L39.5542 14.8431C40.7708 16.0569 42.7403 16.0569 43.9542 14.8431L48.3556 10.4431C49.5694 9.22778 49.5694 7.25833 48.3556 6.04306L43.9542 1.64306C42.7403 0.427778 40.7708 0.427778 39.5542 1.64306L35.1556 6.04306Z" fill="#EA596E"/>
<path d="M16.4569 24.7431L20.8597 29.1458L25.2555 33.5431L41.7569 17.0444L32.9555 8.24445L16.4569 24.7431Z" fill="#FFCC4D"/>
<path d="M15.6917 37.1417C15.6917 37.1417 12.8306 38.7153 12.0583 37.9417C11.2847 37.1667 12.8653 34.3153 12.8653 34.3153C12.8653 34.3153 15.575 34.3653 15.6917 37.1417Z" fill="#292F33"/>
<path d="M32.9556 8.24306L38.4556 2.74306L47.2556 11.5444L41.7556 17.0444L32.9556 8.24306Z" fill="#CCD6DD"/>
<path d="M36.2542 4.94167L37.3542 3.84167L46.1542 12.6403L45.0542 13.7403L36.2542 4.94167ZM34.0556 7.14167L35.1542 6.04306L43.9542 14.8417L42.8542 15.9417L34.0556 7.14167Z" fill="#99AAB5"/>
</svg>
