<svg width="259" height="192" viewBox="0 0 259 192" fill="none" xmlns="http://www.w3.org/2000/svg">
<g clip-path="url(#clip0)">
<path d="M228.667 38.2786L69.467 5.88902C53.4808 2.63661 37.8849 12.9593 34.6325 28.9455L16.9654 115.782C13.713 131.768 24.0357 147.364 40.0218 150.616L199.222 183.006C215.208 186.258 230.804 175.936 234.056 159.95L251.723 73.1131C254.976 57.127 244.653 41.5311 228.667 38.2786Z" fill="#555BEA"/>
<path d="M192 22.1523H29.5385C13.2248 22.1523 0 35.3772 0 51.6908V140.306C0 156.62 13.2248 169.845 29.5385 169.845H192C208.314 169.845 221.538 156.62 221.538 140.306V51.6908C221.538 35.3772 208.314 22.1523 192 22.1523Z" fill="#E0E1FF"/>
<path d="M110.77 54.1533C135.24 54.1533 155.077 69.5824 155.077 88.6151C155.077 99.3671 148.741 108.967 138.822 115.286C140.111 120.969 143.117 129.4 150.154 137.846C135.981 135.483 126.918 128.588 121.315 122.053C117.928 122.697 114.41 123.077 110.77 123.077C86.2996 123.077 66.4619 107.647 66.4619 88.6151C66.4619 69.5824 86.2996 54.1533 110.77 54.1533Z" fill="#A0A3F3"/>
</g>
<defs>
<clipPath id="clip0">
<rect width="258.462" height="192" fill="white"/>
</clipPath>
</defs>
</svg>
