<svg width="47" height="48" viewBox="0 0 47 48" fill="none" xmlns="http://www.w3.org/2000/svg">
<g clip-path="url(#clip0)">
<path d="M18.2564 25.4695C13.9349 25.4695 10.4322 29.0522 10.4322 33.4695C10.4322 37.8868 13.9349 41.4695 18.2564 41.4695C22.578 41.4695 26.0806 37.8868 26.0806 33.4695C26.0806 29.0522 22.5767 25.4695 18.2564 25.4695ZM18.2564 38.8028C15.3758 38.8028 13.0403 36.4148 13.0403 33.4695C13.0403 30.5242 15.3758 28.1362 18.2564 28.1362C21.137 28.1362 23.4725 30.5242 23.4725 33.4695C23.4725 36.4148 21.137 38.8028 18.2564 38.8028Z" fill="#3B88C3"/>
<path d="M2.32508 18.6973V18.724C1.01975 19.0173 0 21.252 0 24C0 26.748 1.01975 28.9827 2.32508 29.2747V29.3027L39.752 39.932V8.08533L2.32508 18.6973Z" fill="#55ACEE"/>
<path d="M40.7097 40C44.3107 40 47.2298 32.8366 47.2298 24C47.2298 15.1634 44.3107 8 40.7097 8C37.1087 8 34.1895 15.1634 34.1895 24C34.1895 32.8366 37.1087 40 40.7097 40Z" fill="#226699"/>
</g>
<defs>
<clipPath id="clip0">
<rect width="46.9451" height="48" fill="white"/>
</clipPath>
</defs>
</svg>
