<svg width="56" height="56" viewBox="0 0 56 56" fill="none" xmlns="http://www.w3.org/2000/svg">
<path d="M28 56C43.464 56 56 43.464 56 28C56 12.536 43.464 0 28 0C12.536 0 0 12.536 0 28C0 43.464 12.536 56 28 56Z" fill="#31373D"/>
<path d="M28 42C35.732 42 42 35.732 42 28C42 20.268 35.732 14 28 14C20.268 14 14 20.268 14 28C14 35.732 20.268 42 28 42Z" fill="#E1E8ED"/>
<path d="M21.3159 31.4269C21.3159 29.2398 22.5184 27.6267 24.2419 26.6964C22.957 25.7662 22.1637 24.5093 22.1637 22.7858C22.1637 19.586 24.8159 17.5358 28.0701 17.5358C31.2419 17.5358 34.003 19.5595 34.003 22.7858C34.003 24.3164 33.2377 25.8487 31.8968 26.6964C33.7557 27.6267 34.8228 29.3222 34.8228 31.4269C34.8228 35.2271 31.7335 37.6615 28.0686 37.6615C24.2964 37.6615 21.3159 35.0918 21.3159 31.4269ZM25.5813 31.1531C25.5813 32.5469 26.401 33.8878 28.0701 33.8878C29.6288 33.8878 30.559 32.5484 30.559 31.1531C30.559 29.4311 29.5744 28.4184 28.0701 28.4184C26.4835 28.42 25.5813 29.6224 25.5813 31.1531ZM26.1008 23.2244C26.1008 24.4549 26.8117 25.3027 28.0701 25.3027C29.3286 25.3027 30.0659 24.4549 30.0659 23.2244C30.0659 22.0484 29.355 21.1462 28.0701 21.1462C26.7853 21.1462 26.1008 22.0484 26.1008 23.2244Z" fill="#31373D"/>
</svg>
