<svg width="48" height="48" viewBox="0 0 48 48" fill="none" xmlns="http://www.w3.org/2000/svg">
<path d="M40.028 45.6853C37.944 47.7693 34.568 47.768 32.4867 45.6853L2.31467 15.5147C0.232 13.432 0.230667 10.056 2.31467 7.972L7.972 2.316C10.0547 0.233331 13.432 0.233331 15.5147 2.316L45.6827 32.4867C47.7653 34.5693 47.7653 37.948 45.684 40.028L40.028 45.6853Z" fill="#FFCC4D"/>
<path d="M12.6867 8.916C12.1653 9.436 11.3227 9.436 10.8013 8.916C10.2813 8.39467 10.2813 7.55067 10.8013 7.02933L15.516 2.31467L17.4013 4.20133L12.6867 8.916ZM20.228 10.8013C19.708 11.3227 18.8627 11.3227 18.3427 10.8013C17.8213 10.28 17.8213 9.436 18.3427 8.916L20.2293 7.02933L22.1147 8.916L20.228 10.8013ZM22.1147 18.3427C21.5933 18.864 20.7493 18.864 20.2293 18.3427C19.7093 17.8213 19.7093 16.9773 20.2293 16.4573L24.944 11.7427C25.592 12.3907 26.1827 12.98 26.8293 13.6293L22.1147 18.3427ZM29.656 20.228C29.136 20.7493 28.292 20.7493 27.772 20.228C27.2493 19.7067 27.2507 18.8627 27.772 18.3427L29.6573 16.456C30.304 17.1053 30.8947 17.6933 31.5427 18.3427L29.656 20.228ZM31.5427 27.7707C31.0213 28.292 30.1787 28.2933 29.6573 27.7707C29.136 27.2493 29.136 26.4067 29.656 25.8853L34.3707 21.172L36.256 23.0573L31.5427 27.7707ZM40.9707 37.1987C40.4507 37.72 39.6067 37.72 39.0867 37.1987C38.564 36.6773 38.564 35.8347 39.0853 35.3133L43.8 30.6L45.6853 32.4853L40.9707 37.1987ZM39.084 29.656C38.5627 30.1773 37.7213 30.1773 37.1987 29.6573C36.6773 29.136 36.6787 28.292 37.1987 27.772L39.0853 25.8867L40.9693 27.7707L39.084 29.656Z" fill="#292F33"/>
</svg>
