<svg width="48" height="48" viewBox="0 0 48 48" fill="none" xmlns="http://www.w3.org/2000/svg">
<g clip-path="url(#clip0)">
<path d="M6.83065 6.66666H14.8306C16.3026 6.66666 17.3333 6.528 17.3333 8V5.33333C17.3333 3.86133 16.3026 2.66666 14.8306 2.66666H4.16398C1.49731 2.66666 -0.613353 5.5 0.16398 9.33333C0.16398 9.33333 2.55198 21.8333 2.71998 22.6107C3.16398 24.6667 5.55198 26.6667 8.10798 26.6667H17.3853C18.8586 26.6667 17.3333 24.1387 17.3333 22.6667V20C17.3333 21.472 16.3026 22.6667 14.8306 22.6667H9.49731C8.02531 22.6667 7.05331 21.2773 6.83065 20C6.60798 18.7227 4.71865 10.2227 4.71865 10.2227C4.27465 7.66666 5.35731 6.66666 6.83065 6.66666ZM41.2466 6.66666H33.2466C31.7746 6.66666 29.3333 6.528 29.3333 8V5.33333C29.3333 3.86133 31.7746 2.66666 33.2466 2.66666H43.9133C46.58 2.66666 48.692 5.5 47.9133 9.33333C47.9133 9.33333 45.736 21.892 45.552 22.6667C45.08 24.6667 42.8293 26.6667 40.2186 26.6667H30.6906C29.2186 26.6667 29.3333 24.1387 29.3333 22.6667V20C29.3333 21.472 31.7746 22.6667 33.2466 22.6667H38.58C40.052 22.6667 41.0253 21.2773 41.2466 20C41.468 18.7227 43.3587 10.2227 43.3587 10.2227C43.8013 7.66666 42.72 6.66666 41.2466 6.66666ZM27.776 29.3333C27.776 20.056 24.164 29.3333 24.164 29.3333C24.164 29.3333 20.164 20.056 20.164 29.3333C20.164 38.6107 15.776 42.6667 15.776 42.6667H32.1653C32.164 42.6667 27.776 38.6107 27.776 29.3333Z" fill="#FFAC33"/>
<path d="M38.8306 8.76933C38.8306 17.8027 29.804 33.0253 24.164 33.0253C18.5226 33.0253 9.49731 17.8027 9.49731 8.76933C9.49731 1.84266 10.8306 0.343998 13.4973 0.343998C15.3293 0.343998 21.5306 0.307998 24.164 0.307998L33.4973 0.306665C37.3866 0.305332 38.8306 1.21866 38.8306 8.76933Z" fill="#FFCC4D"/>
<path d="M36 44C36 45.472 36.3027 46.6667 34.8307 46.6667H13.4973C12.024 46.6667 12 45.472 12 44V42.6667C12 41.1947 13.552 40 14.9413 40H33.4973C34.8867 40 36 41.1947 36 42.6667V44Z" fill="#C1694F"/>
<path d="M38.6667 46.1667C38.6667 47.18 38.8867 48 36.9973 48H11.3307C9.60801 48 9.33334 47.18 9.33334 46.1667V45.8333C9.33334 44.82 10.3173 44 11.3307 44H36.9973C38.0093 44 38.6667 44.82 38.6667 45.8333V46.1667Z" fill="#C1694F"/>
</g>
<defs>
<clipPath id="clip0">
<rect width="48" height="48" fill="white"/>
</clipPath>
</defs>
</svg>
