<svg width="36" height="36" viewBox="0 0 36 36" fill="none" xmlns="http://www.w3.org/2000/svg">
<path d="M26.093 4.612C25.595 5.11 25.464 5.451 25.365 5.641C24.705 6.907 23.91 7.317 22.585 5.992C22.455 5.862 18.498 1.725 17.844 0.975C17.417 0.485 16.763 0.335 16.26 0.713C15.88 0.999 12.225 3.986 11.225 5.22C10.451 6.175 10.425 7.354 11.146 8.076C11.472 8.402 11.873 8.525 12.297 8.654C12.849 8.823 14.06 8.722 14.767 9.429C15.9 10.562 15.307 12.353 13.85 13.85C12.353 15.307 10.562 15.9 9.429 14.767C8.721 14.059 8.823 12.849 8.654 12.297C8.525 11.873 8.402 11.473 8.076 11.146C7.355 10.425 6.176 10.452 5.22 11.225C3.985 12.225 0.998999 15.88 0.712999 16.26C0.333999 16.763 0.484999 17.416 0.974999 17.844C1.725 18.498 5.862 22.455 5.992 22.585C7.316 23.909 6.907 24.705 5.641 25.365C5.451 25.464 5.111 25.594 4.612 26.093C3.15 27.555 3.15 29.926 4.612 31.388C6.074 32.85 8.445 32.85 9.907 31.388C10.405 30.89 10.536 30.549 10.635 30.359C11.295 29.093 12.09 28.683 13.415 30.008C13.545 30.138 17.502 34.275 18.156 35.025C18.583 35.515 19.237 35.665 19.74 35.287C20.12 35.001 23.775 32.014 24.775 30.78C25.549 29.825 25.575 28.646 24.854 27.924C24.528 27.598 24.127 27.475 23.703 27.346C23.151 27.177 21.94 27.278 21.233 26.571C20.1 25.438 20.693 23.647 22.15 22.15C23.647 20.693 25.438 20.1 26.571 21.233C27.279 21.941 27.177 23.151 27.346 23.703C27.475 24.127 27.598 24.527 27.924 24.854C28.645 25.575 29.824 25.548 30.78 24.775C32.015 23.775 35.001 20.12 35.287 19.74C35.666 19.237 35.515 18.584 35.025 18.156C34.275 17.502 30.138 13.545 30.008 13.415C28.684 12.091 29.093 11.295 30.359 10.635C30.549 10.536 30.889 10.406 31.388 9.907C32.85 8.445 32.85 6.074 31.388 4.612C29.926 3.149 27.555 3.149 26.093 4.612Z" fill="#5DA9E9"/>
</svg>
