<svg width="48" height="48" viewBox="0 0 48 48" fill="none" xmlns="http://www.w3.org/2000/svg">
<path d="M22.6667 36C20.4573 36 18.6667 34.2093 18.6667 32V26.6667C18.6667 24.4573 20.4573 22.6667 22.6667 22.6667C23.4707 22.6587 30.6667 21.3333 30.6667 16C30.6667 13.3333 28 10.6667 24 10.6667C20.7453 10.6667 18.6667 13.3333 18.6667 14.6667C18.6667 16.876 16.876 18.6667 14.6667 18.6667C12.4573 18.6667 10.6667 16.876 10.6667 14.6667C10.6667 8.16266 16.7733 2.66666 24 2.66666C34.6667 2.66666 38.6667 10.6427 38.6667 17.3333C38.6667 22.86 35.6307 27.084 30.116 29.2267C28.916 29.6947 27.7293 30.0093 26.6667 30.2227V32C26.6667 34.2093 24.876 36 22.6667 36Z" fill="#BE1931"/>
<path d="M22.6667 46.6667C24.8758 46.6667 26.6667 44.8758 26.6667 42.6667C26.6667 40.4575 24.8758 38.6667 22.6667 38.6667C20.4575 38.6667 18.6667 40.4575 18.6667 42.6667C18.6667 44.8758 20.4575 46.6667 22.6667 46.6667Z" fill="#BE1931"/>
</svg>
