<svg width="50" height="50" viewBox="0 0 50 50" fill="none" xmlns="http://www.w3.org/2000/svg">
<path d="M5.55556 15.2778V15.4681C5.55556 15.4097 5.57083 15.3514 5.57639 15.2931L5.55556 15.2778ZM23.6111 30.7458C23.4083 30.6528 23.2125 30.5444 23.0389 30.4042L6.34028 17.0069C5.81667 16.5833 5.55556 16.0264 5.55556 15.4681V32.4653C5.55556 35.3014 7.07361 35.9153 7.07361 35.9153L23.1486 48.5528C23.4333 48.7764 23.6722 48.9125 23.8819 48.9944C23.7236 48.7528 23.6111 48.4736 23.6111 48.1556V30.7458ZM11.4264 31.25C10.0458 31.25 8.60278 29.8514 8.20556 28.125C7.80695 26.4 8.60417 25.0014 9.98334 25.0014C11.3639 25.0014 12.8069 26.4 13.2042 28.125C13.6028 29.8514 12.8069 31.25 11.4264 31.25ZM19.1806 41.6667C17.8 41.6667 16.3569 40.2667 15.9597 38.5417C15.5611 36.8153 16.3583 35.4167 17.7389 35.4167C19.1194 35.4167 20.5625 36.8153 20.9597 38.5417C21.3569 40.2667 20.5611 41.6667 19.1806 41.6667Z" fill="#A0041E"/>
<path d="M43.6597 16.8903L26.8486 30.4042C26.7069 30.5194 26.5514 30.6153 26.3889 30.6986V48.1556C26.3889 48.4792 26.2736 48.7625 26.1111 49.0083C26.3264 48.9278 26.5764 48.7861 26.8722 48.5528C29.4014 46.5639 42.9667 35.9153 42.9667 35.9153C42.9667 35.9153 44.4445 35.3014 44.4445 32.4653V15.3514C44.4445 15.9097 44.1833 16.4667 43.6597 16.8903ZM33.3028 40.1278C32.9667 41.7069 31.7486 42.9861 30.5833 42.9861C29.4194 42.9861 28.7472 41.7069 29.0833 40.1278C29.4194 38.5486 30.6361 37.2694 31.8014 37.2694C32.9667 37.2694 33.6375 38.5486 33.3028 40.1278ZM38.2167 32.8069C37.8639 34.4347 36.5806 35.7528 35.3528 35.7528C34.1264 35.7528 33.4194 34.4347 33.7722 32.8069C34.1264 31.1792 35.4097 29.8611 36.6347 29.8611C37.8639 29.8611 38.5708 31.1792 38.2167 32.8069ZM42.4708 25.7167C42.1222 27.2653 40.8556 28.5181 39.6445 28.5181C38.4333 28.5181 37.7347 27.2653 38.0847 25.7167C38.4333 24.1708 39.6986 22.9167 40.9097 22.9167C42.1222 22.9167 42.8208 24.1708 42.4708 25.7167ZM44.4361 15.2847C44.4375 15.3069 44.4445 15.3292 44.4445 15.3514V15.2778L44.4361 15.2847Z" fill="#DD2E44"/>
<path d="M43.6597 13.8125L26.7903 0.694445C25.7444 -0.152777 24.0292 -0.152777 22.9819 0.694445L6.34028 13.9292C5.87084 14.3083 5.625 14.7958 5.575 15.2944C5.57083 15.3528 5.55556 15.4097 5.55556 15.4681C5.55556 16.0264 5.81667 16.5833 6.34028 17.0069L23.0389 30.4042C23.2125 30.5444 23.4069 30.6514 23.6111 30.7458V48.1556C23.6111 48.4736 23.7236 48.7528 23.8806 48.9944C24.1319 49.3833 24.5278 49.6528 25 49.6528C25.4667 49.6528 25.8597 49.3889 26.1111 49.0083C26.2736 48.7639 26.3889 48.4806 26.3889 48.1556V30.6986C26.5514 30.6153 26.7069 30.5194 26.8486 30.4042L43.6597 16.8903C44.1833 16.4667 44.4444 15.9097 44.4444 15.3514C44.4444 15.3292 44.4375 15.3069 44.4361 15.2833C44.4167 14.7486 44.1611 14.2181 43.6597 13.8125ZM25.6944 12.0375C27.9306 12.0375 29.7444 13.4875 29.7444 15.2778C29.7444 17.0681 27.9306 18.5181 25.6944 18.5181C23.4569 18.5181 21.6444 17.0681 21.6444 15.2778C21.6444 13.4875 23.4569 12.0375 25.6944 12.0375Z" fill="#EA596E"/>
<path d="M25.6944 18.5181C27.9312 18.5181 29.7444 17.0673 29.7444 15.2778C29.7444 13.4882 27.9312 12.0375 25.6944 12.0375C23.4577 12.0375 21.6444 13.4882 21.6444 15.2778C21.6444 17.0673 23.4577 18.5181 25.6944 18.5181Z" fill="white"/>
<path d="M40.9097 22.9167C39.6986 22.9167 38.4333 24.1708 38.0847 25.7167C37.7347 27.2653 38.4333 28.5181 39.6444 28.5181C40.8556 28.5181 42.1222 27.2653 42.4708 25.7167C42.8208 24.1708 42.1222 22.9167 40.9097 22.9167ZM36.6361 29.8611C35.4097 29.8611 34.1264 31.1792 33.7736 32.8069C33.4208 34.4347 34.1278 35.7528 35.3542 35.7528C36.5819 35.7528 37.8653 34.4347 38.2181 32.8069C38.5708 31.1792 37.8639 29.8611 36.6361 29.8611ZM31.8 37.2694C30.6347 37.2694 29.4181 38.5486 29.0819 40.1278C28.7458 41.7069 29.4181 42.9861 30.5819 42.9861C31.7472 42.9861 32.9653 41.7069 33.3014 40.1278C33.6375 38.5486 32.9653 37.2694 31.8 37.2694Z" fill="white"/>
<path d="M9.98333 25.0014C8.60277 25.0014 7.80694 26.4 8.20555 28.125C8.60416 29.8514 10.0458 31.25 11.4264 31.25C12.8069 31.25 13.6028 29.8514 13.2042 28.125C12.8069 26.4 11.3639 25.0014 9.98333 25.0014ZM17.7375 35.4167C16.3569 35.4167 15.5611 36.8153 15.9583 38.5417C16.3569 40.2667 17.8 41.6667 19.1806 41.6667C20.5611 41.6667 21.3569 40.2667 20.9597 38.5417C20.5611 36.8153 19.1181 35.4167 17.7375 35.4167Z" fill="#E1E8ED"/>
</svg>
