<svg width="48" height="48" viewBox="0 0 48 48" fill="none" xmlns="http://www.w3.org/2000/svg">
<path d="M41.3333 2.66667H6.66666C4.45732 2.66667 2.66666 4.45733 2.66666 6.66667V41.3333C2.66666 43.5427 4.45732 45.3333 6.66666 45.3333H41.3333C43.5427 45.3333 45.3333 43.5427 45.3333 41.3333V6.66667C45.3333 4.45733 43.5427 2.66667 41.3333 2.66667Z" fill="#CCD6DD"/>
<path d="M41.3333 1.33333H6.66668C3.72134 1.33333 1.33334 3.72133 1.33334 6.66667V41.3333C1.33334 44.2787 3.72134 46.6667 6.66668 46.6667H41.3333C44.2787 46.6667 46.6667 44.2787 46.6667 41.3333V6.66667C46.6667 3.72133 44.2787 1.33333 41.3333 1.33333ZM41.3333 4C42.804 4 44 5.196 44 6.66667V12H36V4H41.3333ZM36 25.3333H44V33.3333H36V25.3333ZM36 22.6667V14.6667H44V22.6667H36ZM33.3333 4V12H25.3333V4H33.3333ZM25.3333 14.6667H33.3333V22.6667H25.3333V14.6667ZM25.3333 25.3333H33.3333V33.3333H25.3333V25.3333ZM22.6667 4V12H14.6667V4H22.6667ZM14.6667 14.6667H22.6667V22.6667H14.6667V14.6667ZM14.6667 25.3333H22.6667V33.3333H14.6667V25.3333ZM4.00001 6.66667C4.00001 5.196 5.19601 4 6.66668 4H12V12H4.00001V6.66667ZM4.00001 14.6667H12V22.6667H4.00001V14.6667ZM4.00001 25.3333H12V33.3333H4.00001V25.3333ZM6.66668 44C5.19601 44 4.00001 42.804 4.00001 41.3333V36H12V44H6.66668ZM14.6667 44V36H22.6667V44H14.6667ZM25.3333 44V36H33.3333V44H25.3333ZM41.3333 44H36V36H44V41.3333C44 42.804 42.804 44 41.3333 44Z" fill="#E1E8ED"/>
<path d="M17.3333 44H9.33333V21.3333C9.33333 19.8613 10.528 18.6667 12 18.6667H14.6667C16.1387 18.6667 17.3333 19.8613 17.3333 21.3333V44Z" fill="#5C913B"/>
<path d="M38.6667 44H30.6667V12C30.6667 10.528 31.8613 9.33334 33.3333 9.33334H36C37.472 9.33334 38.6667 10.528 38.6667 12V44Z" fill="#3B94D9"/>
<path d="M28 44H20V30.6667C20 29.1947 21.1947 28 22.6667 28H25.3333C26.8053 28 28 29.1947 28 30.6667V44Z" fill="#DD2E44"/>
</svg>
