<svg width="36" height="36" viewBox="0 0 36 36" fill="none" xmlns="http://www.w3.org/2000/svg">
<g clip-path="url(#clip0)">
<path d="M22 4.587C22 10.662 18.333 22.92 11 22.92C3.667 22.92 0 10.663 0 4.587C0 -2.593 8.25 0.919999 11 0.919999C13.712 0.919999 22 -2.631 22 4.587Z" fill="#A6D388"/>
<path d="M5.49999 11.92C10.083 14.67 12.833 14.67 16.5 11.92C19.25 10.087 14.667 18.337 11 18.337C7.33299 18.337 2.74999 10.087 5.49999 11.92ZM3.66599 8.254C3.52799 8.254 3.38799 8.223 3.25599 8.157C2.80399 7.931 2.61999 7.38 2.84699 6.927C3.48299 5.655 4.77999 4.777 6.14999 4.692C6.98899 4.645 8.60799 4.847 9.92899 6.829C10.21 7.25 10.096 7.819 9.67499 8.1C9.25199 8.381 8.68399 8.267 8.40399 7.846C7.79399 6.931 7.04899 6.472 6.26399 6.522C5.53399 6.567 4.83599 7.048 4.48699 7.748C4.32599 8.068 4.00199 8.254 3.66599 8.254ZM18.334 8.254C17.998 8.254 17.674 8.068 17.514 7.747C17.164 7.048 16.467 6.567 15.737 6.521C14.961 6.479 14.208 6.93 13.597 7.845C13.315 8.267 12.747 8.38 12.326 8.099C11.905 7.818 11.791 7.249 12.072 6.828C13.392 4.845 15.003 4.642 15.851 4.691C17.221 4.776 18.518 5.654 19.154 6.926C19.381 7.379 19.197 7.929 18.744 8.156C18.612 8.223 18.472 8.254 18.334 8.254Z" fill="#5C913B"/>
<path d="M36 17.667C36 23.741 32.333 36 25 36C17.667 36 14 23.741 14 17.667C14 10.486 22.25 14 25 14C27.713 14 36 10.448 36 17.667Z" fill="#CBB7EA"/>
<path d="M29.5 30.151C26 28 24 28 20.5 30.151C17.75 31.984 21.333 25.734 25 25.734C28.667 25.734 32.25 31.984 29.5 30.151ZM17 21.917C16.862 21.917 16.722 21.886 16.59 21.82C16.137 21.594 15.954 21.043 16.18 20.59C16.88 19.191 18.584 18.1 20.231 17.998C21.72 17.899 23.046 18.583 23.929 19.909C24.21 20.331 24.096 20.899 23.675 21.181C23.254 21.462 22.685 21.348 22.404 20.927C21.882 20.145 21.189 19.779 20.345 19.828C19.224 19.897 18.181 20.687 17.819 21.411C17.659 21.731 17.335 21.917 17 21.917ZM33.001 21.917C32.664 21.917 32.341 21.731 32.18 21.409C31.82 20.686 30.777 19.897 29.656 19.827C28.814 19.78 28.117 20.143 27.596 20.926C27.316 21.347 26.745 21.461 26.325 21.18C25.904 20.899 25.79 20.33 26.071 19.908C26.955 18.582 28.259 17.899 29.77 17.997C31.418 18.1 33.122 19.191 33.821 20.59C34.047 21.042 33.863 21.593 33.41 21.819C33.278 21.886 33.139 21.917 33.001 21.917Z" fill="#9266CC"/>
</g>
<defs>
<clipPath id="clip0">
<rect width="36" height="36" fill="white"/>
</clipPath>
</defs>
</svg>
