<svg width="45" height="48" viewBox="0 0 45 48" fill="none" xmlns="http://www.w3.org/2000/svg">
<path d="M44.3077 41.6C44.3077 45.1344 41.6625 48 38.4 48H5.90769C2.64517 48 0 45.1344 0 41.6V6.4C0 2.8656 2.64517 0 5.90769 0H38.4C41.6625 0 44.3077 2.8656 44.3077 6.4V41.6Z" fill="#C1694F"/>
<path d="M41.3538 41.6C41.3538 43.3664 40.0305 44.8 38.4 44.8H5.90767C4.27715 44.8 2.95383 43.3664 2.95383 41.6V6.40004C2.95383 4.63204 4.27715 3.20004 5.90767 3.20004H38.4C40.0305 3.20004 41.3538 4.63204 41.3538 6.40004V41.6Z" fill="white"/>
<path d="M33.8872 21.3333V9.6C33.8872 9.10178 33.4837 8.69743 32.9846 8.69743H11.3231C10.8249 8.69743 10.4205 9.10178 10.4205 9.6V21.3333H33.8872Z" fill="#8CCAF7"/>
<path d="M11.3231 26.7487H23.0564V20.4308H10.4205V25.8462C10.4205 26.3453 10.8249 26.7487 11.3231 26.7487Z" fill="#5DADEC"/>
<path d="M23.0564 20.4308V26.7487H32.9846C33.4838 26.7487 33.8872 26.3453 33.8872 25.8461V20.4308H23.0564Z" fill="#292F33"/>
<path d="M23.959 18.6256C23.4058 18.6256 23.1901 19.6428 22.6909 20.4308C22.3759 20.9272 21.949 21.3333 21.2514 21.3333C19.4462 21.3333 19.4462 24.041 18.5437 24.041C17.41 24.041 16.2764 25.4653 15.5896 26.7487H23.0565C23.8498 25.162 24.6459 23.5771 26.6667 23.217C26.9438 23.1673 27.2426 23.1384 27.5693 23.1384C30.277 23.1384 30.3727 21.7368 31.1796 21.3333C32.4052 20.7205 33.2112 20.9389 33.8873 21.1429V18.6256H23.959Z" fill="#67757F"/>
<path d="M28.4718 11.4051L24.8616 15.0154V18.6256H32.0821V15.0154L28.4718 11.4051Z" fill="#E75A70"/>
<path d="M32.082 15.9179C31.851 15.9179 31.6199 15.8295 31.4439 15.6535L28.4718 12.6813L25.4996 15.6535C25.1467 16.0064 24.5763 16.0064 24.2234 15.6535C23.8705 15.3006 23.8705 14.7302 24.2234 14.3773L27.8337 10.767C28.1866 10.4141 28.757 10.4141 29.1099 10.767L32.7202 14.3773C33.0731 14.7302 33.0731 15.3006 32.7202 15.6535C32.5442 15.8295 32.3131 15.9179 32.082 15.9179Z" fill="#292F33"/>
<path d="M26.6667 15.9179H28.4718V18.6256H26.6667V15.9179Z" fill="#BB1A34"/>
<path d="M21.449 14.2256C21.449 13.2906 20.6917 12.5333 19.7567 12.5333C19.6854 12.5333 19.6168 12.546 19.5473 12.5541C19.5725 12.4377 19.587 12.3185 19.587 12.1949C19.587 11.2598 18.8297 10.5026 17.8947 10.5026C17.2918 10.5026 16.7656 10.8203 16.4659 11.295C16.2782 11.2228 16.0769 11.1795 15.8639 11.1795C15.0047 11.1795 14.3025 11.823 14.1933 12.6525C14.0028 12.5776 13.797 12.5333 13.5795 12.5333C12.6445 12.5333 11.8872 13.2906 11.8872 14.2256C11.8872 15.1607 12.6445 15.918 13.5795 15.918C13.6165 15.918 13.6517 15.9089 13.6887 15.9071L13.6923 15.918H19.7846V15.9152C20.7062 15.8999 21.449 15.1508 21.449 14.2256Z" fill="white"/>
<path d="M33.9692 32.7654C33.9692 33.7331 33.3824 34.5154 32.6564 34.5154H11.6513C10.9266 34.5154 10.3385 33.7331 10.3385 32.7654C10.3385 31.7976 10.9266 31.0154 11.6513 31.0154H32.6564C33.3824 31.0154 33.9692 31.7976 33.9692 32.7654Z" fill="#99AAB5"/>
<path d="M31.0154 38.8769C31.0154 39.6937 30.5753 40.3538 30.0308 40.3538H14.2769C13.7334 40.3538 13.2923 39.6937 13.2923 38.8769C13.2923 38.0602 13.7334 37.4 14.2769 37.4H30.0308C30.5753 37.4 31.0154 38.0602 31.0154 38.8769Z" fill="#99AAB5"/>
</svg>
