<svg width="48" height="48" viewBox="0 0 48 48" fill="none" xmlns="http://www.w3.org/2000/svg">
<path d="M45.432 24L38.9893 28H37.3333V22.6667C37.3333 22.5493 37.3067 22.4413 37.2987 22.3253C41.9147 21.152 45.3333 16.98 45.3333 12C45.3333 6.10933 40.5573 1.33333 34.6667 1.33333C28.776 1.33333 23.9987 6.10933 23.9987 12C23.9987 13.9507 24.548 15.7627 25.464 17.3333H19.8933C19.956 16.896 20 16.4533 20 16C20 10.8453 15.8213 6.66667 10.6667 6.66667C5.51334 6.66667 1.33334 10.8453 1.33334 16C1.33334 19.72 3.51734 22.924 6.66668 24.4227V38.6667C6.66668 41.612 9.05468 44 12 44H32C34.9453 44 37.3333 41.612 37.3333 38.6667V34.6667H38.9893L45.432 38.6667H46.6667V24H45.432ZM38.3027 5.30267C40.652 6.58133 42.2507 9.06133 42.2813 11.9173L37.5733 11.1333C37.424 10.632 37.16 10.18 36.796 9.824L38.3027 5.30267ZM37.1027 13.7587L41.8387 14.548C40.9587 17.024 38.8333 18.8947 36.22 19.44C35.7267 18.796 35.096 18.2733 34.364 17.9093L35.1973 14.9893C35.9387 14.8387 36.632 14.3867 37.1027 13.7587ZM34.6667 4.38C35.0427 4.38 35.4093 4.416 35.7707 4.46933L34.2627 8.992C33.724 9.064 33.2333 9.272 32.8213 9.58667L28.56 7.456C29.9493 5.59333 32.164 4.38 34.6667 4.38ZM27.0467 12C27.0467 11.2493 27.16 10.5253 27.3613 9.84L31.62 11.9693L31.6173 12C31.6173 12.876 32.0347 13.66 32.6453 14.216L31.7547 17.3333H29.26C27.9 15.96 27.0467 14.0853 27.0467 12ZM14.9293 11.4867C16.1307 12.6213 16.8893 14.2173 16.8893 16C16.8893 16.4587 16.832 16.9027 16.7387 17.3333H13.4667C13.66 16.928 13.7773 16.4787 13.7773 16C13.7773 15.3627 13.584 14.7707 13.2547 14.2773L14.9293 11.4867ZM10.6667 9.77733C11.3587 9.77733 12.0133 9.91733 12.6347 10.1253L10.96 12.9173C10.8627 12.908 10.7667 12.888 10.6667 12.888C10.0293 12.888 9.43734 13.0813 8.94401 13.4107L6.15334 11.7373C7.28801 10.536 8.88401 9.77733 10.6667 9.77733ZM4.44401 16C4.44401 15.308 4.58401 14.6533 4.79201 14.0307L7.58534 15.7067C7.57601 15.804 7.55601 15.8987 7.55601 16C7.55601 17 8.03601 17.88 8.76934 18.4493C7.93734 19.088 7.30668 19.9613 6.96534 20.976C5.44401 19.8413 4.44401 18.044 4.44401 16Z" fill="#31373D"/>
<path d="M32 28C33.4728 28 34.6667 26.8061 34.6667 25.3333C34.6667 23.8606 33.4728 22.6667 32 22.6667C30.5273 22.6667 29.3333 23.8606 29.3333 25.3333C29.3333 26.8061 30.5273 28 32 28Z" fill="#8899A6"/>
<path d="M12 28C13.4728 28 14.6667 26.8061 14.6667 25.3333C14.6667 23.8606 13.4728 22.6667 12 22.6667C10.5273 22.6667 9.33334 23.8606 9.33334 25.3333C9.33334 26.8061 10.5273 28 12 28Z" fill="#8899A6"/>
<path d="M32 36C32 34.528 30.8053 33.3333 29.3333 33.3333H14.6667C13.1947 33.3333 12 34.528 12 36V44C12 45.472 13.1947 46.6667 14.6667 46.6667H29.3333C30.8053 46.6667 32 45.472 32 44V36Z" fill="#8899A6"/>
</svg>
