<svg width="16" height="12" viewBox="0 0 16 12" fill="none" xmlns="http://www.w3.org/2000/svg">
<path d="M7.16794 1.24807C7.56377 0.654342 8.43622 0.654342 8.83204 1.24808L14.9635 10.4453C15.4066 11.1099 14.9302 12 14.1315 12H1.86852C1.06982 12 0.593429 11.1099 1.03647 10.4453L7.16794 1.24807Z" fill="#FFAD69"/>
<path d="M8.6321 4.18182H7.3679L7.48153 8.25568H8.52131L8.6321 4.18182ZM8.00142 10.0739C8.36506 10.0739 8.6804 9.76989 8.68324 9.39205C8.6804 9.01989 8.36506 8.71591 8.00142 8.71591C7.62642 8.71591 7.31676 9.01989 7.3196 9.39205C7.31676 9.76989 7.62642 10.0739 8.00142 10.0739Z" fill="#FFEBDB"/>
</svg>
