<svg width="16" height="16" viewBox="0 0 16 16" fill="none" xmlns="http://www.w3.org/2000/svg">
<circle cx="8" cy="8" r="8" fill="#0A4CEF"/>
<path d="M11.9885 7.08216C11.961 6.9973 11.8876 6.93546 11.7993 6.92264L9.31931 6.56225L8.21017 4.31497C8.1707 4.23497 8.08922 4.18433 8.00002 4.18433C7.9108 4.18433 7.82933 4.23497 7.78984 4.31497L6.68066 6.56225L4.20067 6.92264C4.1124 6.93546 4.03904 6.9973 4.01148 7.08214C3.9839 7.167 4.0069 7.26014 4.07079 7.32241L5.86529 9.07168L5.44173 11.5417C5.42663 11.6297 5.46279 11.7185 5.53496 11.771C5.57579 11.8006 5.62415 11.8157 5.67274 11.8157C5.71005 11.8157 5.74749 11.8068 5.78177 11.7888L8 10.6226L10.2181 11.7888C10.2971 11.8303 10.3928 11.8234 10.465 11.7709C10.5371 11.7185 10.5733 11.6296 10.5582 11.5417L10.1345 9.07168L11.9292 7.32239C11.9931 7.26014 12.0161 7.167 11.9885 7.08216Z" fill="#EEF4FF"/>
</svg>
