<svg width="24" height="24" viewBox="0 0 24 24" fill="none" xmlns="http://www.w3.org/2000/svg">
<circle cx="12" cy="12" r="12" fill="#0A4CEF"/>
<path d="M11.8815 5.38759C7.92069 5.38759 4.57526 8.73302 4.57526 12.6938C4.57526 16.6546 7.92069 20 11.8815 20C15.8422 20 19.1877 16.6546 19.1877 12.6938C19.1877 8.73302 15.8422 5.38759 11.8815 5.38759ZM11.8815 18.3764C8.8015 18.3764 6.19886 15.7738 6.19886 12.6938C6.19886 9.61382 8.8015 7.01119 11.8815 7.01119C14.9614 7.01119 17.5641 9.61382 17.5641 12.6938C17.5641 15.7738 14.9614 18.3764 11.8815 18.3764Z" fill="white"/>
<path d="M12.6933 11.882V8.63479H11.0697V13.5056H15.9405V11.882H12.6933Z" fill="white"/>
<path d="M16.1709 5.1497L17.3173 4L19.7604 6.43613L18.614 7.58583L16.1709 5.1497Z" fill="white"/>
<path d="M7.57723 5.14974L5.1497 7.58423L4 6.43782L6.42753 4.00333L7.57723 5.14974Z" fill="white"/>
</svg>
