<svg width="32" height="32" viewBox="0 0 32 32" fill="none" xmlns="http://www.w3.org/2000/svg">
<rect width="32" height="32" rx="4" fill="#F3F4F7"/>
<path d="M24.2827 21.5707C24.2848 21.7643 24.2343 22.0174 24.1817 22.2261C23.8144 23.6936 22.1833 25.3403 19.8874 25.1905C17.8066 25.055 16.1118 24.0671 16.1118 22.6817C16.1118 21.2963 17.8024 20.173 19.8874 20.173C21.9723 20.173 24.2696 20.1853 24.2827 21.5707Z" fill="#EA596E"/>
<path d="M19.8873 20.4056C18.7674 20.4056 16.2114 20.7121 15.6248 20.7121C14.5885 20.7121 13.748 21.3552 13.748 22.1488C13.748 22.5305 13.9459 22.8753 14.2627 23.1326C14.2627 23.1326 14.9586 23.8229 16.2121 23.4918C16.7606 23.3467 17.653 22.2699 19.2239 22.0988C20.0063 22.0133 21.4721 22.612 24.0482 22.6263C24.1588 22.391 24.1817 22.2275 24.1817 22.2275C24.1817 20.8407 21.9722 20.4056 19.8873 20.4056Z" fill="#DD2E44"/>
<path d="M24.1816 22.2261C24.1816 22.2261 25.6924 21.923 26.6318 20.7011C27.7268 19.276 27.5829 17.751 27.5829 17.751C28.6925 15.6986 27.2371 13.7741 27.2371 13.7741C27.0925 11.6074 25.738 10.7098 25.738 10.7098C24.8588 8.643 22.9136 8.08747 22.9136 8.08747C21.3863 6.32032 18.6767 6.37711 18.6767 6.37711C18.6767 6.37711 16.138 5.45693 12.6529 6.49136C12.0767 6.6624 10.1454 7.06125 8.73281 7.91644C4.28072 10.612 3.94384 14.8154 4.00609 15.4988C4.35128 19.3184 7.06085 20.0026 8.79022 20.4014C9.19351 21.4844 10.678 23.4801 13.344 22.7392C16.6298 22.1693 18.0133 21.1998 18.8206 21.1998C19.6278 21.1998 21.876 22.055 24.1816 22.2261Z" fill="#F4ABBA"/>
<path d="M15.8715 16.0846C17.4819 15.226 18.3549 15.306 19.1255 15.3751C19.3704 15.397 19.6021 15.4141 19.8366 15.4127C21.2091 15.3819 22.3207 14.81 22.8125 14.2565C22.9384 14.1142 22.9239 13.8987 22.7807 13.7735C22.6382 13.649 22.4203 13.662 22.2923 13.8043C21.9133 14.2312 20.9787 14.7026 19.8207 14.7286C19.6132 14.7347 19.405 14.7142 19.1892 14.6944C18.3625 14.6184 17.336 14.5254 15.543 15.4825C15.0829 15.7281 14.4521 15.8191 13.7686 15.8875C12.2489 13.7181 13.1633 11.8285 13.4248 11.3783C13.4504 11.3797 13.4753 11.3879 13.5016 11.3879C13.7783 11.3879 14.0564 11.3208 14.3082 11.1799C14.4742 11.0869 14.533 10.8782 14.4389 10.714C14.3449 10.5498 14.1339 10.4917 13.9679 10.5847C13.5251 10.8324 12.9427 10.6894 12.6674 10.2652C12.5643 10.1058 12.3505 10.0593 12.1901 10.1619C12.0296 10.2638 11.9825 10.4752 12.0856 10.634C12.2496 10.8878 12.4806 11.0787 12.7414 11.2066C12.381 11.9304 11.6968 13.8337 12.9987 15.9621C12.0828 16.051 11.1656 16.179 10.4475 16.6367C9.98408 16.9322 9.51023 17.3646 9.14845 17.862C8.71334 17.7881 7.12024 17.4002 6.84216 15.6515C7.0151 15.5188 7.15483 15.3436 7.2413 15.1274C7.31186 14.9516 7.2247 14.7532 7.04692 14.6834C6.86914 14.6136 6.66853 14.6998 6.59797 14.8757C6.53641 15.0296 6.42504 15.1418 6.28392 15.1911C6.14419 15.2403 5.98578 15.2239 5.83913 15.1432C5.67103 15.0508 5.46143 15.1117 5.36874 15.2759C5.27604 15.4408 5.33623 15.6494 5.50294 15.7411C5.69939 15.8492 5.90968 15.9039 6.11859 15.9039C6.14419 15.9039 6.1684 15.8923 6.19399 15.8909C6.52326 17.5418 7.84243 18.267 8.77559 18.4866C8.65385 18.752 8.57153 19.0257 8.54663 19.3021C8.53002 19.4896 8.67045 19.6565 8.86068 19.6729L8.89181 19.6743C9.0689 19.6743 9.22039 19.5409 9.2363 19.3623C9.31101 18.5324 10.1114 17.6656 10.8225 17.2107C11.4893 16.7858 12.4654 16.6962 13.4103 16.6093C14.3269 16.5265 15.1929 16.4472 15.8715 16.0846ZM24.7716 15.0556C24.6809 15.2212 24.7432 15.4291 24.9099 15.5188C24.9625 15.5475 25.0199 15.5612 25.0759 15.5612C25.1977 15.5612 25.316 15.4976 25.3789 15.384C25.3921 15.3607 26.6531 13.0244 24.2922 11.4542C24.1345 11.3503 23.9193 11.3906 23.8121 11.5473C23.7056 11.704 23.7478 11.9167 23.9062 12.0221C25.7352 13.2385 24.8117 14.9817 24.7716 15.0556ZM10.4337 9.5318C10.5416 9.5318 10.6475 9.48254 10.7146 9.38949C11.7176 8.00957 13.1066 8.48163 13.1654 8.50352C13.3446 8.56783 13.5417 8.47752 13.6081 8.30102C13.6746 8.12382 13.5832 7.92747 13.4041 7.86179C12.74 7.61824 11.2064 7.54161 10.1529 8.99064C10.0415 9.1432 10.0768 9.35734 10.2317 9.46749C10.2933 9.51127 10.3638 9.5318 10.4337 9.5318ZM19.4762 8.24013C21.0154 8.1163 21.7154 9.21982 21.7472 9.27182C21.8123 9.37991 21.9271 9.44012 22.0454 9.44012C22.1049 9.44012 22.1658 9.42507 22.2204 9.39291C22.385 9.29713 22.4404 9.08778 22.3442 8.92496C22.3069 8.8627 21.4173 7.40752 19.4223 7.55803C19.2321 7.5724 19.0902 7.73728 19.1048 7.9261C19.12 8.11424 19.2922 8.25723 19.4762 8.24013ZM25.8057 18.2362C25.6356 18.2266 25.4481 18.36 25.4329 18.5489C25.4315 18.5612 25.3215 19.7249 24.1116 20.1183C23.9304 20.1771 23.8315 20.3701 23.8917 20.55C23.9387 20.6937 24.075 20.7853 24.2202 20.7853C24.2562 20.7853 24.2922 20.7799 24.3282 20.7682C25.969 20.236 26.117 18.672 26.1225 18.6056C26.1371 18.4168 25.996 18.2512 25.8057 18.2362Z" fill="#EA596E"/>
<path d="M8.68484 14.9119C8.63503 15.0946 8.74433 15.282 8.92902 15.3313C8.95877 15.3395 8.98921 15.3429 9.01895 15.3429C9.17183 15.3429 9.31087 15.2424 9.35237 15.0898C9.48381 14.6034 9.99362 14.2914 10.4951 14.3961C10.6826 14.4337 10.8652 14.3167 10.9047 14.1313C10.9441 13.9466 10.8244 13.7653 10.6369 13.7263C10.3423 13.6647 10.0462 13.6935 9.77365 13.7851C8.96707 12.4209 9.1241 11.0759 9.12617 11.0615C9.15108 10.8748 9.01826 10.703 8.82941 10.6771C8.64126 10.6545 8.46694 10.7824 8.44065 10.9692C8.43166 11.0355 8.24696 12.5537 9.17598 14.1258C8.94493 14.3318 8.76923 14.6006 8.68484 14.9119ZM16.4179 13.2221C16.6994 12.9642 17.1511 12.9689 17.4244 13.2323C17.4922 13.2966 17.5786 13.3288 17.6658 13.3288C17.7564 13.3288 17.8463 13.2939 17.9134 13.2248C18.0463 13.0894 18.0435 12.8725 17.9065 12.7411C17.7474 12.5886 17.5572 12.4866 17.3552 12.423C17.56 11.7279 17.479 11.4193 17.2888 10.8412C17.2556 10.7407 17.2189 10.6285 17.1802 10.5005L17.1594 10.4321C16.9076 9.60568 16.7409 9.06041 17.2196 8.29074C17.3199 8.12997 17.2687 7.91925 17.1062 7.82005C16.9464 7.72153 16.7312 7.77011 16.6303 7.93225C15.9883 8.96395 16.2242 9.73635 16.4974 10.6305L16.5182 10.6989C16.559 10.8317 16.5964 10.948 16.6309 11.0526C16.8018 11.5733 16.8537 11.7477 16.6448 12.3772C16.3895 12.4244 16.1453 12.5386 15.9461 12.722C15.8064 12.8506 15.7988 13.0675 15.9288 13.2057C16.0596 13.3439 16.2788 13.3507 16.4179 13.2221ZM20.8209 11.1799C21.0222 11.1799 21.2255 11.1382 21.4151 11.0492C21.588 10.9685 21.662 10.7646 21.5804 10.5936C21.4995 10.4225 21.2906 10.3514 21.1204 10.4301C20.7731 10.5915 20.3449 10.4513 20.163 10.1174C20.0724 9.95049 19.8614 9.8896 19.6947 9.97717C19.5266 10.0661 19.463 10.2741 19.5536 10.4403C19.6781 10.6702 19.8635 10.8515 20.0793 10.9774C19.7078 11.8702 19.9188 12.8184 20.0911 13.3213C20.1395 13.4643 20.2744 13.5539 20.419 13.5539C20.4556 13.5539 20.4923 13.5484 20.5296 13.5361C20.7109 13.4759 20.8077 13.2816 20.7461 13.103C20.6299 12.7623 20.4044 11.9017 20.7448 11.1696C20.7711 11.171 20.7953 11.1799 20.8209 11.1799ZM24.1392 17.6307C24.126 17.4426 23.9614 17.2941 23.7719 17.3112C23.0704 17.3605 22.4727 16.8344 22.425 16.1461C22.4112 15.958 22.2417 15.8177 22.0563 15.828C21.8661 15.841 21.7222 16.0045 21.7347 16.1926C21.763 16.5963 21.9187 16.9603 22.1552 17.2565C21.5991 17.9037 20.8707 18.0877 20.4646 18.1349C20.1056 18.1774 19.7915 18.1411 19.4284 18.0987C19.0956 18.0611 18.7193 18.0179 18.2538 18.0316L18.2503 18.0323C18.2365 17.8367 18.1895 17.5514 18.0393 17.314C17.9383 17.1546 17.7246 17.106 17.5627 17.2059C17.4015 17.3058 17.3517 17.5172 17.4534 17.6772C17.5461 17.8243 17.5634 18.059 17.5634 18.1733C17.2148 18.2971 16.9132 18.4791 16.6406 18.6549C16.1536 18.9682 15.7697 19.2159 15.1921 19.0873C14.6691 18.9689 14.1455 18.945 13.7014 19.0065C13.6322 18.8348 13.5229 18.6296 13.3541 18.4715C13.2151 18.3416 12.9965 18.347 12.8651 18.4852C12.7343 18.6221 12.7399 18.8389 12.8789 18.9689C12.9384 19.0243 12.9854 19.1051 13.0235 19.1858C12.2605 19.4964 11.8779 20.0157 11.86 20.041C11.7493 20.1942 11.7859 20.4056 11.9395 20.5158C12.0004 20.5589 12.0709 20.5801 12.1415 20.5801C12.2487 20.5801 12.3546 20.5315 12.4223 20.4398C12.4258 20.4344 12.8056 19.9315 13.5547 19.7283C13.9421 19.623 14.4976 19.6319 15.0392 19.7536C15.1907 19.7878 15.3311 19.7995 15.4674 19.8015C15.5318 19.9507 15.5567 20.1279 15.5601 20.1935C15.5712 20.3755 15.7234 20.5165 15.9053 20.5165L15.924 20.5158C16.1142 20.5055 16.2602 20.3461 16.2512 20.158C16.2491 20.1238 16.2353 19.9212 16.1612 19.6886C16.4801 19.5744 16.7575 19.3958 17.0183 19.2282C17.414 18.973 17.7882 18.7315 18.2773 18.7158C18.6868 18.7014 19.0244 18.7404 19.3502 18.778C19.6781 18.8157 20.0004 18.8403 20.356 18.8198C20.419 18.9929 20.4141 19.2241 20.4044 19.3014C20.3816 19.4882 20.5151 19.6592 20.7046 19.6838C20.7192 19.6859 20.7337 19.6866 20.7482 19.6866C20.9191 19.6866 21.0678 19.5614 21.0906 19.389C21.0962 19.3466 21.1315 19.0387 21.0498 18.7178C21.5465 18.5858 22.1622 18.2991 22.672 17.7115C22.9701 17.8921 23.3181 17.9981 23.6882 17.9981C23.731 17.9981 23.7746 17.9967 23.8175 17.994C24.0077 17.9817 24.1516 17.8195 24.1392 17.6307Z" fill="#EA596E"/>
</svg>
