<svg width="32" height="32" viewBox="0 0 32 32" fill="none" xmlns="http://www.w3.org/2000/svg">
<rect width="32" height="32" rx="4" fill="#F3F4F7"/>
<g clip-path="url(#clip0)">
<path d="M27.3332 21.3333C27.3332 22.806 26.1392 24 24.6665 24H7.33317C5.8605 24 4.6665 22.806 4.6665 21.3333V8.20867C4.6665 6.736 8.52717 4 9.99984 4H23.7498C25.8125 4 27.3332 5.54133 27.3332 7.58333V21.3333Z" fill="#292F33"/>
<path d="M26 24C26 25.4726 24.806 26.6666 23.3333 26.6666H8.66667C7.194 26.6666 6 25.4726 6 24V7.99997C6 5.25397 5.986 5.33331 9.33333 5.33331H23.3333C24.806 5.33331 26 6.52731 26 7.99997V24Z" fill="#CCD6DD"/>
<path d="M24.6665 24.6667C24.6665 25.7713 23.7712 26.6667 22.6665 26.6667H6.6665C5.56184 26.6667 4.6665 25.7713 4.6665 24.6667V8.66666C4.6665 7.56199 5.56184 6.66666 6.6665 6.66666H22.6665C23.7712 6.66666 24.6665 7.56199 24.6665 8.66666V24.6667Z" fill="#E1E8ED"/>
<path d="M24.6668 25.3333C24.6668 26.806 23.4728 28 22.0002 28H8.00016C6.5275 28 5.3335 26.806 5.3335 25.3333V10.6667C5.3335 9.194 6.5275 8 8.00016 8H22.0002C23.4728 8 24.6668 9.194 24.6668 10.6667V25.3333Z" fill="#292F33"/>
<path d="M23.3335 25.3333C23.3335 26.806 22.1395 28 20.6668 28H8.00016C6.5275 28 5.3335 26.806 5.3335 25.3333V12C5.3335 10.5273 6.5275 9.33334 8.00016 9.33334H20.8902C22.3628 9.33334 23.3335 10.304 23.3335 11.7767V25.3333Z" fill="#66757F"/>
<path d="M7.99984 8C6.8745 8 6.84584 6.71867 7.33317 6.16667C7.88784 5.53933 8.74984 5.33333 10.2918 5.33333H11.3332V4H9.5205C6.8745 4 4.6665 5.66667 4.6665 7.58333V25.3333C4.6665 26.806 5.8605 28 7.33317 28H8.6665V8H7.99984Z" fill="#292F33"/>
<path d="M8.6665 9.33334H10.6665V12H8.6665V9.33334ZM13.3332 9.33334H15.9998V12H13.3332V9.33334ZM21.3332 9.37068C21.1905 9.35001 21.0445 9.33334 20.8898 9.33334H18.6665V12H21.3332V9.37068ZM15.9998 12H18.6665V14.6667H15.9998V12ZM21.3332 12H23.3332V14.6667H21.3332V12ZM10.6665 12H13.3332V14.6667H10.6665V12ZM8.6665 14.6667H10.6665V17.3333H8.6665V14.6667ZM13.3332 14.6667H15.9998V17.3333H13.3332V14.6667ZM18.6665 14.6667H21.3332V17.3333H18.6665V14.6667ZM15.9998 17.3333H18.6665V20H15.9998V17.3333ZM21.3332 17.3333H23.3332V20H21.3332V17.3333ZM10.6665 17.3333H13.3332V20H10.6665V17.3333ZM8.6665 20H10.6665V22.6667H8.6665V20ZM13.3332 20H15.9998V22.6667H13.3332V20ZM18.6665 20H21.3332V22.6667H18.6665V20ZM8.6665 25.3333H10.6665V28H8.6665V25.3333ZM13.3332 25.3333H15.9998V28H13.3332V25.3333ZM18.6665 28H20.6665C20.8978 28 21.1192 27.9613 21.3332 27.906V25.3333H18.6665V28ZM15.9998 22.6667H18.6665V25.3333H15.9998V22.6667ZM21.3332 22.6667H23.3332V25.3333H21.3332V22.6667ZM10.6665 22.6667H13.3332V25.3333H10.6665V22.6667Z" fill="#CCD6DD"/>
</g>
<defs>
<clipPath id="clip0">
<rect width="24" height="24" fill="white" transform="translate(4 4)"/>
</clipPath>
</defs>
</svg>
