<svg width="24" height="24" viewBox="0 0 24 24" fill="none" xmlns="http://www.w3.org/2000/svg">
<path d="M12 24C5.37258 24 0 18.6274 0 12C0 5.37258 5.37258 0 12 0C18.6274 0 24 5.37258 24 12C23.9927 18.6244 18.6244 23.9927 12 24ZM12 2.4C6.69807 2.4 2.4 6.69807 2.4 12C2.4 17.3019 6.69807 21.6 12 21.6C17.3019 21.6 21.6 17.3019 21.6 12C21.594 6.70053 17.2995 2.40595 12 2.4ZM9.6 19.2C9.5832 19.2 9.432 19.194 8.4 19.194H7.2V19.1652C7.2 19.152 7.2 19.1352 7.2 19.1148C7.2 19.0752 7.2 19.0212 7.2084 18.9552C7.2216 18.7764 7.242 18.606 7.2708 18.4368C7.36067 17.8905 7.5305 17.3604 7.7748 16.8636C8.10837 16.1776 8.61762 15.5922 9.2508 15.1668L9.2676 15.156L9.2868 15.1416L9.3048 15.132H9.312H9.3204H9.3264H9.3348L9.348 15.1236C10.1458 14.6364 11.0654 14.3855 12 14.4C12.9715 14.3742 13.9285 14.6395 14.748 15.162C15.3806 15.588 15.8897 16.1733 16.224 16.8588C16.4692 17.3551 16.6387 17.8854 16.7268 18.432C16.7652 18.6576 16.782 18.8388 16.7892 18.9504C16.7892 19.0032 16.7964 19.056 16.7976 19.11C16.7976 19.1304 16.7976 19.1472 16.7976 19.1604V19.1844C16.7976 19.1844 16.7496 19.1844 15.5976 19.1844C14.5104 19.1844 14.3976 19.1844 14.3976 19.1844C14.3976 19.1844 14.3976 19.1496 14.3976 19.1136C14.3976 19.0476 14.382 18.9456 14.3604 18.8184C14.3101 18.5074 14.2147 18.2054 14.0772 17.922C13.9286 17.6104 13.7005 17.3435 13.416 17.148C12.9884 16.8956 12.4959 16.7746 12 16.8C11.5029 16.7782 11.0103 16.9034 10.584 17.16C10.2998 17.3559 10.0719 17.6227 9.9228 17.934C9.78558 18.2175 9.69019 18.5195 9.6396 18.8304C9.62256 18.9281 9.61055 19.0267 9.6036 19.1256C9.6036 19.1592 9.6036 19.1832 9.6036 19.1952H9.6V19.2ZM7.8 12C6.80589 12 6 11.1941 6 10.2C6 9.20589 6.80589 8.4 7.8 8.4C8.79411 8.4 9.6 9.20589 9.6 10.2C9.6 11.1941 8.79411 12 7.8 12ZM16.1916 11.9832C15.2021 11.9832 14.4 11.1811 14.4 10.1916C14.4 9.20213 15.2021 8.4 16.1916 8.4C17.1811 8.4 17.9832 9.20213 17.9832 10.1916C17.9819 11.1805 17.1805 11.9819 16.1916 11.9832Z" fill="#7B87F0"/>
</svg>
