<svg width="32" height="32" viewBox="0 0 32 32" fill="none" xmlns="http://www.w3.org/2000/svg">
<rect width="32" height="32" rx="4" fill="#F3F4F7"/>
<path d="M24.0139 26.8427C22.9719 27.8847 21.2839 27.884 20.2432 26.8427L5.15723 11.7573C4.11589 10.716 4.11523 9.02801 5.15723 7.98601L7.98589 5.15801C9.02723 4.11668 10.7159 4.11668 11.7572 5.15801L26.8412 20.2433C27.8826 21.2847 27.8826 22.974 26.8419 24.014L24.0139 26.8427Z" fill="#FFCC4D"/>
<path d="M10.3432 8.45802C10.0826 8.71802 9.66123 8.71802 9.40057 8.45802C9.14057 8.19735 9.14057 7.77535 9.40057 7.51468L11.7579 5.15735L12.7006 6.10068L10.3432 8.45802ZM14.1139 9.40068C13.8539 9.66135 13.4312 9.66135 13.1712 9.40068C12.9106 9.14002 12.9106 8.71802 13.1712 8.45802L14.1146 7.51468L15.0572 8.45802L14.1139 9.40068ZM15.0572 13.1714C14.7966 13.432 14.3746 13.432 14.1146 13.1714C13.8546 12.9107 13.8546 12.4887 14.1146 12.2287L16.4719 9.87135C16.7959 10.1953 17.0912 10.49 17.4146 10.8147L15.0572 13.1714ZM18.8279 14.114C18.5679 14.3747 18.1459 14.3747 17.8859 14.114C17.6246 13.8533 17.6252 13.4314 17.8859 13.1714L18.8286 12.228C19.1519 12.5527 19.4472 12.8467 19.7712 13.1714L18.8279 14.114ZM19.7712 17.8854C19.5106 18.146 19.0892 18.1467 18.8286 17.8854C18.5679 17.6247 18.5679 17.2034 18.8279 16.9427L21.1852 14.586L22.1279 15.5287L19.7712 17.8854ZM24.4852 22.5994C24.2252 22.86 23.8032 22.86 23.5432 22.5994C23.2819 22.3387 23.2819 21.9174 23.5426 21.6567L25.8999 19.3L26.8426 20.2427L24.4852 22.5994ZM23.5419 18.828C23.2812 19.0887 22.8606 19.0887 22.5992 18.8287C22.3386 18.568 22.3392 18.146 22.5992 17.886L23.5426 16.9434L24.4846 17.8854L23.5419 18.828Z" fill="#292F33"/>
</svg>
