<svg width="24" height="24" viewBox="0 0 24 24" fill="none" xmlns="http://www.w3.org/2000/svg">
<path d="M17.3955 3.0747C17.0635 3.4067 16.9761 3.63403 16.9101 3.7607C16.4701 4.6047 15.9401 4.87803 15.0568 3.9947C14.9701 3.90803 12.3321 1.15003 11.8961 0.650033C11.6115 0.323366 11.1755 0.223366 10.8401 0.475366C10.5868 0.666033 8.15014 2.65737 7.48347 3.48003C6.96747 4.1167 6.95014 4.9027 7.43081 5.38403C7.64814 5.60137 7.91547 5.68337 8.19814 5.76937C8.56614 5.88203 9.37348 5.8147 9.84481 6.28603C10.6001 7.04137 10.2048 8.23537 9.23347 9.23337C8.23548 10.2047 7.04147 10.6 6.28614 9.8447C5.81414 9.3727 5.88214 8.56603 5.76947 8.19803C5.68348 7.91537 5.60148 7.6487 5.38414 7.4307C4.90348 6.95003 4.11747 6.96803 3.48014 7.48337C2.65681 8.15003 0.666141 10.5867 0.475475 10.84C0.222808 11.1754 0.323475 11.6107 0.650141 11.896C1.15014 12.332 3.90814 14.97 3.99481 15.0567C4.87747 15.9394 4.60481 16.47 3.76081 16.91C3.63414 16.976 3.40747 17.0627 3.07481 17.3954C2.10014 18.37 2.10014 19.9507 3.07481 20.9254C4.04947 21.9 5.63014 21.9 6.60481 20.9254C6.93681 20.5934 7.02414 20.366 7.09014 20.2394C7.53014 19.3954 8.06014 19.122 8.94347 20.0054C9.03014 20.092 11.6681 22.85 12.1041 23.35C12.3888 23.6767 12.8248 23.7767 13.1601 23.5247C13.4135 23.334 15.8501 21.3427 16.5168 20.52C17.0328 19.8834 17.0501 19.0974 16.5695 18.616C16.3521 18.3987 16.0848 18.3167 15.8021 18.2307C15.4341 18.118 14.6268 18.1854 14.1555 17.714C13.4001 16.9587 13.7955 15.7647 14.7668 14.7667C15.7648 13.7954 16.9588 13.4 17.7141 14.1554C18.1861 14.6274 18.1181 15.434 18.2308 15.802C18.3168 16.0847 18.3988 16.3514 18.6161 16.5694C19.0968 17.05 19.8828 17.032 20.5201 16.5167C21.3435 15.85 23.3341 13.4134 23.5248 13.16C23.7775 12.8247 23.6768 12.3894 23.3501 12.104C22.8501 11.668 20.0921 9.03003 20.0055 8.94337C19.1228 8.0607 19.3955 7.53003 20.2395 7.09003C20.3661 7.02403 20.5928 6.93737 20.9255 6.6047C21.9001 5.63003 21.9001 4.04937 20.9255 3.0747C19.9508 2.09937 18.3701 2.09937 17.3955 3.0747Z" fill="#5DA9E9"/>
</svg>
