<svg width="32" height="32" viewBox="0 0 32 32" fill="none" xmlns="http://www.w3.org/2000/svg">
<rect width="32" height="32" rx="4" fill="#F3F4F7"/>
<path d="M24.6668 5.33331H7.3335C6.22883 5.33331 5.3335 6.22864 5.3335 7.33331V24.6666C5.3335 25.7713 6.22883 26.6666 7.3335 26.6666H24.6668C25.7715 26.6666 26.6668 25.7713 26.6668 24.6666V7.33331C26.6668 6.22864 25.7715 5.33331 24.6668 5.33331Z" fill="#CCD6DD"/>
<path d="M24.6665 4.66669H7.33317C5.8605 4.66669 4.6665 5.86069 4.6665 7.33335V24.6667C4.6665 26.1394 5.8605 27.3334 7.33317 27.3334H24.6665C26.1392 27.3334 27.3332 26.1394 27.3332 24.6667V7.33335C27.3332 5.86069 26.1392 4.66669 24.6665 4.66669ZM24.6665 6.00002C25.4018 6.00002 25.9998 6.59802 25.9998 7.33335V10H21.9998V6.00002H24.6665ZM21.9998 16.6667H25.9998V20.6667H21.9998V16.6667ZM21.9998 15.3334V11.3334H25.9998V15.3334H21.9998ZM20.6665 6.00002V10H16.6665V6.00002H20.6665ZM16.6665 11.3334H20.6665V15.3334H16.6665V11.3334ZM16.6665 16.6667H20.6665V20.6667H16.6665V16.6667ZM15.3332 6.00002V10H11.3332V6.00002H15.3332ZM11.3332 11.3334H15.3332V15.3334H11.3332V11.3334ZM11.3332 16.6667H15.3332V20.6667H11.3332V16.6667ZM5.99984 7.33335C5.99984 6.59802 6.59784 6.00002 7.33317 6.00002H9.99984V10H5.99984V7.33335ZM5.99984 11.3334H9.99984V15.3334H5.99984V11.3334ZM5.99984 16.6667H9.99984V20.6667H5.99984V16.6667ZM7.33317 26C6.59784 26 5.99984 25.402 5.99984 24.6667V22H9.99984V26H7.33317ZM11.3332 26V22H15.3332V26H11.3332ZM16.6665 26V22H20.6665V26H16.6665ZM24.6665 26H21.9998V22H25.9998V24.6667C25.9998 25.402 25.4018 26 24.6665 26Z" fill="#E1E8ED"/>
<path d="M12.6665 26H8.6665V14.6667C8.6665 13.9307 9.26384 13.3333 9.99984 13.3333H11.3332C12.0692 13.3333 12.6665 13.9307 12.6665 14.6667V26Z" fill="#5C913B"/>
<path d="M23.3335 26H19.3335V10C19.3335 9.26402 19.9308 8.66669 20.6668 8.66669H22.0002C22.7362 8.66669 23.3335 9.26402 23.3335 10V26Z" fill="#3B94D9"/>
<path d="M18 26H14V19.3333C14 18.5973 14.5973 18 15.3333 18H16.6667C17.4027 18 18 18.5973 18 19.3333V26Z" fill="#DD2E44"/>
</svg>
