<svg width="32" height="32" viewBox="0 0 32 32" fill="none" xmlns="http://www.w3.org/2000/svg">
<rect width="32" height="32" rx="4" fill="#F3F4F7"/>
<path d="M14.5455 22.1818C13.3404 22.1818 12.3636 21.2051 12.3636 20V17.0909C12.3636 15.8858 13.3404 14.9091 14.5455 14.9091C14.984 14.9047 18.9091 14.1818 18.9091 11.2727C18.9091 9.81818 17.4545 8.36364 15.2727 8.36364C13.4975 8.36364 12.3636 9.81818 12.3636 10.5455C12.3636 11.7505 11.3869 12.7273 10.1818 12.7273C8.97673 12.7273 8 11.7505 8 10.5455C8 6.99782 11.3309 4 15.2727 4C21.0909 4 23.2727 8.35054 23.2727 12C23.2727 15.0145 21.6167 17.3185 18.6087 18.4873C17.9542 18.7425 17.3069 18.9142 16.7273 19.0305V20C16.7273 21.2051 15.7505 22.1818 14.5455 22.1818Z" fill="#BE1931"/>
<path d="M14.5451 28C15.7501 28 16.7269 27.0232 16.7269 25.8182C16.7269 24.6132 15.7501 23.6364 14.5451 23.6364C13.3401 23.6364 12.3633 24.6132 12.3633 25.8182C12.3633 27.0232 13.3401 28 14.5451 28Z" fill="#BE1931"/>
</svg>
