<svg width="24" height="24" viewBox="0 0 24 24" fill="none" xmlns="http://www.w3.org/2000/svg">
<path d="M12 24C5.37258 24 0 18.6274 0 12C0 5.37258 5.37258 0 12 0C18.6274 0 24 5.37258 24 12C23.9927 18.6244 18.6244 23.9927 12 24ZM12 2.4C6.69807 2.4 2.4 6.69807 2.4 12C2.4 17.3019 6.69807 21.6 12 21.6C17.3019 21.6 21.6 17.3019 21.6 12C21.594 6.70053 17.2995 2.40595 12 2.4ZM7.8 12C6.80589 12 6 11.1941 6 10.2C6 9.20589 6.80589 8.4 7.8 8.4C8.79411 8.4 9.6 9.20589 9.6 10.2C9.6 11.1941 8.79411 12 7.8 12ZM16.1916 11.9832C15.2021 11.9832 14.4 11.1811 14.4 10.1916C14.4 9.20213 15.2021 8.4 16.1916 8.4C17.1811 8.4 17.9832 9.20213 17.9832 10.1916C17.9819 11.1805 17.1805 11.9819 16.1916 11.9832Z" fill="#7B87F0"/>
<path d="M14.3977 14.4C14.4145 14.4 14.5657 14.406 15.5977 14.406H16.7977V14.4348C16.7977 14.448 16.7977 14.4648 16.7977 14.4852C16.7977 14.5248 16.7977 14.5788 16.7893 14.6448C16.7761 14.8236 16.7557 14.994 16.7269 15.1632C16.637 15.7095 16.4672 16.2396 16.2229 16.7364C15.8893 17.4224 15.38 18.0079 14.7469 18.4332L14.7301 18.444L14.7109 18.4584L14.6929 18.468H14.6629L14.6497 18.4764C13.8519 18.9636 12.9323 19.2145 11.9977 19.2C11.0261 19.2259 10.0691 18.9605 9.24966 18.438C8.61705 18.012 8.10794 17.4268 7.77366 16.7412C7.52841 16.2449 7.35893 15.7146 7.27086 15.168C7.23246 14.9424 7.21566 14.7612 7.20846 14.6496C7.20846 14.5968 7.20126 14.544 7.20006 14.49C7.20006 14.4696 7.20006 14.4528 7.20006 14.4396V14.4156C7.20006 14.4156 7.24806 14.4156 8.40006 14.4156C9.48726 14.4156 9.60006 14.4156 9.60006 14.4156C9.60006 14.4156 9.60006 14.4504 9.60006 14.4864C9.60006 14.5524 9.61566 14.6544 9.63726 14.7816C9.68758 15.0926 9.78298 15.3946 9.92046 15.678C10.0691 15.9896 10.2971 16.2566 10.5817 16.452C11.0093 16.7044 11.5017 16.8255 11.9977 16.8C12.4948 16.8219 12.9873 16.6966 13.4137 16.44C13.6978 16.2442 13.9258 15.9773 14.0749 15.666C14.2121 15.3825 14.3075 15.0806 14.3581 14.7696C14.3751 14.6719 14.3871 14.5734 14.3941 14.4744C14.3941 14.4408 14.3941 14.4168 14.3941 14.4048H14.3977V14.4Z" fill="#7B87F0"/>
</svg>
