<svg width="32" height="31" viewBox="0 0 32 31" fill="none" xmlns="http://www.w3.org/2000/svg">
<path d="M31.4785 11.7458L31.4786 11.746C31.53 11.9042 31.4871 12.078 31.3679 12.1942L31.3679 12.1942L24.1891 19.1914L24.0008 19.3748L24.0453 19.6339L25.7401 29.5139C25.7401 29.5139 25.7401 29.514 25.7401 29.514C25.7682 29.6781 25.7007 29.844 25.5659 29.9419C25.4313 30.0398 25.2527 30.0527 25.1051 29.9752L16.2327 25.3104L16 25.1881L15.7673 25.3104L6.89441 29.9752L6.89433 29.9753C6.83038 30.0089 6.76071 30.0255 6.69096 30.0255C6.60006 30.0255 6.50995 29.9973 6.4338 29.942C6.29895 29.844 6.23154 29.6782 6.2597 29.5141L6.25971 29.5141L7.95395 19.6339L7.99838 19.3749L7.81016 19.1914L0.632192 12.1943L0.632149 12.1942C0.512899 12.078 0.469972 11.9042 0.521448 11.7458L0.521465 11.7457C0.572909 11.5874 0.70985 11.472 0.874502 11.4481L0.87458 11.4481L10.7945 10.0065L11.0547 9.96871L11.171 9.733L15.6077 0.743856L15.1594 0.52256L15.6077 0.743852C15.6814 0.594528 15.8335 0.5 16 0.5C16.1666 0.5 16.3186 0.594549 16.3923 0.743783L16.3923 0.743848L20.8288 9.733L20.9452 9.96871L21.2053 10.0065L31.1255 11.4481L31.1255 11.4481C31.2902 11.472 31.427 11.5873 31.4785 11.7458Z" fill="#F69F41" stroke="#F69F41"/>
</svg>
