<svg width="24" height="24" viewBox="0 0 24 24" fill="none" xmlns="http://www.w3.org/2000/svg">
<path d="M22.1526 5.72205e-05C23.1591 5.72205e-05 24 0.840958 24 1.84746L24 14.7702C24 15.7767 23.1591 16.6158 22.1526 16.6158H19.3806C18.6974 16.6158 18.0991 16.2238 17.7801 15.6606C17.1571 16.0423 16.5448 16.2658 16.1508 16.4933C15.2225 17.0292 14.7509 18.5383 14.5305 20.1106C14.4203 20.8967 14.3617 21.6521 14.2654 22.2824C14.2173 22.5975 14.1695 22.8773 14.0401 23.1817C13.9756 23.334 13.8905 23.501 13.7123 23.672C13.5341 23.8429 13.2215 24 12.9228 24C11.554 24 10.432 23.465 9.71467 22.6446C8.99739 21.8243 8.66211 20.7964 8.4819 19.7753C8.18754 18.1082 8.29914 16.697 8.35564 15.6894H2.7738C1.25607 15.6894 0 14.4406 0 12.9228C0 12.3845 0.152761 11.9793 0.347725 11.3494C0.54269 10.7195 0.807236 9.96142 1.09748 9.14873C1.67798 7.52335 2.36887 5.68068 2.82053 4.32567C3.00085 3.78437 3.23543 3.21618 3.6586 2.72519C4.0818 2.23421 4.7638 1.84746 5.53846 1.84746L16.6156 1.84746C16.9389 1.84746 17.2454 1.91432 17.5348 2.01868V1.84746C17.5348 0.840958 18.3739 5.72205e-05 19.3804 5.72205e-05H22.1526ZM22.1526 1.84746H19.3806V4.61945L19.3806 12.9228V14.7702H22.1526L22.1526 1.84746ZM16.6158 3.69305L5.53863 3.69305C5.291 3.69305 5.21881 3.74164 5.05562 3.93096C4.89239 4.12027 4.71382 4.48454 4.57079 4.91323C4.09966 6.32661 3.40811 8.16432 2.83511 9.76873C2.54877 10.5709 2.29231 11.3142 2.11238 11.8955C1.93242 12.4768 1.84557 12.9997 1.84557 12.9228C1.84557 13.45 2.24659 13.842 2.77376 13.842H9.31264C9.82513 13.8401 10.241 14.2578 10.2391 14.7702C10.2391 15.8603 10.0022 17.8073 10.2931 19.4563C10.4386 20.2808 10.712 20.9759 11.1042 21.4245C11.3947 21.7569 11.8047 22.0181 12.4235 22.1184C12.5163 21.5917 12.5794 20.6943 12.6976 19.851C12.9386 18.1316 13.3916 15.9551 15.2317 14.8928C15.9162 14.4976 16.5792 14.2673 16.9764 13.9934C17.3736 13.7195 17.5351 13.5726 17.5351 12.9228L17.5351 4.61945C17.5351 4.09226 17.1431 3.69305 16.6159 3.69305H16.6158Z" fill="#7B87F0"/>
</svg>
