<svg width="24" height="24" viewBox="0 0 24 24" fill="none" xmlns="http://www.w3.org/2000/svg">
<path d="M1.84742 23.9999C0.840929 23.9999 0 23.159 0 22.1525V9.22978C0 8.22328 0.840929 7.38418 1.84742 7.38418H4.6194C5.30258 7.38418 5.90087 7.77616 6.21989 8.33942C6.84294 7.95767 7.45522 7.7342 7.84919 7.50674C8.77752 6.97078 9.24913 5.46166 9.46949 3.88945C9.5797 3.10334 9.6383 2.34795 9.73456 1.71763C9.78269 1.40247 9.83047 1.12272 9.95986 0.818262C10.0244 0.666032 10.1095 0.498973 10.2877 0.328025C10.4659 0.157077 10.7785 0 11.0772 0C12.446 0 13.568 0.535029 14.2853 1.35536C15.0026 2.17569 15.3379 3.2036 15.5181 4.22468C15.8125 5.89177 15.7009 7.303 15.6444 8.31058H21.2262C22.7439 8.31058 24 9.55945 24 11.0772C24 11.6155 23.8472 12.0207 23.6523 12.6506C23.4573 13.2805 23.1928 14.0386 22.9025 14.8513C22.322 16.4767 21.6311 18.3193 21.1795 19.6743C20.9991 20.2156 20.7646 20.7838 20.3414 21.2748C19.9182 21.7658 19.2362 22.1525 18.4615 22.1525H7.38438C7.06107 22.1525 6.75463 22.0857 6.46519 21.9813V22.1525C6.46519 23.159 5.62607 23.9999 4.61958 23.9999H1.84742ZM1.84742 22.1525H4.6194V19.3806V11.0772V9.22978H1.84742V22.1525ZM7.3842 20.3069H18.4614C18.709 20.3069 18.7812 20.2584 18.9444 20.069C19.1076 19.8797 19.2862 19.5155 19.4292 19.0868C19.9003 17.6734 20.5919 15.8357 21.1649 14.2313C21.4512 13.4291 21.7077 12.6858 21.8876 12.1045C22.0676 11.5232 22.1544 11.0003 22.1544 11.0772C22.1544 10.55 21.7534 10.158 21.2262 10.158H14.6874C14.1749 10.1599 13.759 9.74224 13.7609 9.22978C13.7609 8.13966 13.9978 6.19273 13.7069 4.5437C13.5614 3.71918 13.288 3.02406 12.8958 2.57554C12.6053 2.24314 12.1953 1.98191 11.5765 1.88164C11.4837 2.40835 11.4206 3.3057 11.3024 4.14898C11.0614 5.86837 10.6084 8.04485 8.76828 9.10722C8.08378 9.50242 7.42083 9.73269 7.02361 10.0066C6.62642 10.2805 6.46491 10.4274 6.46491 11.0772V19.3806C6.46491 19.9077 6.85689 20.3069 7.3841 20.3069H7.3842Z" fill="#7B87F0"/>
</svg>
