<svg width="24" height="24" viewBox="0 0 24 24" fill="none" xmlns="http://www.w3.org/2000/svg">
<path d="M12 24C5.37258 24 0 18.6274 0 12C0 5.37258 5.37258 0 12 0C18.6274 0 24 5.37258 24 12C23.9927 18.6244 18.6244 23.9927 12 24ZM12 2.4C6.69807 2.4 2.4 6.69807 2.4 12C2.4 17.3019 6.69807 21.6 12 21.6C17.3019 21.6 21.6 17.3019 21.6 12C21.594 6.70053 17.2995 2.40595 12 2.4ZM16.8 18H7.2V15.6H16.8V18ZM7.8 12C6.80589 12 6 11.1941 6 10.2C6 9.20589 6.80589 8.4 7.8 8.4C8.79411 8.4 9.6 9.20589 9.6 10.2C9.6 11.1941 8.79411 12 7.8 12ZM16.1916 11.9832C15.2021 11.9832 14.4 11.1811 14.4 10.1916C14.4 9.20213 15.2021 8.4 16.1916 8.4C17.1811 8.4 17.9832 9.20213 17.9832 10.1916C17.9819 11.1805 17.1805 11.9819 16.1916 11.9832Z" fill="#7B87F0"/>
</svg>
