<svg width="18" height="16" viewBox="0 0 18 16" fill="none" xmlns="http://www.w3.org/2000/svg">
<path d="M1.38511 1.36306C3.23202 -0.454352 6.23567 -0.454352 8.08246 1.36306L17.0124 10.1503C18.3292 11.4461 18.3292 13.562 17.0124 14.8576C15.6956 16.1534 13.5454 16.1534 12.2287 14.8576L3.29875 6.07034C2.51191 5.29607 2.51191 4.02012 3.29875 3.24585C4.08559 2.47158 5.38226 2.47158 6.1691 3.24585L14.1422 11.0916C14.2722 11.2157 14.3461 11.386 14.3475 11.5643C14.3488 11.7427 14.2773 11.914 14.1493 12.04C14.0211 12.1662 13.847 12.2363 13.6659 12.2351C13.4847 12.2337 13.3116 12.1609 13.1853 12.0331L5.21219 4.18732C4.93895 3.91844 4.52868 3.91828 4.25545 4.18732C3.9822 4.45619 3.9822 4.8599 4.25545 5.12877L13.1854 13.916C13.9887 14.7066 15.2524 14.7066 16.0557 13.916C16.8591 13.1255 16.8591 11.8821 16.0557 11.0916L7.12579 2.30428C5.79232 0.992276 3.67527 0.992276 2.34208 2.30428C1.00861 3.61629 1.00877 5.69968 2.34208 7.01157L10.3152 14.8573C10.4448 14.9816 10.5184 15.1517 10.5195 15.3299C10.5208 15.5079 10.4494 15.6791 10.3215 15.8051C10.1934 15.9309 10.0196 16.0012 9.83857 16C9.65767 15.9989 9.48463 15.9265 9.35831 15.7988L1.38519 7.95302C-0.461729 6.13561 -0.461729 3.17996 1.38519 1.36266L1.38511 1.36306Z" fill="#676F7A"/>
</svg>
