<svg width="18" height="18" viewBox="0 0 18 18" fill="none" xmlns="http://www.w3.org/2000/svg">
<rect x="0.5" y="0.5" width="17" height="17" rx="3.5" fill="#676F7A" stroke="#676F7A"/>
<path d="M7.16772 8.06108C7.13192 7.93665 7.08164 7.8267 7.01687 7.73125C6.9521 7.63409 6.87283 7.55227 6.77908 7.4858C6.68704 7.41761 6.58136 7.36563 6.46204 7.32983C6.34442 7.29403 6.21403 7.27614 6.07085 7.27614C5.80323 7.27614 5.568 7.34261 5.36516 7.47557C5.16403 7.60852 5.00721 7.80199 4.89471 8.05597C4.78221 8.30824 4.72596 8.61676 4.72596 8.98153C4.72596 9.34631 4.78136 9.65653 4.89215 9.91222C5.00295 10.1679 5.15977 10.3631 5.36261 10.4977C5.56545 10.6307 5.80494 10.6972 6.08107 10.6972C6.33164 10.6972 6.54556 10.6528 6.72283 10.5642C6.90181 10.4739 7.03817 10.3469 7.13192 10.1832C7.22738 10.0196 7.27511 9.82614 7.27511 9.60284L7.50011 9.63608H6.15011V8.80256H8.3413V9.46222C8.3413 9.92244 8.24414 10.3179 8.04982 10.6486C7.8555 10.9776 7.58789 11.2315 7.24698 11.4105C6.90607 11.5878 6.51573 11.6764 6.07596 11.6764C5.58505 11.6764 5.1538 11.5682 4.78221 11.3517C4.41062 11.1335 4.12085 10.8241 3.91289 10.4236C3.70664 10.0213 3.60352 9.54403 3.60352 8.99176C3.60352 8.56733 3.66488 8.18892 3.78761 7.85653C3.91204 7.52244 4.0859 7.23949 4.3092 7.00767C4.53249 6.77585 4.79244 6.59943 5.08903 6.47841C5.38562 6.35739 5.70692 6.29688 6.05295 6.29688C6.34954 6.29688 6.62567 6.34034 6.88136 6.42727C7.13704 6.5125 7.36374 6.63352 7.56147 6.79034C7.7609 6.94716 7.92369 7.13381 8.04982 7.35028C8.17596 7.56506 8.25692 7.80199 8.29272 8.06108H7.16772Z" fill="white"/>
<path d="M10.28 6.36847V11.6048H9.1729V6.36847H10.28Z" fill="white"/>
<path d="M11.1909 11.6048V6.36847H14.6579V7.28125H12.298V8.52898H14.4278V9.44176H12.298V11.6048H11.1909Z" fill="white"/>
</svg>
