<svg width="18" height="14" viewBox="0 0 18 14" fill="none" xmlns="http://www.w3.org/2000/svg">
<path fill-rule="evenodd" clip-rule="evenodd" d="M2.72755 0H15.2724C16.7731 0 18 1.23664 18 2.74494V11.2551C18 12.7634 16.7731 14 15.2724 14H2.72755C1.22687 14 0 12.7634 0 11.2551V2.74494C0 1.23664 1.22687 0 2.72755 0ZM12.8588 2.01477C13.6302 2.01477 14.2547 2.64321 14.2547 3.41956C14.2547 4.19591 13.6302 4.82626 12.8588 4.82626C12.0874 4.82626 11.461 4.19587 11.461 3.41956C11.461 2.64321 12.0874 2.01477 12.8588 2.01477ZM3.86239 9.70068L7.06746 4.46397C7.33562 4.15349 7.94355 4.15349 8.21171 4.46397L10.2928 7.86147L11.1175 6.51396C11.3085 6.29218 11.7401 6.29218 11.9312 6.51396L14.2069 10.233C14.6367 10.9354 14.1831 11.7967 13.4227 11.7967H4.9645C3.88266 11.7967 3.2564 10.6895 3.86239 9.70058V9.70068Z" fill="#676F7A"/>
</svg>
