<svg width="18" height="15" viewBox="0 0 18 15" fill="none" xmlns="http://www.w3.org/2000/svg">
<path d="M7.2 0V6.5625H1.8V0H0V15H1.8V8.4375H7.2V15H9V0H7.2Z" fill="#676F7A"/>
<path d="M18 7.26562C18 5.32406 16.3882 3.75 14.4 3.75C12.4118 3.75 10.8 5.32406 10.8 7.26562H12.72L12.7258 7.13062C12.7958 6.28781 13.5187 5.625 14.4 5.625C15.3274 5.625 16.08 6.36 16.08 7.26562C16.08 7.67719 15.9245 8.05406 15.6672 8.34187L10.8 13.5413V15H18V13.125H13.9526L17.1168 9.57188L17.2589 9.40312C17.7235 8.81062 18 8.06906 18 7.26562Z" fill="#676F7A"/>
</svg>
