<svg width="18" height="15" viewBox="0 0 18 15" fill="none" xmlns="http://www.w3.org/2000/svg">
<path d="M7.2 0V6.5625H1.8V0H0V15H1.8V8.4375H7.2V15H9V0H7.2Z" fill="#676F7A"/>
<path d="M17.7559 5.625L17.7578 3.75H11.25V5.625H15.1905L12.3316 8.70275L13.5978 10.1235C13.8284 10.0123 14.09 9.94898 14.3671 9.94898C15.3029 9.94898 16.0624 10.669 16.0624 11.5561C16.0624 12.4433 15.3029 13.1633 14.3671 13.1633C13.5417 13.1633 12.8538 12.604 12.7027 11.8638L10.8 12.2146C11.1245 13.8015 12.5981 15 14.3671 15C16.3734 15 18 13.4581 18 11.5561C18 9.9701 16.8694 8.63388 15.3291 8.23439L17.7559 5.625Z" fill="#676F7A"/>
</svg>
