<svg width="18" height="16" viewBox="0 0 18 16" fill="none" xmlns="http://www.w3.org/2000/svg">
<path d="M16.2 0H1.8C0.807463 0 0 0.828167 0 1.84615V14.1538C0 15.1718 0.807463 16 1.8 16H16.2C17.1925 16 18 15.1718 18 14.1538V1.84615C18 0.828167 17.1925 0 16.2 0ZM12.3182 8.52185L7.51817 11.5988C7.42081 11.661 7.31072 11.6922 7.19996 11.6922C7.09978 11.6922 6.9996 11.6666 6.90933 11.615C6.71835 11.5065 6.59996 11.3007 6.59996 11.0768V4.92293C6.59996 4.69903 6.71835 4.49325 6.90933 4.38474C7.09978 4.27622 7.33293 4.28281 7.51818 4.40094L12.3182 7.47787C12.4934 7.59064 12.6 7.78776 12.6 7.99985C12.6 8.21195 12.4934 8.40907 12.3182 8.52184L12.3182 8.52185Z" fill="#676F7A"/>
</svg>
