<svg width="32" height="24" viewBox="0 0 32 24" fill="none" xmlns="http://www.w3.org/2000/svg">
<path fill-rule="evenodd" clip-rule="evenodd" d="M4.84898 0H27.151C29.8189 0 32 2.11996 32 4.70562V19.2944C32 21.88 29.8189 24 27.151 24H4.84898C2.18111 24 0 21.88 0 19.2944V4.70562C0 2.11996 2.18111 0 4.84898 0V0ZM22.8601 3.4539C24.2315 3.4539 25.3416 4.53122 25.3416 5.8621C25.3416 7.19298 24.2315 8.27359 22.8601 8.27359C21.4886 8.27359 20.3751 7.19293 20.3751 5.8621C20.3751 4.53122 21.4887 3.4539 22.8601 3.4539ZM6.86647 16.6297L12.5644 7.65251C13.0411 7.12026 14.1219 7.12026 14.5986 7.65251L18.2983 13.4768L19.7644 11.1668C20.104 10.7866 20.8714 10.7866 21.211 11.1668L25.2567 17.5422C26.0208 18.7464 25.2143 20.2229 23.8625 20.2229H8.82577C6.90251 20.2229 5.78915 18.3249 6.86647 16.6296V16.6297Z" fill="#8B939D"/>
</svg>
