<svg width="18" height="16" viewBox="0 0 18 16" fill="none" xmlns="http://www.w3.org/2000/svg">
<path d="M8.55556 10.7857C7.81918 10.7857 7.22222 10.1621 7.22222 9.39286C7.22222 8.6236 7.81918 8 8.55556 8M17 4.47138V11.5285C17 12.5686 17.0002 13.0888 16.8064 13.486C16.636 13.8355 16.3637 14.1195 16.0291 14.2976C15.6489 14.5 15.1514 14.5 14.1557 14.5H3.84462C2.84897 14.5 2.35077 14.5 1.97049 14.2976C1.63598 14.1195 1.36421 13.8355 1.19377 13.486C1 13.0888 1 12.5686 1 11.5285V4.47138C1 3.43129 1 2.9113 1.19377 2.51404C1.36421 2.16459 1.63598 1.88047 1.97049 1.70242C2.35077 1.5 2.84897 1.5 3.84462 1.5H14.1557C15.1514 1.5 15.6489 1.5 16.0291 1.70242C16.3637 1.88047 16.636 2.16459 16.8064 2.51404C17.0002 2.9113 17 3.43129 17 4.47138ZM13.4444 9.39286C13.4444 10.1621 12.8475 10.7857 12.1111 10.7857C11.3747 10.7857 10.7778 10.1621 10.7778 9.39286C10.7778 8.6236 11.3747 8 12.1111 8C12.8475 8 13.4444 8.6236 13.4444 9.39286Z" stroke="#696E77" stroke-width="2" stroke-linecap="round" stroke-linejoin="round"/>
</svg>
