<svg width="11" height="14" viewBox="0 0 11 14" fill="none" xmlns="http://www.w3.org/2000/svg">
<path d="M8.9627 1.37599C7.97265 0.489932 6.65263 0 5.2501 0C3.84757 0 2.52756 0.490047 1.5375 1.37599C0.54744 2.26204 0 3.44339 0 4.69858C0 5.95377 0.547569 7.13512 1.5375 8.02117C2.5013 8.88373 3.075 9.65224 3.3938 10.5114L3.48006 10.7396H7.04255L7.11375 10.4846C7.42501 9.36691 8.17121 8.71246 8.77127 8.18893L8.9625 8.02116C9.95256 7.1351 10.5 5.95376 10.5 4.69856C10.5001 3.44337 9.95276 2.26204 8.9627 1.37599ZM8.43397 7.54796L8.25028 7.71235C7.66153 8.22915 6.87022 8.92057 6.46894 10.0717L4.01258 10.0718C3.64504 9.20927 3.01875 8.4038 2.06624 7.55134C1.2187 6.78608 0.749984 5.77587 0.749984 4.69857C0.749984 3.62127 1.2187 2.61106 2.07 1.85253C2.91753 1.09067 4.04633 0.671184 5.25011 0.671184C6.45389 0.671184 7.58265 1.09067 8.43398 1.85253C9.28151 2.61103 9.75023 3.62125 9.75023 4.69857C9.75023 5.7759 9.28151 6.78606 8.43397 7.54796Z" fill="#A4A4A4"/>
<path d="M3.00003 11.6985H7.50015V12.3697H3.00003V11.6985Z" fill="#A4A4A4"/>
<path d="M3.74997 13.3288H6.75001V14H3.74997V13.3288Z" fill="#A4A4A4"/>
</svg>
