<svg width="14" height="16" viewBox="0 0 14 16" fill="none" xmlns="http://www.w3.org/2000/svg">
<path d="M10.8889 16H3.11111C2.252 16 1.55556 15.2837 1.55556 14.4V4H0V2.4H3.11111V1.6C3.11111 0.716344 3.80756 0 4.66667 0H9.33333C10.1924 0 10.8889 0.716344 10.8889 1.6V2.4H14V4H12.4444V14.4C12.4444 15.2837 11.748 16 10.8889 16ZM3.11111 4V14.4H10.8889V4H3.11111ZM4.66667 1.6V2.4H9.33333V1.6H4.66667ZM9.33333 12.8H7.77778V5.6H9.33333V12.8ZM6.22222 12.8H4.66667V5.6H6.22222V12.8Z" fill="#FF5164"/>
</svg>
