<svg width="12" height="12" viewBox="0 0 12 12" fill="none" xmlns="http://www.w3.org/2000/svg">
<path d="M4.7286 3.59668L6 0.744409L7.2714 3.59668C7.43138 3.95558 7.77054 4.202 8.16132 4.24324L11.2669 4.57101L8.94709 6.66159C8.65518 6.92465 8.52564 7.32335 8.60717 7.70775L9.2551 10.7626L6.55 9.20237C6.20961 9.00604 5.79039 9.00604 5.45 9.20237L2.7449 10.7626L3.39283 7.70775C3.47436 7.32335 3.34482 6.92465 3.05291 6.66159L0.733129 4.57101L3.83868 4.24324C4.22946 4.202 4.56862 3.95558 4.7286 3.59668ZM6.0905 0.541383L6.09058 0.541206L6 0.500831L6.09058 0.541206C6.09055 0.541265 6.09053 0.541324 6.0905 0.541383Z" stroke="#2A2B30" stroke-width="1.2"/>
</svg>
