<svg width="18" height="16" viewBox="0 0 18 16" fill="none" xmlns="http://www.w3.org/2000/svg">
<path d="M1 2.75V12.2C1 13.1801 1 13.6701 1.19376 14.0445C1.3642 14.3738 1.63597 14.6415 1.97047 14.8092C2.35076 15 2.84895 15 3.84458 15H14.1556C15.1512 15 15.6487 15 16.029 14.8092C16.3635 14.6415 16.6358 14.3738 16.8062 14.0445C17 13.6701 17 13.1801 17 12.2L17 5.55002C17 4.56993 17 4.07988 16.8062 3.70554C16.6358 3.37625 16.3635 3.10852 16.029 2.94074C15.6487 2.75 15.151 2.75 14.1554 2.75H1ZM1 2.75C1 1.7835 1.79593 1 2.77776 1H6.04395C6.47878 1 6.69644 1 6.90104 1.04835C7.08244 1.09122 7.25579 1.16195 7.41485 1.2579C7.59426 1.36612 7.74801 1.51743 8.05547 1.8201L9.00012 2.75" stroke="#696E77" stroke-width="2" stroke-linecap="round" stroke-linejoin="round"/>
</svg>
