<svg width="16" height="16" viewBox="0 0 16 16" fill="none" xmlns="http://www.w3.org/2000/svg">
<path fill-rule="evenodd" clip-rule="evenodd" d="M0 8C0 3.584 3.584 0 8 0C12.416 0 16 3.584 16 8C16 12.416 12.416 16 8 16C3.584 16 0 12.416 0 8ZM8.8 11.2V12.8H7.2V11.2H8.8ZM8 14.4C4.472 14.4 1.6 11.528 1.6 8C1.6 4.472 4.472 1.6 8 1.6C11.528 1.6 14.4 4.472 14.4 8C14.4 11.528 11.528 14.4 8 14.4ZM4.8 6.4C4.8 4.632 6.232 3.2 8 3.2C9.768 3.2 11.2 4.632 11.2 6.4C11.2 7.42633 10.568 7.97866 9.95261 8.51643C9.36882 9.02661 8.8 9.5237 8.8 10.4H7.2C7.2 8.94298 7.95369 8.36527 8.61635 7.85734C9.13619 7.45889 9.6 7.10337 9.6 6.4C9.6 5.52 8.88 4.8 8 4.8C7.12 4.8 6.4 5.52 6.4 6.4H4.8Z" fill="#37352F"/>
</svg>
