<svg width="12" height="13" viewBox="0 0 12 13" fill="none" xmlns="http://www.w3.org/2000/svg">
<path fill-rule="evenodd" clip-rule="evenodd" d="M0 6.46484C0 3.15284 2.688 0.464844 6 0.464844C9.312 0.464844 12 3.15284 12 6.46484C12 9.77684 9.312 12.4648 6 12.4648C2.688 12.4648 0 9.77684 0 6.46484ZM6.6 8.86484V10.0648H5.4V8.86484H6.6ZM6 11.2648C3.354 11.2648 1.2 9.11084 1.2 6.46484C1.2 3.81884 3.354 1.66484 6 1.66484C8.646 1.66484 10.8 3.81884 10.8 6.46484C10.8 9.11084 8.646 11.2648 6 11.2648ZM3.6 5.26484C3.6 3.93884 4.674 2.86484 6 2.86484C7.326 2.86484 8.4 3.93884 8.4 5.26484C8.4 6.03459 7.92599 6.44884 7.46446 6.85217C7.02661 7.2348 6.6 7.60762 6.6 8.26484H5.4C5.4 7.17208 5.96527 6.7388 6.46227 6.35785C6.85214 6.05901 7.2 5.79237 7.2 5.26484C7.2 4.60484 6.66 4.06484 6 4.06484C5.34 4.06484 4.8 4.60484 4.8 5.26484H3.6Z" fill="#2A2B30"/>
</svg>
