<svg width="12" height="15" viewBox="0 0 12 15" fill="none" xmlns="http://www.w3.org/2000/svg">
<path d="M11.25 14.4619H0.75C0.335786 14.4619 0 14.1247 0 13.7087V6.48808C0 6.28832 0.079088 6.09676 0.21975 5.95553L5.46975 0.68283C5.61042 0.541389 5.80132 0.461914 6.00037 0.461914C6.19943 0.461914 6.39032 0.541389 6.531 0.68283L11.781 5.95553C11.9218 6.0966 12.0007 6.28833 12 6.48808V13.7087C12 14.1247 11.6642 14.4619 11.25 14.4619ZM4.5 9.18921H7.5V12.9554H10.5V6.79992L6 2.28046L1.5 6.79992V12.9554H4.5V9.18921Z" fill="#2A2B30"/>
</svg>
