<svg width="18" height="18" viewBox="0 0 18 18" fill="none" xmlns="http://www.w3.org/2000/svg">
<path fill-rule="evenodd" clip-rule="evenodd" d="M1 16.9999L17 17L1 16.9999Z" fill="#37352F"/>
<path d="M1 16.9999L17 17M1 16.9999H7V13.0837C7 12.0023 7.89543 11.1256 9 11.1256C10.1046 11.1256 11 12.0023 11 13.0837V16.9999L17 17M1 16.9999V8.63118C1 8.10803 1 7.84644 1.06497 7.60301C1.12255 7.38729 1.2173 7.18271 1.34521 6.99823C1.48955 6.79006 1.69064 6.61786 2.09277 6.27337L6.89278 2.16138C7.63939 1.52178 8.01249 1.20202 8.43262 1.08039C8.80281 0.973205 9.19719 0.973205 9.56738 1.08039C9.98751 1.20202 10.3608 1.52178 11.1074 2.16138L15.9074 6.27337C16.3096 6.61786 16.5104 6.79006 16.6548 6.99823C16.7827 7.18271 16.8775 7.38729 16.9351 7.60301C17 7.84644 17 8.10804 17 8.63118V17" stroke="#37352F" stroke-width="2" stroke-linecap="round" stroke-linejoin="round"/>
</svg>
