<svg width="18" height="20" viewBox="0 0 18 20" fill="none" xmlns="http://www.w3.org/2000/svg">
<path d="M1.41406 12.5858L1.80356 12.1963C1.92923 12.0706 1.99999 11.9002 1.99999 11.7224V8C1.99999 4.13401 5.13396 1.00001 8.9999 1C12.8658 0.999991 15.9998 4.134 15.9998 8V11.7224C15.9998 11.9001 16.0704 12.0706 16.1961 12.1963L16.5856 12.5858C16.7049 12.7051 16.7647 12.7648 16.8122 12.831C16.9021 12.9561 16.9617 13.1003 16.9866 13.2523C16.9998 13.3328 17 13.4171 17 13.5858C17 13.9714 17 14.1642 16.9475 14.3197C16.8477 14.6155 16.6154 14.8477 16.3196 14.9475C16.1641 15 15.971 15 15.5854 15H2.41404C2.0285 15 1.83567 15 1.68017 14.9475C1.3843 14.8477 1.15225 14.6155 1.05245 14.3196C1 14.1641 1 13.9714 1 13.5858C1 13.4171 1 13.3328 1.0132 13.2523C1.03815 13.1003 1.09765 12.9561 1.1875 12.831C1.23504 12.7648 1.29475 12.7051 1.41406 12.5858ZM11.9999 15V16C11.9999 17.6569 10.6567 19 8.9999 19C7.34306 19 5.99993 17.6569 5.99993 16V15H11.9999Z" stroke="#696E77" stroke-width="2" stroke-linecap="round" stroke-linejoin="round"/>
</svg>
