<svg width="12" height="14" viewBox="0 0 12 14" fill="none" xmlns="http://www.w3.org/2000/svg">
<path fill-rule="evenodd" clip-rule="evenodd" d="M6.00009 0.000104348C3.31306 0.000104348 1.13503 2.18083 1.13503 4.87004V6.59025L0.295844 8.94216C0.204626 9.19783 0.124912 9.42109 0.0738058 9.60769C0.0209695 9.8007 -0.0205688 10.0179 0.0108885 10.2489C0.0776734 10.7392 0.37842 11.1665 0.817285 11.3943C1.02405 11.5017 1.24241 11.5356 1.44177 11.5507C1.63448 11.5652 1.87148 11.5652 2.14271 11.5652H3.5676C3.5676 12.9099 4.65661 14 6.00005 14C7.34349 14 8.43251 12.9098 8.43251 11.5652H9.85739C10.1286 11.5652 10.3655 11.5652 10.5583 11.5507C10.7577 11.5356 10.9759 11.5017 11.1827 11.3943C11.6216 11.1665 11.9223 10.7392 11.9891 10.2489C12.0206 10.0178 11.979 9.80069 11.9262 9.60769C11.8751 9.42111 11.7954 9.19784 11.7042 8.94206L10.865 6.59015V4.86994C10.865 2.18062 8.68694 0 5.99991 0L6.00009 0.000104348ZM7.21637 11.5653H4.78392C4.78392 12.2376 5.32849 12.7827 6.0002 12.7827C6.6719 12.7827 7.21648 12.2376 7.21648 11.5653H7.21637ZM9.83564 10.3479C10.135 10.3479 10.3255 10.3475 10.4668 10.3368C10.5818 10.3281 10.6195 10.3148 10.6241 10.313C10.7112 10.2673 10.7709 10.1822 10.7842 10.0845C10.7828 10.0949 10.7906 10.0652 10.7534 9.92966C10.7159 9.7928 10.6522 9.61324 10.5516 9.33098L9.68915 6.91375C9.6642 6.84395 9.64893 6.76609 9.64893 6.68192V4.86989C9.64893 2.85273 8.01524 1.21717 6.0002 1.21717C3.98516 1.21717 2.35146 2.8527 2.35146 4.86989V6.68192C2.35146 6.7661 2.33609 6.84395 2.31125 6.91375L1.44874 9.33098C1.34805 9.61324 1.28442 9.7928 1.24686 9.92966C1.21642 10.0409 1.21621 10.0809 1.21632 10.0859C1.22996 10.183 1.28951 10.2675 1.37625 10.313C1.38094 10.3148 1.4185 10.3281 1.53344 10.3368C1.67485 10.3475 1.86521 10.3479 2.16465 10.3479H9.83564Z" fill="#2A2B30"/>
</svg>
