<svg width="17" height="14" viewBox="0 0 17 14" fill="none" xmlns="http://www.w3.org/2000/svg">
<path d="M5.71667 0C3.4615 0 1.63333 1.74111 1.63333 3.88889C1.63333 6.03666 3.4615 7.77778 5.71667 7.77778C7.97183 7.77778 9.8 6.03666 9.8 3.88889C9.8 1.74111 7.97183 0 5.71667 0ZM3.26667 3.88889C3.26667 2.60022 4.36357 1.55556 5.71667 1.55556C7.06977 1.55556 8.16667 2.60022 8.16667 3.88889C8.16667 5.17755 7.06977 6.22222 5.71667 6.22222C4.36357 6.22222 3.26667 5.17755 3.26667 3.88889Z" fill="#A4A4A4"/>
<path d="M12.1752 4.05866C11.9455 3.9471 11.6912 3.88894 11.4333 3.88894V2.33338C11.9491 2.33338 12.4576 2.44966 12.9171 2.67279C12.9677 2.69737 13.0176 2.72316 13.0667 2.75014C13.4631 2.96811 13.8075 3.26331 14.0771 3.6171C14.3801 4.01467 14.5799 4.47492 14.6602 4.96018C14.7405 5.44543 14.699 5.94189 14.5391 6.40893C14.3792 6.87597 14.1054 7.30031 13.7402 7.64721C13.375 7.99412 12.9287 8.25373 12.4379 8.40479C12.0012 8.53922 11.5402 8.5843 11.0851 8.53782C11.0287 8.53207 10.9725 8.52492 10.9164 8.51636C10.4074 8.43867 9.92502 8.24739 9.50855 7.95814L9.5077 7.95755L10.4705 6.701C10.6788 6.84578 10.9202 6.94149 11.1749 6.98035C11.4295 7.01922 11.6902 7.00011 11.9356 6.92457C12.181 6.84904 12.4041 6.71924 12.5867 6.5458C12.7693 6.37235 12.9062 6.16019 12.9861 5.92667C13.0661 5.69316 13.0869 5.44494 13.0467 5.20232C13.0066 4.9597 12.9067 4.72958 12.7552 4.5308C12.6037 4.33202 12.405 4.17022 12.1752 4.05866Z" fill="#A4A4A4"/>
<path d="M14.6985 14C14.6985 13.5916 14.614 13.1873 14.4499 12.81C14.2858 12.4327 14.0453 12.0899 13.7421 11.8012C13.4389 11.5124 13.079 11.2833 12.6828 11.1271C12.2867 10.9708 11.8621 10.8904 11.4333 10.8904V9.33333C11.9904 9.33333 12.5427 9.42379 13.0667 9.60022C13.148 9.62761 13.2286 9.65706 13.3085 9.68856C13.903 9.92308 14.4432 10.2668 14.8982 10.7002C15.3532 11.1335 15.7141 11.648 15.9603 12.2141C15.9934 12.2902 16.0243 12.367 16.0531 12.4444C16.2384 12.9435 16.3333 13.4695 16.3333 14H14.6985Z" fill="#A4A4A4"/>
<path d="M11.4333 14H9.8C9.8 11.8522 7.97183 10.1111 5.71667 10.1111C3.4615 10.1111 1.63333 11.8522 1.63333 14H0C0 10.9931 2.55944 8.55556 5.71667 8.55556C8.8739 8.55556 11.4333 10.9931 11.4333 14Z" fill="#A4A4A4"/>
</svg>
