<svg width="10" height="10" viewBox="0 0 10 10" fill="none" xmlns="http://www.w3.org/2000/svg">
<path d="M5 0C4.65487 0 4.37497 0.279884 4.37497 0.625028V4.37497H0.625028C0.279895 4.37497 0 4.65471 0 5C0 5.34513 0.279884 5.62503 0.625028 5.62503H4.37497V9.37497C4.37497 9.7201 4.65486 10 5 10C5.34514 10 5.62503 9.72011 5.62503 9.37497V5.62503H9.37497C9.7201 5.62503 10 5.34514 10 5C10 4.65486 9.72012 4.37497 9.37497 4.37497H5.62503V0.625028C5.62503 0.279895 5.34529 0 5 0Z" fill="#696E77"/>
</svg>
