<svg width="12" height="12" viewBox="0 0 12 12" fill="none" xmlns="http://www.w3.org/2000/svg">
<path d="M6 0C4.4087 0 2.88261 0.632118 1.75734 1.75734C0.632118 2.88256 0 4.40878 0 6C0 7.59122 0.632118 9.11739 1.75734 10.2427C2.88256 11.3679 4.40878 12 6 12C7.5913 12 9.11739 11.3679 10.2427 10.2427C11.3679 9.11744 12 7.59122 12 6C11.9983 4.40921 11.3656 2.88416 10.2408 1.7594C9.11584 0.634483 7.59097 0.00169717 6 0ZM6 10.8002C4.72692 10.8002 3.50609 10.2944 2.60592 9.39418C1.7057 8.49406 1.19995 7.27313 1.19995 6.0001C1.19995 4.72707 1.7057 3.50609 2.60592 2.60603C3.50614 1.70581 4.72697 1.20005 6 1.20005C7.27308 1.20005 8.49401 1.70581 9.39408 2.60603C10.2943 3.50614 10.8001 4.72707 10.8001 6.0001C10.7985 7.27267 10.2924 8.49283 9.39248 9.39264C8.49267 10.2925 7.27267 10.7987 6 10.8002Z" fill="#2A2B30"/>
<path d="M6.60019 5.75168V2.40003C6.60019 2.18567 6.48588 1.98759 6.30025 1.88041C6.11463 1.77323 5.88591 1.77323 5.70018 1.88041C5.51455 1.98759 5.40024 2.18567 5.40024 2.40003V6.00008C5.40024 6.15919 5.46342 6.31177 5.57592 6.42427L7.23742 8.08577C7.3896 8.23413 7.60897 8.29088 7.814 8.23503C8.01911 8.17918 8.17933 8.01897 8.23518 7.81385C8.29113 7.60884 8.23427 7.38946 8.08591 7.23728L6.60019 5.75168Z" fill="#2A2B30"/>
</svg>
