<svg width="12" height="14" viewBox="0 0 12 14" fill="none" xmlns="http://www.w3.org/2000/svg">
<path fill-rule="evenodd" clip-rule="evenodd" d="M6.43965 1.59521C6.55584 1.59521 6.65999 1.66722 6.70174 1.77632C7.23199 3.16425 8.65366 3.99049 10.1129 3.75876C10.2276 3.7406 10.3416 3.79529 10.3997 3.89663L10.8394 4.66318C10.8975 4.76443 10.8876 4.89122 10.8146 4.98215C9.88565 6.13844 9.88565 7.79086 10.8146 8.94705C10.8876 9.03798 10.8975 9.16478 10.8394 9.26602L10.3997 10.0326C10.3417 10.1338 10.2276 10.1886 10.1129 10.1704C8.65366 9.9388 7.23211 10.765 6.70174 12.1529C6.66 12.262 6.55585 12.3341 6.43965 12.3341H5.56037C5.44418 12.3341 5.34003 12.2621 5.29828 12.1529C4.76803 10.765 3.34636 9.93872 1.88717 10.1704C1.7724 10.1887 1.65837 10.1338 1.60028 10.0326L1.16062 9.26602C1.10253 9.16478 1.1124 9.03798 1.18544 8.94705C2.11437 7.79077 2.11437 6.13834 1.18544 4.98215C1.1124 4.89122 1.10253 4.76443 1.16062 4.66318L0.188087 4.098C-0.102369 4.60432 -0.0529411 5.23839 0.312263 5.69306C0.908143 6.43471 0.908143 7.49478 0.312263 8.23653C-0.0529363 8.6912 -0.102364 9.32525 0.188087 9.83159L0.627741 10.5981C0.918101 11.1045 1.48842 11.3785 2.06209 11.2874C2.99815 11.1388 3.91006 11.6688 4.25016 12.559C4.45866 13.1047 4.97953 13.4648 5.56034 13.4648H6.43963C7.02047 13.4648 7.54132 13.1048 7.74981 12.559C8.09001 11.6687 9.0018 11.1387 9.93788 11.2874C10.5117 11.3785 11.0818 11.1045 11.3722 10.5981L11.8119 9.83159C12.1022 9.32527 12.0529 8.6912 11.6877 8.23653C11.0918 7.49488 11.0918 6.43491 11.6877 5.69306C12.053 5.23849 12.1023 4.60434 11.8119 4.098L11.3722 3.33145C11.0819 2.82513 10.5116 2.55109 9.93788 2.64222C9.00183 2.79078 8.08991 2.26089 7.74981 1.37058C7.54131 0.824902 7.02044 0.464844 6.43963 0.464844H5.56034C4.9795 0.464844 4.45866 0.824974 4.25016 1.37068C3.90997 2.26099 2.99807 2.79088 2.06209 2.64231C1.4883 2.55129 0.918101 2.82532 0.627741 3.33154L0.188087 4.09809L1.16062 4.66328L1.60028 3.89673C1.65837 3.79548 1.77239 3.74069 1.88717 3.75886C3.34645 3.9905 4.76791 3.16434 5.29828 1.77641C5.34002 1.66731 5.44417 1.5953 5.56037 1.5953L6.43965 1.59521ZM3.47325 6.96482C3.47325 8.36949 4.60456 9.50828 6 9.50828C7.39553 9.50828 8.52675 8.36949 8.52675 6.96482C8.52675 5.56005 7.39553 4.42136 6 4.42136C4.60456 4.42136 3.47325 5.56005 3.47325 6.96482ZM4.59628 6.96482C4.59628 7.74518 5.22477 8.37782 6 8.37782C6.77523 8.37782 7.40372 7.74518 7.40372 6.96482C7.40372 6.18446 6.77523 5.55182 6 5.55182C5.22477 5.55182 4.59628 6.18446 4.59628 6.96482Z" fill="#2A2B30"/>
</svg>
