<svg width="18" height="18" viewBox="0 0 18 18" fill="none" xmlns="http://www.w3.org/2000/svg">
<path d="M15.6825 6.55217L15.3895 6.3901C15.3439 6.36493 15.3216 6.3523 15.2996 6.33921C15.081 6.20908 14.8968 6.02927 14.7624 5.81415C14.7489 5.79251 14.7361 5.76981 14.71 5.72495C14.684 5.68014 14.6708 5.65744 14.6587 5.63496C14.5381 5.41116 14.4729 5.16175 14.469 4.90791C14.4686 4.88239 14.4687 4.85631 14.4696 4.80447L14.4753 4.46616C14.4845 3.92478 14.4891 3.65325 14.4125 3.40956C14.3445 3.19311 14.2308 2.99374 14.0789 2.82455C13.9072 2.63331 13.6696 2.49687 13.1938 2.22433L12.7986 1.99796C12.3241 1.72618 12.0868 1.59025 11.8349 1.53843C11.6121 1.49258 11.3821 1.4947 11.1601 1.54425C10.9095 1.60017 10.6752 1.73965 10.2067 2.01844L10.2041 2.01971L9.92092 2.18825C9.87615 2.2149 9.85348 2.22833 9.83104 2.24074C9.60833 2.36382 9.35971 2.43188 9.10502 2.44001C9.07936 2.44082 9.05324 2.44082 9.00103 2.44082C8.94915 2.44082 8.92192 2.44082 8.8963 2.44001C8.64107 2.43184 8.39193 2.36342 8.16887 2.23982C8.14639 2.22737 8.12415 2.21383 8.07929 2.18705L7.79431 2.01699C7.32271 1.73556 7.08656 1.59463 6.83456 1.53843C6.61162 1.4887 6.38087 1.48733 6.15721 1.53376C5.90467 1.5862 5.6673 1.72314 5.19257 1.99702L5.19046 1.99796L4.80018 2.22312L4.79586 2.22575C4.3254 2.49716 4.08961 2.6332 3.91937 2.82367C3.7683 2.99269 3.65538 3.19174 3.5878 3.40762C3.51141 3.65164 3.51548 3.92375 3.52468 4.46769L3.5304 4.80552C3.53127 4.85668 3.53277 4.8821 3.53239 4.90726C3.52861 5.16162 3.46252 5.41154 3.34158 5.63574C3.32962 5.65791 3.31674 5.68008 3.291 5.72437C3.26524 5.76869 3.25277 5.79073 3.23942 5.81212C3.10438 6.02839 2.91933 6.20924 2.6994 6.3396C2.67765 6.35249 2.65472 6.36489 2.60967 6.38971L2.32031 6.54911C1.83887 6.81431 1.5982 6.94703 1.42308 7.13591C1.26817 7.30299 1.15114 7.50118 1.0797 7.71702C0.998946 7.96101 0.999013 8.23461 1.00026 8.78175L1.00129 9.22894C1.00253 9.77243 1.00423 10.044 1.08516 10.2863C1.15676 10.5007 1.27294 10.6977 1.42699 10.8638C1.60112 11.0515 1.83939 11.1834 2.31718 11.4476L2.60397 11.6062C2.65277 11.6332 2.67733 11.6465 2.70087 11.6606C2.91881 11.7911 3.10241 11.9714 3.23629 12.1865C3.25075 12.2097 3.26464 12.2338 3.2924 12.282C3.31983 12.3296 3.33385 12.3535 3.34654 12.3773C3.46392 12.5982 3.52677 12.8437 3.53105 13.0935C3.53152 13.1205 3.53112 13.1478 3.53019 13.2026L3.52468 13.5268C3.51541 14.0726 3.51138 14.3458 3.58822 14.5905C3.6562 14.807 3.76983 15.0063 3.92171 15.1755C4.0934 15.3668 4.33141 15.5031 4.80721 15.7757L5.20233 16.002C5.6768 16.2738 5.91394 16.4096 6.16584 16.4614C6.38868 16.5072 6.61878 16.5055 6.84082 16.4559C7.09178 16.3999 7.32692 16.2599 7.79666 15.9804L8.07983 15.8118C8.12463 15.7852 8.14731 15.7718 8.16976 15.7594C8.39246 15.6363 8.64084 15.5679 8.89552 15.5598C8.92119 15.5589 8.9473 15.5589 8.99951 15.5589C9.05184 15.5589 9.07792 15.5589 9.10365 15.5598C9.35888 15.5679 9.60877 15.6366 9.83182 15.7602C9.85145 15.771 9.87111 15.7828 9.90564 15.8034L10.2067 15.983C10.6783 16.2645 10.914 16.405 11.166 16.4612C11.3889 16.511 11.6199 16.513 11.8435 16.4665C12.096 16.4141 12.3339 16.2769 12.8083 16.0032L13.2045 15.7746C13.6752 15.503 13.9113 15.3669 14.0816 15.1763C14.2326 15.0073 14.3457 14.8083 14.4133 14.5925C14.4891 14.3502 14.4846 14.0802 14.4755 13.5441L14.4696 13.1945C14.4687 13.1433 14.4686 13.1179 14.469 13.0927C14.4728 12.8383 14.5378 12.5883 14.6587 12.3641C14.6706 12.3419 14.6836 12.3196 14.7093 12.2754C14.735 12.2311 14.7484 12.209 14.7617 12.1876C14.8968 11.9714 15.082 11.7904 15.3019 11.66C15.3234 11.6473 15.3455 11.6351 15.3895 11.6108L15.391 11.6102L15.6804 11.4508C16.1618 11.1855 16.403 11.0527 16.5781 10.8638C16.733 10.6967 16.8499 10.4988 16.9213 10.283C17.0016 10.0404 17.001 9.76841 16.9997 9.22766L16.9987 8.77087C16.9974 8.22739 16.9968 7.95586 16.9158 7.71353C16.8442 7.49913 16.7274 7.30211 16.5734 7.13603C16.3994 6.94849 16.1608 6.81655 15.6839 6.55285L15.6825 6.55217Z" stroke="#696E77" stroke-width="2" stroke-linecap="round" stroke-linejoin="round"/>
<path d="M5.79901 9.00006C5.79901 10.7575 7.23225 12.1822 9.00025 12.1822C10.7683 12.1822 12.2015 10.7575 12.2015 9.00006C12.2015 7.24261 10.7683 5.81792 9.00025 5.81792C7.23225 5.81792 5.79901 7.24261 5.79901 9.00006Z" stroke="#696E77" stroke-width="2" stroke-linecap="round" stroke-linejoin="round"/>
</svg>
