<svg width="18" height="18" viewBox="0 0 18 18" fill="none" xmlns="http://www.w3.org/2000/svg">
<path d="M16.1111 4.55556H14.1988C13.7566 4.55556 13.4444 4.1089 13.4444 3.66667C13.4444 2.19391 12.2505 1 10.7778 1C9.30502 1 8.11111 2.19391 8.11111 3.66667C8.11111 4.1089 7.79897 4.55556 7.35674 4.55556H5.44444C4.95352 4.55556 4.55556 4.95352 4.55556 5.44444V7.35674C4.55556 7.79897 4.1089 8.11111 3.66667 8.11111C2.19391 8.11111 1 9.30502 1 10.7778C1 12.2505 2.19391 13.4444 3.66667 13.4444C4.1089 13.4444 4.55556 13.7566 4.55556 14.1988V16.1111C4.55556 16.602 4.95352 17 5.44444 17H16.1111C16.602 17 17 16.602 17 16.1111V14.1988C17 13.7566 16.5533 13.4444 16.1111 13.4444C14.6384 13.4444 13.4444 12.2505 13.4444 10.7778C13.4444 9.30502 14.6384 8.11111 16.1111 8.11111C16.5533 8.11111 17 7.79897 17 7.35674V5.44444C17 4.95352 16.602 4.55556 16.1111 4.55556Z" stroke="#696E77" stroke-width="2" stroke-linecap="round" stroke-linejoin="round"/>
</svg>
