<svg width="12" height="13" viewBox="0 0 12 13" fill="none" xmlns="http://www.w3.org/2000/svg">
<path d="M10.2761 4.02398C10.3472 3.95597 10.4379 3.91207 10.5354 3.89866C11.0012 3.83142 11.4178 3.57297 11.6851 3.18555C12.0206 2.70869 12.0931 2.09485 11.8781 1.55299C11.663 1.01102 11.1892 0.614025 10.618 0.497112C10.0468 0.380092 9.45514 0.558949 9.04437 0.972717C8.79375 1.24053 8.63485 1.58107 8.59057 1.94514C8.57754 2.03467 8.53664 2.11783 8.47384 2.18285L7.22049 0.96847C6.97323 0.733756 6.64523 0.602936 6.3043 0.602936C5.96336 0.602936 5.63536 0.733751 5.388 0.96847L3.86675 2.48973C3.70043 2.65238 3.60667 2.87512 3.60667 3.10781C3.60667 3.3404 3.70044 3.56316 3.86675 3.72579C4.0676 3.92635 4.32874 4.05534 4.61006 4.09315C4.83793 4.12962 5.04186 4.25561 5.17626 4.44325C5.27475 4.5895 5.32733 4.76178 5.32733 4.93804C5.32733 5.11439 5.27475 5.28668 5.17626 5.43294C5.03078 5.64566 4.798 5.78234 4.54128 5.80571C4.28466 5.82915 4.03105 5.73683 3.84938 5.55393C3.7206 5.42205 3.63734 5.25245 3.61168 5.06992C3.57126 4.79315 3.44237 4.53702 3.24432 4.33955C3.08177 4.17323 2.85893 4.07947 2.62634 4.07947C2.39375 4.07947 2.17091 4.17324 2.00836 4.33955L0.495693 5.8608C0.252877 6.10391 0.116478 6.43347 0.116478 6.7771C0.116478 7.12062 0.252887 7.45017 0.495693 7.69329L1.71874 8.91643C1.64764 8.98444 1.55696 9.02834 1.45943 9.04175C0.993675 9.10899 0.577019 9.36745 0.309778 9.75486C-0.0427159 10.2614 -0.0984806 10.9175 0.163527 11.4763C0.425536 12.035 0.965597 12.4118 1.58039 12.4647H1.72741C2.14619 12.469 2.55233 12.321 2.8703 12.0484C3.18826 11.7757 3.39646 11.3969 3.45617 10.9823C3.46919 10.8928 3.51 10.8097 3.57281 10.7445L4.79595 11.9677C5.04321 12.2023 5.37121 12.3331 5.71214 12.3331C6.05308 12.3331 6.38107 12.2023 6.62843 11.9677L8.14979 10.4463H8.14969C8.31601 10.2837 8.40977 10.0609 8.40977 9.82836C8.40977 9.59567 8.316 9.37293 8.14969 9.21028C7.95482 9.01502 7.7013 8.88902 7.42799 8.85161C7.23688 8.83714 7.05591 8.75967 6.91371 8.63117C6.7308 8.44961 6.63846 8.1959 6.66193 7.93927C6.68527 7.68265 6.82197 7.44989 7.0347 7.3043C7.18095 7.2059 7.35323 7.15323 7.52959 7.15323C7.70584 7.15323 7.87813 7.2059 8.02438 7.3043C8.21202 7.43878 8.33801 7.64262 8.37448 7.87049C8.4123 8.15181 8.54128 8.41295 8.74184 8.61391C8.90449 8.78023 9.12723 8.87399 9.35983 8.87399C9.59251 8.87399 9.81525 8.78022 9.97791 8.61391L11.4993 7.09255H11.4992C11.742 6.84945 11.8784 6.51989 11.8784 6.17636C11.8784 5.83273 11.742 5.50318 11.4992 5.26007L10.2761 4.02398ZM10.8855 6.4702L9.35124 7.99155C9.28467 7.91823 9.24242 7.82611 9.23017 7.72789C9.15839 7.27051 8.90622 6.86109 8.53007 6.59118C8.09778 6.27929 7.54579 6.18436 7.034 6.3337C6.52231 6.48313 6.10818 6.86023 5.91167 7.35581C5.71506 7.85128 5.75808 8.40976 6.0283 8.86924C6.29843 9.32882 6.76544 9.63802 7.294 9.70729C7.38854 9.71713 7.47546 9.76373 7.53605 9.83695L5.99743 11.3583C5.91649 11.4388 5.8069 11.484 5.69277 11.484C5.57855 11.484 5.46905 11.4388 5.38801 11.3583L3.85809 9.83273V9.83263C3.77715 9.75218 3.66756 9.70703 3.55343 9.70703C3.43921 9.70703 3.32972 9.75218 3.24868 9.83263L2.93323 10.1439C2.73826 10.343 2.61121 10.5986 2.57021 10.8742C2.54619 11.0582 2.46091 11.2288 2.32817 11.3583C2.14487 11.5383 1.89106 11.6274 1.6355 11.6014C1.37994 11.5756 1.1491 11.4373 1.00564 11.2243C0.906182 11.0801 0.852929 10.909 0.852929 10.7338C0.852929 10.5586 0.906179 10.3875 1.00564 10.2432C1.14041 10.0505 1.34801 9.92092 1.58041 9.88456C1.86123 9.848 2.12227 9.72047 2.32382 9.52155L2.63505 9.2061V9.206C2.71483 9.12555 2.75988 9.01692 2.76036 8.90347C2.75235 8.80073 2.70788 8.70416 2.63505 8.63124L1.10937 7.07971C1.02891 6.99867 0.983667 6.88918 0.983667 6.77495C0.983667 6.66083 1.02891 6.55124 1.10937 6.47029L2.64364 4.94894C2.70731 5.01521 2.74812 5.10001 2.76037 5.19098C2.82375 5.62732 3.05152 6.02296 3.39697 6.29682C3.74243 6.5708 4.17946 6.70239 4.61879 6.66475C5.18169 6.61266 5.68363 6.28852 5.96272 5.79689C6.24192 5.30518 6.26293 4.70812 6.01925 4.19799C5.77547 3.68785 5.29765 3.32916 4.73975 3.23751C4.63884 3.22516 4.54556 3.1778 4.47609 3.10351L5.99745 1.58216C6.07839 1.5017 6.18798 1.45646 6.3021 1.45646C6.41633 1.45646 6.52582 1.5017 6.60686 1.58216L8.15839 3.10784C8.23933 3.18829 8.34892 3.23344 8.46305 3.23344C8.57727 3.23344 8.68677 3.18829 8.76781 3.10784L9.08326 2.79661C9.27822 2.5975 9.40527 2.34185 9.44627 2.06624C9.47029 1.88227 9.55557 1.71172 9.68832 1.58213C9.87113 1.41003 10.1197 1.32591 10.3694 1.35167C10.6192 1.37742 10.8454 1.51036 10.9892 1.71614C11.0887 1.86036 11.1419 2.03151 11.1419 2.20668C11.1419 2.38186 11.0887 2.55293 10.9892 2.69723C10.8545 2.88998 10.6469 3.01955 10.4145 3.0559C10.1336 3.09246 9.8726 3.22 9.67105 3.41891L9.35983 3.73436V3.73446C9.28005 3.81492 9.23499 3.92354 9.23451 4.03699C9.23384 4.15179 9.27899 4.26225 9.35983 4.34377L10.8854 5.8737L10.8855 5.8738C10.9621 5.95415 11.0048 6.06095 11.0048 6.17198C11.0048 6.28302 10.9621 6.38981 10.8855 6.47017L10.8855 6.4702Z" fill="#2A2B30"/>
</svg>
