<svg width="18" height="19" viewBox="0 0 18 19" fill="none" xmlns="http://www.w3.org/2000/svg">
<path d="M1.13118 7.52522C0.876161 7.2779 1.01469 6.8308 1.35962 6.78791L6.24714 6.18022C6.38772 6.16274 6.50982 6.06985 6.56912 5.93504L8.63061 1.2481C8.77609 0.917328 9.22449 0.917286 9.36998 1.24806L11.4315 5.93511C11.4908 6.06992 11.6121 6.16275 11.7527 6.18023L16.6404 6.78791C16.9854 6.8308 17.1238 7.27793 16.8688 7.52525L13.2556 11.0296C13.1516 11.1304 13.1052 11.2807 13.1328 11.4263L14.0918 16.4888C14.1595 16.8461 13.7969 17.1224 13.4939 16.9445L9.19918 14.4235C9.07565 14.3509 8.92517 14.3509 8.80164 14.4234L4.50654 16.9445C4.20345 17.1224 3.84049 16.8462 3.90819 16.4889L4.86742 11.4262C4.89501 11.2806 4.84867 11.1305 4.74473 11.0297L1.13118 7.52522Z" stroke="#37352F" stroke-width="2" stroke-linecap="round" stroke-linejoin="round"/>
</svg>
