<svg width="22" height="20" viewBox="0 0 22 20" fill="none" xmlns="http://www.w3.org/2000/svg">
<path d="M1.69291 1.6662C3.95025 -0.555076 7.62137 -0.555076 9.87856 1.6662L20.7929 12.4062C22.4024 13.9899 22.4024 16.576 20.7929 18.1595C19.1835 19.7433 16.5555 19.7433 14.9462 18.1595L4.03181 7.41955C3.07011 6.47322 3.07011 4.91373 4.03181 3.9674C4.9935 3.02106 6.57831 3.02106 7.54001 3.9674L17.2849 13.5566C17.4437 13.7084 17.5341 13.9165 17.5358 14.1344C17.5374 14.3524 17.4501 14.5618 17.2936 14.7158C17.1369 14.87 16.9241 14.9557 16.7028 14.9542C16.4813 14.9525 16.2698 14.8636 16.1154 14.7073L6.37045 5.11807C6.03649 4.78945 5.53505 4.78926 5.2011 5.11807C4.86714 5.4467 4.86714 5.94013 5.2011 6.26874L16.1155 17.0087C17.0973 17.9749 18.6418 17.9749 19.6237 17.0087C20.6055 16.0426 20.6055 14.5228 19.6237 13.5566L8.7093 2.81659C7.0795 1.21303 4.492 1.21303 2.86255 2.81659C1.23275 4.42016 1.23294 6.96652 2.86255 8.56994L12.6075 18.1592C12.7659 18.3111 12.8559 18.519 12.8572 18.7368C12.8588 18.9543 12.7715 19.1636 12.6152 19.3176C12.4587 19.4714 12.2462 19.5573 12.0249 19.5558C11.8038 19.5545 11.5923 19.4659 11.4379 19.3098L1.69301 9.7206C-0.564336 7.49932 -0.564336 3.88686 1.69301 1.66572L1.69291 1.6662Z" fill="#616161"/>
</svg>
