<svg width="16" height="16" viewBox="0 0 16 16" fill="none" xmlns="http://www.w3.org/2000/svg">
<path d="M15.643 6.84521C15.2205 7.32456 14.5724 7.43747 14.009 7.23997C13.8118 7.1554 13.5583 7.21185 13.4173 7.35268L10.0932 10.6802C9.92423 10.8493 9.89593 11.0749 9.98062 11.2724C10.206 11.8363 10.0651 12.4849 9.58624 12.9079C8.99454 13.4437 8.06508 13.3591 7.5015 12.7952L3.16301 8.4805C2.59963 7.91658 2.51512 6.98599 3.05041 6.39378C3.4729 5.91443 4.14909 5.77342 4.68435 5.99901C4.88164 6.08359 5.13514 6.02714 5.27605 5.88631L8.5721 2.58711C8.7411 2.41796 8.76939 2.19235 8.713 1.99485C8.4876 1.43094 8.6285 0.782429 9.10739 0.359355C9.69909 -0.176462 10.6285 -0.0918613 11.1921 0.472063L15.5023 4.78639C16.0936 5.32241 16.1782 6.25295 15.643 6.84521H15.643Z" fill="#555BEA"/>
<path d="M5.69855 11.555L4.43089 10.2861C4.34639 10.2015 4.2336 10.1451 4.0929 10.1734C3.9803 10.1734 3.8675 10.258 3.783 10.3426L0.092601 15.3054C-0.0482961 15.4746 -0.0199996 15.7002 0.120701 15.8693C0.261598 16.0385 0.51509 16.0385 0.684078 15.8974L5.64234 12.2035C5.72684 12.1189 5.81134 12.006 5.81134 11.8933C5.81134 11.7806 5.78324 11.6396 5.69854 11.555L5.69855 11.555Z" fill="#555BEA"/>
</svg>
