<svg width="22" height="20" viewBox="0 0 22 20" fill="none" xmlns="http://www.w3.org/2000/svg">
<path d="M13.7052 0C14.4169 0 15.0783 0.355861 15.455 0.941467L16.8493 3.10882H19.0208C20.6662 3.10882 22 4.4024 22 5.9981V17.1107C22 18.7064 20.6662 20 19.0208 20H2.97917C1.33382 20 0 18.7064 0 17.1107V5.9981C0 4.4024 1.33382 3.10882 2.97917 3.10882H5.33364L6.601 0.994852C6.97024 0.378945 7.64941 0 8.38402 0H13.7052ZM11 6.22274C8.21556 6.22274 5.95833 8.41187 5.95833 11.1123C5.95833 13.8127 8.21556 16.0018 11 16.0018C13.7844 16.0018 16.0417 13.8127 16.0417 11.1123C16.0417 8.41187 13.7844 6.22274 11 6.22274ZM11 7.55626C13.025 7.55626 14.6667 9.14835 14.6667 11.1123C14.6667 13.0762 13.025 14.6683 11 14.6683C8.97496 14.6683 7.33333 13.0762 7.33333 11.1123C7.33333 9.14835 8.97496 7.55626 11 7.55626Z" fill="#676F7A"/>
</svg>
