<svg width="23" height="20" viewBox="0 0 23 20" fill="none" xmlns="http://www.w3.org/2000/svg">
<path d="M14.3955 0C15.1234 0 15.7999 0.355861 16.1852 0.941467L17.6112 3.10882H19.832C21.5148 3.10882 22.8789 4.4024 22.8789 5.9981V17.1107C22.8789 18.7064 21.5148 20 19.832 20H3.42578C1.74304 20 0.378906 18.7064 0.378906 17.1107V5.9981C0.378906 4.4024 1.74304 3.10882 3.42578 3.10882H5.83376L7.12992 0.994852C7.50756 0.378945 8.20216 0 8.95347 0H14.3955ZM11.6289 6.22274C8.78119 6.22274 6.47266 8.41187 6.47266 11.1123C6.47266 13.8127 8.78119 16.0018 11.6289 16.0018C14.4766 16.0018 16.7852 13.8127 16.7852 11.1123C16.7852 8.41187 14.4766 6.22274 11.6289 6.22274ZM11.6289 7.55626C13.7 7.55626 15.3789 9.14835 15.3789 11.1123C15.3789 13.0762 13.7 14.6683 11.6289 14.6683C9.55784 14.6683 7.87891 13.0762 7.87891 11.1123C7.87891 9.14835 9.55784 7.55626 11.6289 7.55626Z" fill="#8B939C"/>
</svg>
