<svg width="17" height="16" viewBox="0 0 17 16" fill="none" xmlns="http://www.w3.org/2000/svg">
<path d="M10.5903 0C11.1403 0 11.6514 0.284689 11.9425 0.753174L13.0199 2.48706H14.6979C15.9693 2.48706 17 3.52192 17 4.79848V13.6886C17 14.9651 15.9693 16 14.6979 16H2.30208C1.03068 16 0 14.9651 0 13.6886V4.79848C0 3.52192 1.03068 2.48706 2.30208 2.48706H4.12145L5.10077 0.795882C5.3861 0.303156 5.9109 0 6.47856 0H10.5903ZM8.5 4.97819C6.34839 4.97819 4.60417 6.7295 4.60417 8.88983C4.60417 11.0502 6.34839 12.8015 8.5 12.8015C10.6516 12.8015 12.3958 11.0502 12.3958 8.88983C12.3958 6.7295 10.6516 4.97819 8.5 4.97819ZM8.5 6.045C10.0648 6.045 11.3333 7.31868 11.3333 8.88983C11.3333 10.461 10.0648 11.7347 8.5 11.7347C6.93519 11.7347 5.66667 10.461 5.66667 8.88983C5.66667 7.31868 6.93519 6.045 8.5 6.045Z" fill="#828282"/>
</svg>
