<svg width="20" height="24" viewBox="0 0 20 24" fill="none" xmlns="http://www.w3.org/2000/svg">
<path d="M17.4998 24H2.49997C1.11927 24 0 22.9255 0 21.6V2.4C0 1.07452 1.11927 0 2.49997 0H11.2499C11.2635 0.000566783 11.2769 0.00299107 11.2899 0.0072C11.3021 0.0108207 11.3146 0.0132332 11.3274 0.0144C11.4376 0.0211838 11.5464 0.0417578 11.6511 0.0756L11.6861 0.0864C11.7144 0.0956184 11.742 0.106849 11.7686 0.12C11.9048 0.178108 12.0289 0.259421 12.1348 0.36L19.6347 7.56C19.7395 7.66174 19.8242 7.78087 19.8847 7.9116C19.8972 7.938 19.906 7.9656 19.916 7.9932L19.9272 8.0244C19.9621 8.12447 19.9827 8.22862 19.9885 8.334C19.9904 8.34502 19.9934 8.35586 19.9972 8.3664C19.9995 8.37747 20.0003 8.38875 19.9999 8.4V21.6C19.9999 22.9255 18.8805 24 17.4998 24ZM2.49997 2.4V21.6H17.4998V9.6H11.2499C10.5595 9.6 9.99987 9.06274 9.99987 8.4V2.4H2.49997ZM12.4998 4.0968V7.2H15.7323L12.4998 4.0968Z" fill="#616161"/>
</svg>
