<svg width="24" height="20" viewBox="0 0 24 20" fill="none" xmlns="http://www.w3.org/2000/svg">
<path d="M2.61029 1.70382C4.91894 -0.567941 8.67349 -0.567941 10.982 1.70382L22.1444 12.6879C23.7904 14.3076 23.7904 16.9525 22.1444 18.572C20.4984 20.1917 17.8106 20.1917 16.1648 18.572L5.00235 7.58792C4.01879 6.62009 4.01879 5.02515 5.00235 4.05731C5.9859 3.08948 7.60673 3.08948 8.59028 4.05731L18.5567 13.8645C18.7191 14.0197 18.8115 14.2325 18.8133 14.4554C18.8149 14.6783 18.7256 14.8925 18.5655 15.05C18.4053 15.2077 18.1876 15.2954 17.9613 15.2938C17.7348 15.2921 17.5185 15.2011 17.3605 15.0413L7.39414 5.23414C7.05259 4.89805 6.53976 4.89786 6.19821 5.23414C5.85666 5.57024 5.85666 6.07488 6.19821 6.41097L17.3606 17.3951C18.3648 18.3832 19.9444 18.3832 20.9486 17.3951C21.9528 16.4069 21.9528 14.8526 20.9486 13.8644L9.78615 2.88036C8.11931 1.24035 5.473 1.24035 3.80651 2.88036C2.13967 4.52036 2.13987 7.1246 3.80651 8.76446L13.7729 18.5716C13.9349 18.727 14.027 18.9396 14.0283 19.1624C14.0299 19.3849 13.9406 19.5989 13.7808 19.7564C13.6207 19.9137 13.4034 20.0015 13.1771 20C12.951 19.9986 12.7347 19.9081 12.5768 19.7484L2.61039 9.94127C0.301745 7.66951 0.301745 3.97494 2.61039 1.70333L2.61029 1.70382Z" fill="#8B939C"/>
</svg>
