<svg width="13" height="16" viewBox="0 0 13 16" fill="none" xmlns="http://www.w3.org/2000/svg">
<path d="M11.3749 16H1.62498C0.727528 16 0 15.2837 0 14.4V1.6C0 0.716344 0.727528 0 1.62498 0H7.31241C7.32126 0.000377855 7.33001 0.00199405 7.33841 0.0048C7.34634 0.00721379 7.35451 0.00882216 7.36278 0.0096C7.43443 0.0141226 7.50517 0.0278385 7.57322 0.0504L7.59597 0.0576C7.61438 0.0637456 7.6323 0.0712329 7.64959 0.08C7.73811 0.118739 7.81876 0.172948 7.88765 0.24L12.7626 5.04C12.8307 5.10783 12.8857 5.18724 12.9251 5.2744C12.9332 5.292 12.9389 5.3104 12.9454 5.3288L12.9527 5.3496C12.9754 5.41631 12.9888 5.48574 12.9925 5.556C12.9938 5.56335 12.9957 5.57057 12.9982 5.5776C12.9996 5.58498 13.0002 5.5925 12.9999 5.6V14.4C12.9999 15.2837 12.2723 16 11.3749 16ZM1.62498 1.6V14.4H11.3749V6.4H7.31241C6.86368 6.4 6.49992 6.04183 6.49992 5.6V1.6H1.62498ZM8.1249 2.7312V4.8H10.226L8.1249 2.7312Z" fill="#828282"/>
</svg>
