<svg width="20" height="20" viewBox="0 0 20 20" fill="none" xmlns="http://www.w3.org/2000/svg">
<rect x="0.5" y="0.5" width="19" height="19" rx="3.5" fill="#676F7A" stroke="#676F7A"/>
<path d="M7.9612 8.96072C7.92143 8.82246 7.86556 8.7003 7.79359 8.59424C7.72162 8.48628 7.63355 8.39537 7.52939 8.32151C7.42711 8.24575 7.30969 8.18799 7.17711 8.14822C7.04643 8.10844 6.90154 8.08856 6.74245 8.08856C6.44511 8.08856 6.18374 8.16242 5.95836 8.31015C5.73488 8.45787 5.56064 8.67284 5.43564 8.95503C5.31064 9.23534 5.24814 9.57814 5.24814 9.98344C5.24814 10.3887 5.30969 10.7334 5.43279 11.0175C5.5559 11.3016 5.73014 11.5185 5.95552 11.6681C6.1809 11.8158 6.447 11.8897 6.75382 11.8897C7.03223 11.8897 7.26992 11.8405 7.46689 11.742C7.66575 11.6416 7.81726 11.5005 7.92143 11.3187C8.02749 11.1369 8.08052 10.9219 8.08052 10.6738L8.33052 10.7107H6.83052V9.78458H9.26518V10.5175C9.26518 11.0289 9.15723 11.4683 8.94132 11.8357C8.72541 12.2012 8.42806 12.4834 8.04927 12.6823C7.67048 12.8793 7.23677 12.9778 6.74814 12.9778C6.20268 12.9778 5.72351 12.8575 5.31064 12.617C4.89776 12.3745 4.57579 12.0308 4.34473 11.5857C4.11556 11.1387 4.00098 10.6084 4.00098 9.99481C4.00098 9.52322 4.06916 9.10276 4.20552 8.73344C4.34378 8.36223 4.53696 8.04784 4.78507 7.79026C5.03317 7.53269 5.322 7.33666 5.65154 7.20219C5.98109 7.06772 6.3381 7.00049 6.72257 7.00049C7.05211 7.00049 7.35893 7.04878 7.64302 7.14537C7.92711 7.24007 8.17901 7.37454 8.3987 7.54878C8.6203 7.72303 8.80117 7.93041 8.94132 8.17094C9.08147 8.40958 9.17143 8.67284 9.2112 8.96072H7.9612Z" fill="white"/>
<path d="M11.4193 7.08003V12.8982H10.1892V7.08003H11.4193Z" fill="white"/>
<path d="M12.4314 12.8982V7.08003H16.2836V8.09424H13.6615V9.4806H16.028V10.4948H13.6615V12.8982H12.4314Z" fill="white"/>
</svg>
