<svg width="20" height="20" viewBox="0 0 20 20" fill="none" xmlns="http://www.w3.org/2000/svg">
<rect width="20" height="20" rx="4" fill="#626A74"/>
<path fill-rule="evenodd" clip-rule="evenodd" d="M8.60561 7.92193L7.67506 8.82443C7.26238 8.44443 6.76069 8.34151 6.38038 8.34151C5.45792 8.34151 4.85914 8.87984 4.85914 9.96443C4.85914 10.6769 5.23945 11.5557 6.38038 11.5557C6.67978 11.5557 7.1491 11.5003 7.47276 11.2707V10.5582H6.04053V9.33109H8.8079V11.7932C8.45186 12.4978 7.46467 12.8778 6.37229 12.8778C4.13088 12.8778 3.28125 11.4132 3.28125 9.96443C3.28125 8.51568 4.25226 7.02734 6.38038 7.02734C7.16528 7.02734 7.86117 7.18568 8.60561 7.92193ZM11.5212 12.7273H9.92711V7.18568H11.5212V12.7273ZM14.4691 12.7273H12.8831V7.18568H17.2284V8.49984H14.4691V9.53693H17.0585V10.8194H14.4691V12.7273Z" fill="white"/>
</svg>
