<svg width="18" height="16" viewBox="0 0 18 16" fill="none" xmlns="http://www.w3.org/2000/svg">
<path d="M6.3 0C3.81472 0 1.8 1.98985 1.8 4.44444C1.8 6.89904 3.81472 8.88889 6.3 8.88889C8.78528 8.88889 10.8 6.89904 10.8 4.44444C10.8 1.98985 8.78528 0 6.3 0ZM3.6 4.44444C3.6 2.97169 4.80883 1.77778 6.3 1.77778C7.79117 1.77778 9 2.97169 9 4.44444C9 5.9172 7.79117 7.11111 6.3 7.11111C4.80883 7.11111 3.6 5.9172 3.6 4.44444Z" fill="#828282"/>
<path d="M13.4176 4.63847C13.1644 4.51097 12.8842 4.4445 12.6 4.4445V2.66672C13.1684 2.66672 13.7288 2.79961 14.2352 3.05462C14.291 3.08271 14.3459 3.11219 14.4 3.14302C14.8369 3.39212 15.2165 3.7295 15.5136 4.13383C15.8474 4.5882 16.0676 5.1142 16.1561 5.66877C16.2446 6.22335 16.1989 6.79073 16.0226 7.32449C15.8464 7.85825 15.5447 8.34321 15.1422 8.73967C14.7398 9.13613 14.248 9.43283 13.7071 9.60548C13.2258 9.75911 12.7178 9.81063 12.2162 9.75751C12.1541 9.75094 12.0921 9.74276 12.0303 9.73298C11.4694 9.6442 10.9378 9.42558 10.4788 9.09502L10.4779 9.09434L11.5389 7.65828C11.7685 7.82375 12.0345 7.93313 12.3152 7.97755C12.5958 8.02197 12.8831 8.00012 13.1535 7.9138C13.424 7.82748 13.6699 7.67913 13.8711 7.48091C14.0723 7.28268 14.2232 7.04021 14.3113 6.77334C14.3994 6.50647 14.4222 6.22278 14.378 5.94551C14.3338 5.66823 14.2237 5.40523 14.0567 5.17806C13.8898 4.95088 13.6708 4.76597 13.4176 4.63847Z" fill="#828282"/>
<path d="M16.1983 16C16.1983 15.5333 16.1052 15.0712 15.9244 14.64C15.7436 14.2088 15.4785 13.817 15.1444 13.487C14.8102 13.157 14.4136 12.8953 13.977 12.7167C13.5404 12.5381 13.0725 12.4461 12.6 12.4461V10.6667C13.2139 10.6667 13.8225 10.77 14.4 10.9717C14.4896 11.003 14.5785 11.0366 14.6665 11.0726C15.3216 11.3407 15.9169 11.7335 16.4184 12.2288C16.9198 12.724 17.3176 13.312 17.5889 13.959C17.6254 14.0459 17.6595 14.1337 17.6912 14.2222C17.8953 14.7926 18 15.3937 18 16H16.1983Z" fill="#828282"/>
<path d="M12.6 16H10.8C10.8 13.5454 8.78528 11.5556 6.3 11.5556C3.81472 11.5556 1.8 13.5454 1.8 16H0C0 12.5636 2.82061 9.77778 6.3 9.77778C9.77939 9.77778 12.6 12.5636 12.6 16Z" fill="#828282"/>
</svg>
