<svg width="26" height="20" viewBox="0 0 26 20" fill="none" xmlns="http://www.w3.org/2000/svg">
<path fill-rule="evenodd" clip-rule="evenodd" d="M3.92135 0H21.9569C24.1144 0 25.8782 1.76663 25.8782 3.92135V16.0787C25.8782 18.2334 24.1144 20 21.9569 20H3.92135C1.76385 20 0 18.2334 0 16.0787V3.92135C0 1.76663 1.76385 0 3.92135 0ZM18.4868 2.87825C19.5959 2.87825 20.4937 3.77602 20.4937 4.88509C20.4937 5.99415 19.5959 6.89466 18.4868 6.89466C17.3778 6.89466 16.4772 5.99411 16.4772 4.88509C16.4772 3.77602 17.3778 2.87825 18.4868 2.87825ZM5.55288 13.8581L10.1607 6.37709C10.5463 5.93355 11.4203 5.93355 11.8058 6.37709L14.7977 11.2307L15.9834 9.30565C16.258 8.98883 16.8786 8.98883 17.1532 9.30565L20.425 14.6185C21.0429 15.622 20.3907 16.8525 19.2975 16.8525H7.13736C5.58202 16.8525 4.68166 15.2708 5.55288 13.858V13.8581Z" fill="#626A74"/>
</svg>
