<svg width="24" height="22" viewBox="0 0 24 22" fill="none" xmlns="http://www.w3.org/2000/svg">
<path d="M14.9511 0C15.7275 0 16.449 0.391448 16.86 1.03561L18.3811 3.41971H20.75C22.5449 3.41971 24 4.84264 24 6.59791V18.8218C24 20.5771 22.5449 22 20.75 22H3.25C1.45507 22 0 20.5771 0 18.8218V6.59791C0 4.84264 1.45507 3.41971 3.25 3.41971H5.81851L7.20109 1.09434C7.6039 0.41684 8.34481 0 9.1462 0H14.9511ZM12 6.84502C8.96243 6.84502 6.5 9.25306 6.5 12.2235C6.5 15.194 8.96243 17.602 12 17.602C15.0376 17.602 17.5 15.194 17.5 12.2235C17.5 9.25306 15.0376 6.84502 12 6.84502ZM12 8.31188C14.2091 8.31188 16 10.0632 16 12.2235C16 14.3839 14.2091 16.1352 12 16.1352C9.79086 16.1352 8 14.3839 8 12.2235C8 10.0632 9.79086 8.31188 12 8.31188Z" fill="#37352F"/>
</svg>
