<svg width="24" height="24" viewBox="0 0 24 24" fill="none" xmlns="http://www.w3.org/2000/svg">
<path d="M18.3653 15.5362L16.9513 14.1202L18.3653 12.7062C18.8329 12.2426 19.2044 11.6913 19.4583 11.0838C19.7123 10.4763 19.8438 9.82465 19.8452 9.16619C19.8467 8.50774 19.718 7.85549 19.4667 7.24689C19.2154 6.63828 18.8464 6.08531 18.3808 5.61971C17.9152 5.15412 17.3622 4.78508 16.7536 4.53377C16.145 4.28245 15.4927 4.15383 14.8343 4.15527C14.1758 4.15671 13.5242 4.28819 12.9167 4.54217C12.3092 4.79614 11.7578 5.16761 11.2943 5.63524L9.88023 7.05023L8.46523 5.63623L9.88124 4.22223C11.1941 2.90942 12.9746 2.17188 14.8313 2.17188C16.6879 2.17188 18.4684 2.90942 19.7813 4.22223C21.0941 5.53505 21.8316 7.31563 21.8316 9.17224C21.8316 11.0288 21.0941 12.8094 19.7813 14.1222L18.3663 15.5362H18.3653ZM15.5373 18.3642L14.1223 19.7782C12.8094 21.091 11.0289 21.8286 9.17223 21.8286C7.31562 21.8286 5.53505 21.091 4.22223 19.7782C2.9094 18.4654 2.17188 16.6848 2.17188 14.8282C2.17188 12.9716 2.9094 11.191 4.22223 9.87823L5.63723 8.46424L7.05124 9.88024L5.63723 11.2942C5.1696 11.7578 4.79813 12.3091 4.54415 12.9166C4.29018 13.5241 4.1587 14.1758 4.15725 14.8342C4.15581 15.4927 4.28444 16.1449 4.53575 16.7535C4.78706 17.3621 5.15611 17.9151 5.62171 18.3807C6.0873 18.8463 6.64029 19.2154 7.24889 19.4667C7.8575 19.718 8.50974 19.8466 9.16819 19.8452C9.82664 19.8437 10.4784 19.7122 11.0859 19.4583C11.6934 19.2043 12.2447 18.8328 12.7083 18.3652L14.1223 16.9512L15.5373 18.3652V18.3642ZM14.8293 7.75723L16.2443 9.17224L9.17323 16.2422L7.75823 14.8282L14.8293 7.75823V7.75723Z" fill="#676F7A"/>
</svg>
