<svg width="20" height="20" viewBox="0 0 20 20" fill="none" xmlns="http://www.w3.org/2000/svg">
<path d="M19.554 8.5569C19.0258 9.15611 18.2157 9.29727 17.5115 9.05038C17.2648 8.94465 16.948 9.01522 16.7718 9.19127L12.6165 13.3508C12.4052 13.5623 12.3698 13.8443 12.4757 14.0912C12.7575 14.7961 12.5813 15.6068 11.9827 16.1357C11.243 16.8055 10.0812 16.6997 9.37667 15.9948L3.9533 10.6011C3.24905 9.89618 3.1434 8.73289 3.81254 7.99259C4.34068 7.39338 5.18596 7.2171 5.85506 7.49911C6.10169 7.60484 6.41857 7.53427 6.59472 7.35822L10.715 3.23404C10.9262 3.02258 10.9616 2.74056 10.8911 2.49368C10.6093 1.78875 10.7855 0.978081 11.3841 0.449214C12.1238 -0.220587 13.2856 -0.114832 13.9901 0.590105L19.3782 5.98326C20.1173 6.65331 20.223 7.81654 19.5541 8.5569H19.554Z" fill="#37352F"/>
<path d="M7.12352 14.4433L5.53887 12.8572C5.43324 12.7514 5.29224 12.6809 5.11635 12.7163C4.9756 12.7163 4.8346 12.822 4.72897 12.9277L0.115757 19.1316C-0.0603729 19.343 -0.0250006 19.625 0.150883 19.8365C0.327012 20.0479 0.643892 20.0479 0.855137 19.8716L7.05325 15.254C7.15888 15.1483 7.26451 15.0072 7.26451 14.8663C7.26451 14.7254 7.22938 14.5491 7.12351 14.4434L7.12352 14.4433Z" fill="#37352F"/>
</svg>
