<svg width="20" height="20" viewBox="0 0 20 20" fill="none" xmlns="http://www.w3.org/2000/svg">
<path d="M19.5545 8.5569C19.0263 9.15611 18.2162 9.29727 17.512 9.05038C17.2653 8.94465 16.9484 9.01522 16.7723 9.19127L12.617 13.3508C12.4057 13.5623 12.3703 13.8443 12.4762 14.0912C12.758 14.7961 12.5818 15.6068 11.9832 16.1357C11.2435 16.8055 10.0817 16.6997 9.37715 15.9948L3.95379 10.6011C3.24954 9.89618 3.14389 8.73289 3.81303 7.99259C4.34117 7.39338 5.18645 7.2171 5.85555 7.49911C6.10218 7.60484 6.41906 7.53427 6.59521 7.35822L10.7155 3.23404C10.9267 3.02258 10.9621 2.74056 10.8916 2.49368C10.6098 1.78875 10.786 0.978081 11.3846 0.449214C12.1243 -0.220587 13.2861 -0.114832 13.9906 0.590105L19.3787 5.98326C20.1178 6.65331 20.2235 7.81654 19.5545 8.5569H19.5545Z" fill="white"/>
<path d="M7.12352 14.4433L5.53887 12.8572C5.43324 12.7514 5.29224 12.6809 5.11635 12.7163C4.9756 12.7163 4.8346 12.822 4.72897 12.9277L0.115757 19.1316C-0.0603729 19.343 -0.0250006 19.625 0.150883 19.8365C0.327012 20.0479 0.643892 20.0479 0.855137 19.8716L7.05325 15.254C7.15888 15.1483 7.26451 15.0072 7.26451 14.8663C7.26451 14.7254 7.22938 14.5491 7.12351 14.4434L7.12352 14.4433Z" fill="white"/>
</svg>
