<svg width="24" height="24" viewBox="0 0 24 24" fill="none" xmlns="http://www.w3.org/2000/svg">
<path d="M21.3333 0H2.66667C1.196 0 0 1.196 0 2.66667V21.3333C0 22.804 1.196 24 2.66667 24H21.3333C22.804 24 24 22.804 24 21.3333V2.66667C24 1.196 22.804 0 21.3333 0ZM2.66667 21.3333V2.66667H21.3333L21.336 21.3333H2.66667Z" fill="#37352F"/>
<path d="M9.33333 14.6667L8 13.3333L4 18.6667H20L13.3333 9.33333L9.33333 14.6667Z" fill="#37352F"/>
<path d="M7.33333 10.6667C8.4379 10.6667 9.33333 9.77124 9.33333 8.66667C9.33333 7.5621 8.4379 6.66667 7.33333 6.66667C6.22876 6.66667 5.33333 7.5621 5.33333 8.66667C5.33333 9.77124 6.22876 10.6667 7.33333 10.6667Z" fill="#37352F"/>
</svg>
