<svg width="32" height="32" viewBox="0 0 32 32" fill="none" xmlns="http://www.w3.org/2000/svg">
<path fill-rule="evenodd" clip-rule="evenodd" d="M16 32C24.8365 32 32 24.8365 32 16C32 7.16345 24.8365 0 16 0C7.16345 0 0 7.16345 0 16C0 24.8365 7.16345 32 16 32ZM12.9569 21.589C12.3616 22.1651 12.3459 23.1147 12.922 23.7101C13.498 24.3054 14.4476 24.321 15.0431 23.745L21.5626 17.4367C22.368 16.6574 22.368 15.3432 21.5626 14.564L15.0431 8.25568C14.4476 7.67963 13.498 7.69525 12.922 8.29062C12.3459 8.88596 12.3616 9.83557 12.9569 10.4117L18.7328 16.0003L12.9569 21.589Z" fill="white"/>
</svg>
