<svg width="20" height="20" viewBox="0 0 20 20" fill="none" xmlns="http://www.w3.org/2000/svg">
<path d="M17.7778 0H2.22222C0.996667 0 0 0.996667 0 2.22222V17.7778C0 19.0033 0.996667 20 2.22222 20H17.7778C19.0033 20 20 19.0033 20 17.7778V2.22222C20 0.996667 19.0033 0 17.7778 0ZM2.22222 17.7778V2.22222H17.7778L17.78 17.7778H2.22222Z" fill="#37352F"/>
<path d="M7.77778 12.2222L6.66667 11.1111L3.33333 15.5556H16.6667L11.1111 7.77778L7.77778 12.2222Z" fill="#37352F"/>
<path d="M6.11111 8.88889C7.03159 8.88889 7.77778 8.1427 7.77778 7.22222C7.77778 6.30175 7.03159 5.55556 6.11111 5.55556C5.19064 5.55556 4.44444 6.30175 4.44444 7.22222C4.44444 8.1427 5.19064 8.88889 6.11111 8.88889Z" fill="#37352F"/>
</svg>
