<svg width="45" height="32" viewBox="0 0 45 32" fill="none" xmlns="http://www.w3.org/2000/svg">
<path d="M16.5409 14.8683C15.9135 15.4933 15.9135 16.5061 16.5409 17.1311C17.1687 17.7558 18.186 17.7558 18.8138 17.1311L20.8917 15.0626V23.9997C20.8917 24.8833 21.6113 25.5997 22.4988 25.5997C23.3863 25.5997 24.1059 24.8833 24.1059 23.9997V15.0626L26.1837 17.1311C26.8115 17.7558 27.8289 17.7558 28.4567 17.1311C29.0841 16.5061 29.0841 15.4933 28.4567 14.8683L23.6353 10.0683C23.0075 9.44363 21.9901 9.44363 21.3623 10.0683L16.5409 14.8683Z" fill="#828282"/>
<path fill-rule="evenodd" clip-rule="evenodd" d="M22.5002 0C15.5411 0 9.7312 4.89143 8.34814 11.4103C3.58374 12.3778 0 16.5717 0 21.6C0 27.3439 4.67688 32 10.4464 32H34.5536C40.3228 32 45 27.3439 45 21.6C45 16.5714 41.4163 12.3776 36.6519 11.4103C35.2686 4.8917 29.4592 0 22.4998 0H22.5002ZM11.3338 13.0222C12.015 7.48754 16.7557 3.2 22.5002 3.2C28.2447 3.2 32.9852 7.48754 33.6666 13.0222C33.7595 13.7772 34.3733 14.3629 35.1349 14.4229C38.8564 14.7164 41.7863 17.8182 41.7863 21.6C41.7863 25.5764 38.5483 28.8 34.5541 28.8H10.447C6.45282 28.8 3.21484 25.5764 3.21484 21.6C3.21484 17.8182 6.14424 14.7164 9.8662 14.4229C10.6278 14.3629 11.2419 13.7771 11.3345 13.0222H11.3338Z" fill="#828282"/>
</svg>
