<svg width="24" height="16" viewBox="0 0 24 16" fill="none" xmlns="http://www.w3.org/2000/svg">
<path d="M12.0149 16H11.9909C11.9165 16 4.47908 15.9863 2.60263 15.501C1.57079 15.2363 0.764971 14.4684 0.487581 13.4856C0.150153 11.6727 -0.0127889 9.83425 0.00078273 7.99315C-0.0079351 6.14903 0.159416 4.30798 0.50077 2.49272C0.785783 1.50901 1.58807 0.737596 2.61822 0.456751C4.44311 0 11.6755 0 11.9825 0H12.0077C12.0832 0 19.5398 0.0137025 21.3971 0.499001C22.4268 0.765069 23.231 1.53137 23.5098 2.51213C23.8579 4.33176 24.0214 6.17909 23.9978 8.02855C24.0062 9.87043 23.8384 11.7092 23.4966 13.5221C23.2156 14.5037 22.4093 15.2699 21.3779 15.5353C19.5554 15.9954 12.3218 16 12.0149 16ZM9.61684 4.57322L9.61085 11.4245L15.8601 7.99886L9.61684 4.57322Z" fill="#616161"/>
</svg>
