<svg width="16" height="16" viewBox="0 0 16 16" fill="none" xmlns="http://www.w3.org/2000/svg">
<path d="M8 15.9929C7.484 15.4847 6.9008 14.9561 6.284 14.3937H6.276C4.10401 12.4214 1.64241 10.1896 0.555217 7.51541C0.198032 6.66405 0.00874142 5.73776 9.12476e-06 4.79857C-0.0023763 3.50987 0.463034 2.2745 1.29106 1.37165C2.11909 0.468805 3.23984 -0.0253038 4.40001 0.000998852C5.34451 0.00265561 6.26867 0.305805 7.0624 0.874334C7.41118 1.12573 7.72674 1.42983 8 1.77788C8.27479 1.4312 8.59044 1.12728 8.9384 0.874334C9.73178 0.305693 10.6557 0.00252568 11.6 0.000998852C12.7602 -0.0253038 13.8809 0.468805 14.7089 1.37165C15.537 2.2745 16.0024 3.50987 16 4.79857C15.9918 5.73926 15.8025 6.66713 15.4448 7.51986C14.3576 10.1941 11.8968 12.4249 9.7248 14.3937L9.7168 14.4008C9.0992 14.9596 8.5168 15.4883 8.0008 16L8 15.9929ZM4.40001 1.77788C3.65482 1.76752 2.93607 2.08425 2.40001 2.65921C1.88352 3.22262 1.59486 3.99457 1.59995 4.79857C1.60908 5.48311 1.74868 6.15775 2.00961 6.77801C2.52282 7.93183 3.2153 8.97605 4.05521 9.86267C4.84801 10.7511 5.76 11.6111 6.5488 12.3343C6.7672 12.5342 6.9896 12.7359 7.212 12.9376L7.352 13.0646C7.5656 13.2583 7.7864 13.4591 8 13.6563L8.0104 13.6456L8.0152 13.6412H8.02L8.0272 13.635H8.0312H8.0352L8.0496 13.6217L8.0824 13.5923L8.088 13.587L8.0968 13.5799H8.1016L8.1088 13.5728L8.64 13.0886L8.7792 12.9615C9.004 12.7581 9.2264 12.5564 9.4448 12.3565C10.2336 11.6333 11.1464 10.7742 11.9392 9.88132C12.7792 8.99516 13.4717 7.9512 13.9848 6.79755C14.2504 6.17192 14.392 5.49022 14.4 4.79857C14.4033 3.99705 14.1148 3.22807 13.6 2.66631C13.065 2.08876 12.3461 1.76942 11.6 1.77788C10.6895 1.76928 9.81915 2.1931 9.208 2.94262L8 4.4885L6.792 2.94262C6.18085 2.1931 5.31047 1.76928 4.40001 1.77788Z" fill="#F05656"/>
</svg>
