<svg width="23" height="20" viewBox="0 0 23 20" fill="none" xmlns="http://www.w3.org/2000/svg">
<path d="M14.3281 0C15.0722 0 15.7637 0.355861 16.1575 0.941467L17.6152 3.10882H19.8854C21.6056 3.10882 23 4.4024 23 5.9981V17.1107C23 18.7064 21.6056 20 19.8854 20H3.11458C1.39445 20 0 18.7064 0 17.1107V5.9981C0 4.4024 1.39445 3.10882 3.11458 3.10882H5.57607L6.90104 0.994852C7.28707 0.378945 7.99711 0 8.76511 0H14.3281ZM11.5 6.22274C8.589 6.22274 6.22917 8.41187 6.22917 11.1123C6.22917 13.8127 8.589 16.0018 11.5 16.0018C14.411 16.0018 16.7708 13.8127 16.7708 11.1123C16.7708 8.41187 14.411 6.22274 11.5 6.22274ZM11.5 7.55626C13.6171 7.55626 15.3333 9.14835 15.3333 11.1123C15.3333 13.0762 13.6171 14.6683 11.5 14.6683C9.38291 14.6683 7.66667 13.0762 7.66667 11.1123C7.66667 9.14835 9.38291 7.55626 11.5 7.55626Z" fill="#37352F"/>
</svg>
