<svg width="21" height="14" viewBox="0 0 21 14" fill="none" xmlns="http://www.w3.org/2000/svg">
<path d="M18.4399 14L15.1526 11.4442C13.7344 11.9462 12.1913 12.1992 10.6331 12.1852C9.02659 12.2007 7.43666 11.9311 5.98431 11.3969C4.85852 10.9699 3.84761 10.3801 3.00558 9.65903C2.11175 8.9141 1.40924 8.04324 0.935843 7.09329L0.837891 6.85416L0.940741 6.6135C1.64875 5.20938 2.84029 3.98391 4.38475 3.07142L1.81741 1.07534L3.20148 0L19.823 12.9231L18.4419 14H18.4399ZM5.77077 4.14981C4.51887 4.83212 3.53026 5.76717 2.91154 6.85416C4.23823 9.234 7.2987 10.7433 10.6331 10.662C11.6615 10.6686 12.6838 10.5398 13.6569 10.2812L11.8938 8.91041C11.5013 9.05998 11.0702 9.13811 10.6331 9.13888C9.01442 9.13098 7.70471 8.11269 7.69455 6.85416C7.69502 6.51356 7.79553 6.17754 7.98841 5.87173L5.77077 4.14981ZM18.3243 9.60344L16.9608 8.54409C17.5345 8.03986 18.0046 7.46985 18.3547 6.85416C17.0298 4.47316 13.9682 2.96334 10.6331 3.04629C10.3912 3.04629 10.1483 3.05315 9.91318 3.06609L8.18432 1.72039C8.98912 1.58653 9.81012 1.52041 10.6331 1.52315C12.2397 1.50765 13.8296 1.77722 15.2819 2.31137C16.4077 2.73841 17.4187 3.32822 18.2607 4.04928C19.1541 4.79331 19.8566 5.66312 20.3304 6.61198L20.4284 6.85416L20.3255 7.09482C19.8669 8.02247 19.1884 8.87496 18.3253 9.60801L18.3243 9.60344Z" fill="#828282"/>
</svg>
