<svg width="240" height="134" viewBox="0 0 240 134" fill="none" xmlns="http://www.w3.org/2000/svg">
<path d="M238.512 12.4452C239.807 10.6524 240.286 8.3894 239.833 6.22052C239.378 4.05159 238.035 2.17561 236.133 1.06277C234.231 -0.0523187 231.952 -0.303747 229.857 0.374025C227.762 1.04961 226.048 2.58886 225.144 4.60913C210.658 29.3244 188.075 48.1692 161.284 57.8989C134.495 67.6264 105.181 67.6264 78.3864 57.8989C51.5955 48.1692 29.012 29.3244 14.5266 4.60913C13.4943 2.78348 11.7767 1.45194 9.76188 0.914046C7.74709 0.376184 5.60001 0.675728 3.80841 1.74927C2.01482 2.82064 0.724419 4.57415 0.225623 6.61407C-0.273196 8.65617 0.0629621 10.812 1.15603 12.6026C11.9587 30.8351 26.7649 46.3305 44.436 57.8944L21.7397 97.5146C20.7052 99.3184 20.4254 101.461 20.9611 103.473C21.499 105.484 22.8068 107.199 24.5982 108.235C25.7693 108.921 27.1009 109.278 28.4543 109.269C31.2411 109.287 33.8198 107.789 35.2011 105.351L57.9301 65.7309C74.7817 74.3238 93.2073 79.3283 112.06 80.4326V126.164C112.06 130.491 115.539 134 119.833 134C124.125 134 127.606 130.491 127.606 126.164V80.4326C146.457 79.3284 164.883 74.3238 181.736 65.7309L204.465 105.382H204.463C205.845 107.822 208.426 109.32 211.21 109.3C212.563 109.311 213.895 108.952 215.066 108.266C216.858 107.229 218.168 105.515 218.703 103.506C219.241 101.494 218.961 99.3494 217.927 97.5459L195.228 57.8949C212.917 46.2851 227.725 30.7371 238.508 12.4458L238.512 12.4452Z" fill="#BDBDBD"/>
</svg>
