<svg width="16" height="16" viewBox="0 0 16 16" fill="none" xmlns="http://www.w3.org/2000/svg">
<path d="M9.59981 15.9991H1.60075C1.17206 16.014 0.756425 15.8502 0.453113 15.5469C0.1498 15.2436 -0.0139627 14.8279 0.000934478 14.3993V6.40019C-0.0139627 5.9715 0.1498 5.55586 0.453113 5.25255C0.756425 4.94924 1.17206 4.78548 1.60075 4.80037H4.80037V1.60075C4.78548 1.17206 4.94924 0.756425 5.25255 0.453113C5.55586 0.1498 5.9715 -0.0139627 6.40019 0.000934478H14.3993C14.8279 -0.0139627 15.2436 0.1498 15.5469 0.453113C15.8502 0.756425 16.014 1.17206 15.9991 1.60075V9.59981C16.0137 10.0284 15.8499 10.4439 15.5466 10.7472C15.2434 11.0504 14.8279 11.2143 14.3993 11.1996H11.1996V14.3993C11.2143 14.8279 11.0504 15.2434 10.7472 15.5466C10.4439 15.8499 10.0284 16.0137 9.59981 15.9991ZM1.60075 6.40019V14.3993H9.59981V11.1996H6.40019C5.97156 11.2143 5.55607 11.0504 5.25282 10.7472C4.94956 10.4439 4.78572 10.0284 4.80037 9.59981V6.40019H1.60075ZM6.40019 1.60075V9.59981H14.3993V1.60075H6.40019Z" fill="#616161"/>
</svg>
