<svg width="26" height="20" viewBox="0 0 26 20" fill="none" xmlns="http://www.w3.org/2000/svg">
<path fill-rule="evenodd" clip-rule="evenodd" d="M3.9398 0H22.0602C24.2278 0 26 1.76663 26 3.92135V16.0787C26 18.2334 24.2278 20 22.0602 20H3.9398C1.77215 20 0 18.2334 0 16.0787V3.92135C0 1.76663 1.77215 0 3.9398 0ZM18.5738 2.87825C19.6881 2.87825 20.5901 3.77602 20.5901 4.88509C20.5901 5.99415 19.6881 6.89466 18.5738 6.89466C17.4595 6.89466 16.5548 5.99411 16.5548 4.88509C16.5548 3.77602 17.4596 2.87825 18.5738 2.87825ZM5.57901 13.8581L10.2086 6.37709C10.5959 5.93355 11.474 5.93355 11.8614 6.37709L14.8673 11.2307L16.0586 9.30565C16.3345 8.98883 16.958 8.98883 17.234 9.30565L20.521 14.6185C21.1419 15.622 20.4866 16.8525 19.3883 16.8525H7.17094C5.60829 16.8525 4.70369 15.2709 5.57901 13.8581Z" fill="#37352F"/>
</svg>
