<svg width="22" height="16" viewBox="0 0 22 16" fill="none" xmlns="http://www.w3.org/2000/svg">
<path d="M6.45301 0.000518737C6.19544 0.0247588 5.9989 0.241696 5.99997 0.50048V2.50037H3.49994C3.48425 2.49967 3.46873 2.49967 3.45303 2.50037C3.19546 2.52479 2.99874 2.74155 2.99999 3.00051V5.0004H0.499958C0.484264 4.9997 0.468743 4.9997 0.453047 5.0004C0.195303 5.02464 -0.00124409 5.24158 5.92909e-06 5.50036V15.5C5.92909e-06 15.7761 0.223745 16 0.499967 16H15.5001C15.7762 16 16.0001 15.7761 16.0001 15.5V13.5001H18.5001C18.7762 13.5001 19.0001 13.2762 19.0001 13.0002V11.0003H21.5001V11.0001C21.7764 11.0001 22.0001 10.7762 22.0001 10.5002V0.500485C22.0001 0.224428 21.7764 0.000523165 21.5001 0.000523165H6.49995C6.48443 -0.000174388 6.46874 -0.000174388 6.45304 0.000523165L6.45301 0.000518737ZM6.99989 1.00044H21.0001V10.0001H19V3.00047C19 2.72423 18.7761 2.5005 18.5 2.50033H6.99989V1.00044ZM3.9999 3.50047H6.41395C6.44237 3.50553 6.47115 3.50815 6.49992 3.50815L18.0001 3.5003V10.5004C17.999 10.5187 17.999 10.5368 18.0001 10.5551V12.5004H16V5.50035C16 5.22429 15.7761 5.00039 15.5 5.00039H3.99989L3.9999 3.50047ZM0.999911 6.00032H3.41396C3.44238 6.00538 3.47115 6.008 3.49993 6.00817L15.0001 6.00032V13.0004C14.999 13.0185 14.999 13.0369 15.0001 13.055V15.0003H0.999902L0.999911 6.00032Z" fill="#616161"/>
<mask id="path-2-inside-1_6961_3180" fill="white">
<rect x="6" width="16" height="11" rx="0.5"/>
</mask>
<rect x="6" width="16" height="11" rx="0.5" fill="white" stroke="#616161" stroke-width="3" mask="url(#path-2-inside-1_6961_3180)"/>
<mask id="path-3-inside-2_6961_3180" fill="white">
<rect x="3" y="2.5" width="16" height="11" rx="0.5"/>
</mask>
<rect x="3" y="2.5" width="16" height="11" rx="0.5" fill="white" stroke="#616161" stroke-width="3" mask="url(#path-3-inside-2_6961_3180)"/>
<mask id="path-4-inside-3_6961_3180" fill="white">
<rect y="5" width="16" height="11" rx="0.5"/>
</mask>
<rect y="5" width="16" height="11" rx="0.5" fill="white" stroke="#616161" stroke-width="3" mask="url(#path-4-inside-3_6961_3180)"/>
</svg>
