<svg width="20" height="16" viewBox="0 0 20 16" fill="none" xmlns="http://www.w3.org/2000/svg">
<path d="M10.0002 16C10.7885 16 11.4312 15.4 11.4312 14.6641C11.4312 13.9281 10.7885 13.3281 10.0002 13.3281H1.43134C0.643068 13.3281 0.000401497 13.9281 0.000401497 14.6641C0.000401497 15.4 0.643068 16 1.43134 16H10.0002Z" fill="#37352F"/>
<path d="M19.76 8.73512C19.7858 8.7032 19.7941 8.65521 19.8114 8.61502C19.8542 8.54293 19.8886 8.46301 19.9142 8.3831C19.9314 8.33511 19.957 8.29516 19.9742 8.24717C19.9828 8.19918 19.9742 8.15922 19.9742 8.11123C19.9742 8.07128 20 8.03132 20 7.99114C20 7.95119 19.9742 7.91123 19.9742 7.87105C19.9656 7.82306 19.9828 7.7831 19.9742 7.73511C19.9656 7.68712 19.9314 7.64716 19.9142 7.59918C19.8883 7.51927 19.8542 7.43913 19.8114 7.36726C19.7855 7.3273 19.7855 7.28735 19.76 7.24716L16.9065 3.24718C16.6322 2.86325 16.1782 2.65524 15.7153 2.65524C15.4411 2.65524 15.1669 2.72733 14.9271 2.87935C14.2672 3.28738 14.096 4.11929 14.5328 4.72734L15.9123 6.65522L1.43094 6.65522C0.642668 6.65522 0 7.25522 0 7.99116C0 8.7271 0.642668 9.32709 1.43094 9.32709H15.9038L14.5242 11.255C14.0872 11.871 14.2672 12.6949 14.9185 13.103C15.5783 13.511 16.4608 13.3429 16.8979 12.7349L19.76 8.73512Z" fill="#37352F"/>
<path d="M1.43134 2.66406L10.0002 2.66406C10.7885 2.66406 11.4312 2.06406 11.4312 1.32812C11.4312 0.591956 10.7885 1.4782e-05 10.0002 1.4782e-05L1.43134 1.4782e-05C0.643068 1.4782e-05 0.000401497 0.600013 0.000401497 1.33595C0.000401497 2.07212 0.643068 2.66406 1.43134 2.66406Z" fill="#37352F"/>
</svg>
