<svg width="17" height="20" viewBox="0 0 17 20" fill="none" xmlns="http://www.w3.org/2000/svg">
<path d="M14.2186 20H2.03122C0.90941 20 0 19.1046 0 18V2C0 0.89543 0.90941 0 2.03122 0H9.14051C9.15158 0.000472319 9.16252 0.00249256 9.17301 0.006C9.18293 0.00901724 9.19314 0.0110277 9.20348 0.012C9.29304 0.0176532 9.38147 0.0347982 9.46652 0.063L9.49496 0.072C9.51797 0.079682 9.54038 0.0890412 9.56199 0.1C9.67263 0.148424 9.77345 0.216185 9.85956 0.3L15.9532 6.3C16.0384 6.38479 16.1072 6.48406 16.1564 6.593C16.1665 6.615 16.1736 6.638 16.1817 6.661L16.1909 6.687C16.2192 6.77039 16.236 6.85718 16.2407 6.945C16.2422 6.95418 16.2446 6.96322 16.2478 6.972C16.2496 6.98122 16.2502 6.99062 16.2499 7V18C16.2499 19.1046 15.3404 20 14.2186 20ZM2.03122 2V18H14.2186V8H9.14051C8.5796 8 8.1249 7.55228 8.1249 7V2H2.03122ZM10.1561 3.414V6H12.7825L10.1561 3.414Z" fill="#37352F" fill-opacity="0.8"/>
</svg>
