<svg width="17" height="20" viewBox="0 0 17 20" fill="none" xmlns="http://www.w3.org/2000/svg">
<path d="M9.5 1.25C9.5 0.973858 9.72386 0.75 10 0.75H15C15.2761 0.75 15.5 0.973858 15.5 1.25V10C15.5 10.2761 15.2761 10.5 15 10.5H10C9.72386 10.5 9.5 10.2761 9.5 10V1.25ZM9.5 13.75C9.5 13.4739 9.72386 13.25 10 13.25H15C15.2761 13.25 15.5 13.4739 15.5 13.75V18.75C15.5 19.0261 15.2761 19.25 15 19.25H10C9.72386 19.25 9.5 19.0261 9.5 18.75V13.75ZM0.75 1.25C0.75 0.973858 0.973858 0.75 1.25 0.75H6.25C6.52614 0.75 6.75 0.973858 6.75 1.25V6.25C6.75 6.52614 6.52614 6.75 6.25 6.75H1.25C0.973858 6.75 0.75 6.52614 0.75 6.25V1.25ZM0.75 10C0.75 9.72386 0.973858 9.5 1.25 9.5H6.25C6.52614 9.5 6.75 9.72386 6.75 10V18.75C6.75 19.0261 6.52614 19.25 6.25 19.25H1.25C0.973858 19.25 0.75 19.0261 0.75 18.75V10Z" stroke="#37352F" stroke-opacity="0.8" stroke-width="1.5"/>
</svg>
