<svg width="24" height="24" viewBox="0 0 24 24" fill="none" xmlns="http://www.w3.org/2000/svg">
<rect y="24" width="24" height="24" rx="4" transform="rotate(-90 0 24)" fill="#F3F4F7"/>
<path d="M12 6C12.8284 6 13.5 6.67157 13.5 7.5C13.5 8.32843 12.8284 9 12 9C11.1716 9 10.5 8.32843 10.5 7.5C10.5 6.67157 11.1716 6 12 6ZM12 10.5C12.8284 10.5 13.5 11.1716 13.5 12C13.5 12.8284 12.8284 13.5 12 13.5C11.1716 13.5 10.5 12.8284 10.5 12C10.5 11.6022 10.658 11.2206 10.9393 10.9393C11.2206 10.658 11.6022 10.5 12 10.5ZM12 15C12.8284 15 13.5 15.6716 13.5 16.5C13.5 17.3284 12.8284 18 12 18C11.1716 18 10.5 17.3284 10.5 16.5C10.5 16.1022 10.658 15.7206 10.9393 15.4393C11.2206 15.158 11.6022 15 12 15Z" fill="#616161"/>
</svg>
