<svg width="4" height="12" viewBox="0 0 4 12" fill="none" xmlns="http://www.w3.org/2000/svg">
<path d="M2 0C2.82843 0 3.5 0.671573 3.5 1.5C3.5 2.32843 2.82843 3 2 3C1.17157 3 0.5 2.32843 0.5 1.5C0.5 0.671573 1.17157 0 2 0ZM2 4.5C2.82843 4.5 3.5 5.17157 3.5 6C3.5 6.82843 2.82843 7.5 2 7.5C1.17157 7.5 0.5 6.82843 0.5 6C0.5 5.60218 0.658035 5.22064 0.93934 4.93934C1.22064 4.65804 1.60218 4.5 2 4.5ZM2 9C2.82843 9 3.5 9.67157 3.5 10.5C3.5 11.3284 2.82843 12 2 12C1.17157 12 0.5 11.3284 0.5 10.5C0.5 10.1022 0.658035 9.72064 0.93934 9.43934C1.22064 9.15804 1.60218 9 2 9Z" fill="#616161"/>
</svg>
