<?xml version="1.0" encoding="UTF-8"?>
<svg xmlns="http://www.w3.org/2000/svg" xmlns:xlink="http://www.w3.org/1999/xlink" width="96px" height="64px" viewBox="0 0 96 64" version="1.1">
<g id="surface1">
<path style="fill-rule:nonzero;fill:rgb(100%,100%,100%);fill-opacity:1;stroke-width:2;stroke-linecap:butt;stroke-linejoin:miter;stroke:rgb(100%,100%,100%);stroke-opacity:1;stroke-miterlimit:4;" d="M 6.00179 1.000244 L 93.99821 1.000244 C 96.761068 1.000244 98.999023 3.237305 98.999023 6.001465 L 98.999023 61.998535 C 98.999023 64.762695 96.761068 66.999756 93.99821 66.999756 L 6.00179 66.999756 C 3.238932 66.999756 1.000977 64.762695 1.000977 61.998535 L 1.000977 6.001465 C 1.000977 3.237305 3.238932 1.000244 6.00179 1.000244 Z M 6.00179 1.000244 " transform="matrix(0.96,0,0,0.941176,0,0)"/>
<path style=" stroke:none;fill-rule:nonzero;fill:rgb(70.196078%,70.196078%,70.196078%);fill-opacity:1;" d="M 25.921875 40.46875 L 70.078125 40.46875 C 70.609375 40.46875 71.039062 40.890625 71.039062 41.410156 L 71.039062 42.351562 C 71.039062 42.871094 70.609375 43.292969 70.078125 43.292969 L 25.921875 43.292969 C 25.390625 43.292969 24.960938 42.871094 24.960938 42.351562 L 24.960938 41.410156 C 24.960938 40.890625 25.390625 40.46875 25.921875 40.46875 Z M 25.921875 40.46875 "/>
<path style=" stroke:none;fill-rule:nonzero;fill:rgb(70.196078%,70.196078%,70.196078%);fill-opacity:1;" d="M 18.238281 23.53125 L 77.761719 23.53125 C 78.289062 23.53125 78.71875 23.949219 78.71875 24.46875 L 78.71875 28.234375 C 78.71875 28.753906 78.289062 29.175781 77.761719 29.175781 L 18.238281 29.175781 C 17.710938 29.175781 17.28125 28.753906 17.28125 28.234375 L 17.28125 24.46875 C 17.28125 23.949219 17.710938 23.53125 18.238281 23.53125 Z M 18.238281 23.53125 "/>
<path style=" stroke:none;fill-rule:nonzero;fill:rgb(70.196078%,70.196078%,70.196078%);fill-opacity:1;" d="M 18.238281 31.058594 L 77.761719 31.058594 C 78.289062 31.058594 78.71875 31.480469 78.71875 32 L 78.71875 35.765625 C 78.71875 36.285156 78.289062 36.707031 77.761719 36.707031 L 18.238281 36.707031 C 17.710938 36.707031 17.28125 36.285156 17.28125 35.765625 L 17.28125 32 C 17.28125 31.480469 17.710938 31.058594 18.238281 31.058594 Z M 18.238281 31.058594 "/>
</g>
</svg>
